<?xml version="1.0" encoding="UTF-8"?>
<svg id="Layer_2" xmlns="http://www.w3.org/2000/svg" viewBox="0 0 800 797.99">
  <defs>
    <style>
      .cls-1 {
        fill: #fff;
      }
    </style>
  </defs>
  <g id="Layer_1-2" data-name="Layer_1">
    <path class="cls-1" d="M700,183.88c0-51.82-18.57-98.75-52.29-132.15C614.03,18.37,566.74,0,514.53,0c-70.1,0-142.42,31.82-198.43,87.3-51.46,50.98-82.75,115.61-87.53,179.67-1.43,9.16-2.77,18.89-4.18,29.17-8.05,58.87-18,131.39-57.79,177.37-3.5.57-6.76,2.2-9.29,4.73L12.9,622.65c-17.21,17.21-17.21,45.2,0,62.41,8.34,8.34,19.42,12.92,31.2,12.92s22.87-4.59,31.21-12.93l144.37-144.43c2.61-2.61,4.17-5.85,4.73-9.23,45.97-39.82,118.52-49.77,177.41-57.82,11.12-1.52,21.61-2.95,31.41-4.52,2.43-.39,4.66-1.29,6.59-2.56,61.53-6.87,122.99-37.29,171.98-85.82,56.05-55.52,88.2-127.25,88.2-196.79ZM246.91,369.59c8.46,17.39,19.63,33.13,33.28,46.66,14.45,14.31,31.42,25.86,50.2,34.39-43.87,8.89-89.56,23.46-124.61,52.09l-10.55-10.55c28.19-34.51,42.75-79.34,51.68-122.59ZM51.31,661.06c-1.92,1.92-4.48,2.98-7.2,2.98s-5.28-1.06-7.2-2.98c-3.97-3.97-3.97-10.43,0-14.4l132.4-132.4,14.37,14.37-132.37,132.43ZM413.39,434.22h-.02c-43.83,0-81.62-14.49-109.29-41.9-27.63-27.37-42.23-64.73-42.23-108.04,0-4.41.17-8.83.47-13.25l.04-.31c.24-1.31.33-2.61.27-3.88,4.87-55.03,32.45-110.75,77.36-155.23,49.7-49.24,113.32-77.47,174.54-77.47,43.82,0,81.61,14.49,109.29,41.9,27.63,27.37,42.23,64.73,42.23,108.03,0,60.55-28.48,123.49-78.14,172.68-49.7,49.24-113.31,77.47-174.52,77.47Z"/>
  </g>
</svg>