<?xml version="1.0" encoding="UTF-8"?>
<svg id="Layer_1" xmlns="http://www.w3.org/2000/svg" xmlns:xlink="http://www.w3.org/1999/xlink" viewBox="0 0 24 24">
  <path d="M10.78,7.21c1.54-.89,3.08-1.78,4.62-2.67,2.87,4.97,5.73,9.92,8.61,14.91-.07,0-.12,0-.17,0-1.95,0-3.89,0-5.84,0-.13,0-.18-.06-.23-.15-1.8-3.12-3.6-6.24-5.4-9.36-.52-.91-1.05-1.81-1.58-2.74Z" fill="currentColor"/>
  <path d="M5.39,12.77c1.53-.89,3.07-1.77,4.61-2.66,1.8,3.11,3.59,6.21,5.4,9.35-.08,0-.14,0-.2,0-1.93,0-3.86,0-5.79,0-.11,0-.18-.02-.24-.12-1.23-2.15-2.47-4.29-3.71-6.44-.02-.04-.04-.07-.07-.12Z" fill="currentColor"/>
  <path d="M0,18.34c1.55-.89,3.07-1.77,4.62-2.67.72,1.25,1.44,2.5,2.18,3.78h-.2c-1.93,0-3.85,0-5.78,0-.14,0-.21-.04-.27-.16-.17-.32-.36-.63-.55-.96Z" fill="currentColor"/>
</svg>