<?xml version="1.0" encoding="UTF-8"?>
<svg id="Layer_1" xmlns="http://www.w3.org/2000/svg" viewBox="0 0 250 250">
  <path d="M112.25,75.07c16.09-9.29,32.04-18.5,48.11-27.77,29.88,51.75,59.67,103.36,89.64,155.27-.76.04-1.27.09-1.77.09-20.28,0-40.57-.01-60.85.04-1.32,0-1.82-.62-2.38-1.58-18.75-32.51-37.52-65.01-56.28-97.51-5.45-9.44-10.9-18.88-16.47-28.54Z"/>
  <path d="M56.16,133.07c15.98-9.23,31.94-18.44,48.07-27.75,18.7,32.39,37.36,64.71,56.21,97.35-.87,0-1.45,0-2.03,0-20.12,0-40.24,0-60.36.02-1.14,0-1.9-.19-2.54-1.3-12.86-22.36-25.77-44.69-38.66-67.03-.22-.38-.41-.78-.68-1.28Z"/>
  <path d="M0,191.09c16.1-9.3,32-18.48,48.1-27.77,7.53,13.05,15.04,26.04,22.71,39.34h-2.11c-20.05,0-40.11-.02-60.16.03-1.41,0-2.19-.41-2.86-1.65-1.79-3.3-3.71-6.52-5.69-9.96Z"/>
</svg>