<?xml version="1.0" encoding="UTF-8"?>
<svg id="Layer_1" xmlns="http://www.w3.org/2000/svg" xmlns:xlink="http://www.w3.org/1999/xlink" viewBox="0 0 24 24">
  <defs>
    <filter id="drop-shadow-3" filterUnits="userSpaceOnUse">
      <feOffset dx="15" dy="15"/>
      <feGaussianBlur result="blur" stdDeviation="20"/>
      <feFlood flood-color="#000" flood-opacity=".85"/>
      <feComposite in2="blur" operator="in"/>
      <feComposite in="SourceGraphic"/>
    </filter>
  </defs>
  <path d="M15.73,14.51l-4.93-8.57,3.54-2.03,6.13,10.6h-4.74"/>
  <path d="M2.59,13.31l3.54-2.05,1.87,3.25H3.28l-.69-1.2"/>
  <path d="M9.54,19.99h1v-4.08h-1v4.08Z"/>
  <path d="M22.18,20.08c-1.12,0-1.79-.58-1.83-1.39h1.06c0,.26.16.63.84.64.46,0,.67-.27.67-.47-.03-.32-.43-.35-.86-.41-.43-.07-.79-.15-1.06-.28-.34-.17-.56-.55-.56-.97,0-.72.63-1.3,1.68-1.3s1.66.53,1.73,1.33h-1.02c0-.21-.05-.55-.65-.55-.41,0-.67.08-.7.36,0,.41.84.39,1.5.56.63.16,1.03.55,1.03,1.1,0,1.01-.82,1.39-1.82,1.39"/>
  <path d="M6.76,9.7l3.52-2.03,3.95,6.85h-3.69v1h-1v-1.01l-2.79-4.81"/>
  <path d="M6.85,20.09c-1.17,0-2.12-.96-2.12-2.12s.95-2.1,2.12-2.1c.44,0,.84.12,1.19.36v-1.71h1v5.48h-1v-.27c-.35.23-.75.37-1.19.37h0ZM5.68,17.97c0,.63.54,1.16,1.19,1.16s1.17-.53,1.17-1.16-.54-1.17-1.17-1.17-1.19.54-1.19,1.17"/>
  <path d="M14.29,14.51h1v5.48h-1v-.27c-.34.23-.76.37-1.22.37-1.17,0-2.13-.96-2.13-2.12s.96-2.1,2.13-2.1c.46,0,.87.12,1.22.36v-1.71h0ZM11.94,17.97c0,.63.54,1.16,1.16,1.16s1.19-.53,1.19-1.16-.54-1.17-1.19-1.17-1.16.54-1.16,1.17"/>
  <path d="M17.74,20.09c-1.15,0-2.1-.96-2.1-2.11s.95-2.1,2.1-2.1c.44,0,.86.12,1.19.36v-.32h1v4.08h-1v-.27c-.34.23-.74.37-1.19.37h0ZM16.6,17.97c0,.63.54,1.16,1.17,1.16s1.16-.53,1.16-1.16-.53-1.17-1.16-1.17-1.17.54-1.17,1.17"/>
  <path d="M1,17.97c0,.63.54,1.16,1.17,1.16s1.19-.53,1.19-1.16-.54-1.17-1.19-1.17-1.17.54-1.17,1.17ZM2.14,20.09c-1.17,0-2.14-.96-2.14-2.11s.97-2.1,2.14-2.1c.45,0,.87.12,1.22.36v-.32h1v4.08h-1v-.27c-.34.23-.76.37-1.22.37"/>
</svg>