<?xml version="1.0" encoding="UTF-8"?>
<svg id="Layer_1" xmlns="http://www.w3.org/2000/svg" viewBox="0 0 250 250">
  <path d="M58.9,117.97c4.59-5.79,8.06-11.24,9.45-17.79,1.08-5.1-1.64-9.36-6.71-10.64-5.61-1.42-11.04-.23-16.15,1.85-6.46,2.63-12.66,5.88-18.97,8.87,0,.03-.13-.58.09-.75,10.87-8.48,22.54-15.26,36.77-15.73,13.51-.45,20.35,8.3,16.98,21.49-3.18,12.44-10.11,22.85-18.26,32.47-9.24,10.92-19.59,20.63-33.19,25.91-4.06,1.57-8.6,2.51-12.94,2.6-11.68.24-18.04-8.2-15.36-19.64,1.97-8.43,6.81-15.1,12.91-20.93,8.77-8.38,18.72-14.79,30.74-17.44,1.81-.4,3.72-.51,5.58-.48,6.37.1,9.18,3.04,9.06,10.24ZM27.01,142.35c.8-.19,2.59-.36,4.17-1.03,8.6-3.61,15.62-9.33,21.34-16.61,1.19-1.51,1.95-3.48,2.47-5.36.91-3.3-.8-5.86-4.18-6.4-1.47-.23-3.08-.19-4.52.16-10.59,2.63-18.6,8.94-24.69,17.82-.71,1.04-1.2,2.28-1.54,3.5-1.3,4.61,1.23,7.9,6.94,7.9Z" fill="#030366"/>
  <path d="M96.75,112.82c1.09-3.54,1.17-7.72,3.27-9.43,1.93-1.57,6.03-.5,9.18-.56,1.88-.04,3.75-.02,5.63,0,9.04.05,14.37,6.68,12.12,15.44-2.9,11.3-6.07,22.53-9.17,33.94-7.83,0-15.7.49-23.49-.13-9.64-.76-14.38-10.37-9.64-19.05,4.57-8.37,12.28-11.78,21.47-12.33,1.99-.12,4.02-.25,5.97.03,3.23.47,3.71-1.45,3.95-3.88.27-2.75-1.21-3.96-3.67-4.01-5.03-.1-10.07-.03-15.62-.03ZM112.5,130.5c-1.5,0-2.64,0-3.78,0-1.87.01-3.75-.11-5.6.07-3.9.37-6.85,2.73-7.78,6.03-.87,3.06.62,5.51,3.74,5.69,3.36.19,6.74.04,10.24.04,1.06-3.94,2.07-7.71,3.18-11.83Z" fill="#030366"/>
  <path d="M123.5,152.15c.87-3.27,1.7-6.39,2.6-9.79,4.97,0,9.88.03,14.78-.02,1.27-.01,2.62-.06,3.78-.5,3.19-1.22,3.83-4.47,1.2-6.62-1.88-1.54-4.09-2.69-6.22-3.91-8.21-4.72-10.59-8.61-9.11-15.09,1.72-7.53,8.11-12.93,16.09-13.32,4.45-.22,8.92-.06,13.38-.06.93,0,1.86,0,3.06,0-.94,3.44-1.82,6.66-2.73,9.96-4.7,0-9.15.04-13.6-.02-2.43-.03-4.94.55-5.2,3.04-.14,1.39,1.65,3.31,3.03,4.43,1.79,1.45,4.07,2.28,6.07,3.49,10.37,6.27,10.23,20.05-.32,26.19-1.79,1.04-3.89,2.05-5.88,2.13-6.89.26-13.79.1-20.93.1Z" fill="#030366"/>
  <path d="M210.49,152.22c.92-3.46,1.76-6.61,2.64-9.9,5.3,0,10.46-.01,15.61,0,2.53,0,4.76-.55,5.49-3.34.73-2.77-1.28-4-3.23-5.17-2.41-1.44-4.9-2.74-7.24-4.29-8.14-5.4-9.02-15.24-1.47-21.58,2.89-2.43,6.87-4.3,10.59-4.84,5.5-.81,11.2-.21,17.12-.21-.89,3.39-1.71,6.52-2.59,9.89-4.37,0-8.7-.02-13.03.01-1.05,0-2.3-.18-3.09.31-1.21.76-2.52,1.88-2.96,3.13-.25.74.87,2.36,1.79,3.02,2.18,1.56,4.59,2.78,6.92,4.12,6.97,4,9.55,8.42,8.29,14.3-1.81,8.49-7.31,14.08-14.97,14.48-6.43.34-12.89.07-19.88.07Z" fill="#020266"/>
  <path d="M217.7,102.83c-.9,3.45-1.72,6.59-2.52,9.64-3.71.34-7.39.3-10.89,1.07-8.31,1.81-14.35,8.74-15.4,17.12-.83,6.59,3.32,11.52,9.93,11.7,3.04.08,6.08.01,9.09.01.03.31.08.44.05.54-.94,3.1-1.88,6.19-2.82,9.28-4.67-.09-9.47.5-13.97-.4-10.22-2.03-15.39-11.21-13.06-22,3.59-16.65,16.24-26.9,33.28-26.96,1.98,0,3.96,0,6.31,0Z" fill="#030366"/>
  <path d="M171.06,102.91h10.88c-4.3,16.49-8.56,32.82-12.86,49.28h-10.89c4.3-16.45,8.56-32.78,12.88-49.28Z" fill="#030366"/>
</svg>