<?xml version="1.0" encoding="UTF-8"?>
<svg id="Layer_1" xmlns="http://www.w3.org/2000/svg" xmlns:xlink="http://www.w3.org/1999/xlink" viewBox="0 0 24 24">
  <path d="M17.45,9.85c1.36-1.76,2.52-3.46,2.75-5.6.13-1.23-.71-2.43-2.02-2.56-1.33-.13-2.78-.12-4.03.29-1.9.62-3.67,1.64-5.49,2.5-.24.11-.45.26-.69.4-.05-.11-.1-.21-.09-.23C11.01,2.09,14.45.17,18.6,0c4.05-.16,6,2.37,4.99,6.29-.79,3.07-2.43,5.7-4.34,8.17-2.46,3.16-5.29,5.92-8.82,7.89-1.72.96-3.54,1.65-5.56,1.63-3.49-.03-5.45-2.43-4.47-5.79.44-1.5,1.17-3.02,2.14-4.25,2.71-3.45,6.22-5.83,10.56-6.86.36-.09.75-.13,1.12-.14,2.22-.06,2.97.57,3.24,2.88ZM8.01,17.04c.22-.05.75-.1,1.21-.29,2.53-1.04,4.59-2.71,6.27-4.83.35-.44.58-1.01.73-1.56.28-1-.26-1.77-1.3-1.91-.43-.06-.9-.03-1.32.07-3.07.77-5.39,2.6-7.16,5.16-.23.33-.38.73-.48,1.12-.34,1.3.39,2.22,2.04,2.23Z" fill="currentColor"/>
</svg>