<?xml version="1.0" encoding="UTF-8"?>
<svg id="Layer_1" xmlns="http://www.w3.org/2000/svg" viewBox="0 0 250 250">
  <path d="M131.23,137.25c-7.56,0-14.92.07-22.27-.04-3.02-.04-4.8-1.8-5.26-4.72-2.71,4.02-6.77,4.76-11.13,4.8-6.14.05-12.28.09-18.41.12-.28,0-.56-.04-.93-.07,1.21-5.15,2.41-10.23,3.61-15.31.63-2.68,1.3-5.36,1.9-8.05.24-1.06.77-1.58,1.9-1.57,5.76.07,11.52.07,17.28.2,1.36.03,2.77.33,4.06.78,3.35,1.17,4.55,4.38,2.65,7.37-.8,1.27-2.13,2.21-3.24,3.27-.36.34-.8.59-1.35.98,1.95,1.3,3.71,2.62,4.27,5.14,2.05-3.71,5.34-4.84,9.08-4.96,3.65-.12,7.32-.09,10.97-.08.96,0,1.67-.15,1.78-1.26.1-1.07-.48-1.69-1.44-1.89-.81-.17-1.67-.22-2.5-.22-4.12-.02-8.24,0-12.36-.01-1.56,0-1.67-.15-1.33-1.68.63-2.84.63-2.86,3.5-2.84,4.92.03,9.84.05,14.76.14,1.08.02,2.18.21,3.21.53,3.42,1.04,4.91,3.45,4.17,6.93-.89,4.2-1.96,8.37-2.92,12.45ZM91.47,117.02s0,.06,0,.1c-.88,0-1.77.05-2.65-.01-.91-.06-1.42.28-1.61,1.18-.24,1.14-.53,2.28-.81,3.41-.17.68.03,1.06.78,1.04,2.02-.03,4.04.03,6.04-.11,1.4-.1,2.7-.64,3.54-1.89,1.07-1.61.58-3-1.29-3.36-1.31-.25-2.66-.24-4-.35ZM87.59,132.95c.02.09.04.19.05.28,1.7-.33,3.46-.49,5.09-1.03,1.47-.49,2.2-1.88,2.01-2.99-.17-.97-1.21-1.67-2.88-1.76-1.92-.1-3.85-.09-5.78-.13-.74-.02-1.15.32-1.31,1.06-.24,1.18-.53,2.36-.83,3.53-.21.8.11,1.07.88,1.05.92-.03,1.84,0,2.77,0ZM118.39,132.95s0,.02,0,.03c1.26,0,2.52,0,3.78,0,2.15,0,2.15-.04,2.61-2.13.2-.88.05-1.23-.92-1.22-3.02.04-6.04.01-9.07.04-.49,0-1.01.1-1.47.26-.88.3-1.4.96-1.3,1.91.11,1,.96,1.07,1.71,1.09,1.55.04,3.11.01,4.66.01Z" fill="#14216d"/>
  <path d="M63.18,125.83c-1.05,2.11-2.03,4.08-3.01,6.05-1.06,2.13-2.22,4.22-3.15,6.41-1.86,4.42-5.44,6.07-9.91,6.2-4.16.12-8.32.03-12.49.03-11.01,0-22.03,0-33.04,0-.46,0-.91,0-1.58,0,.37-.39.59-.66.84-.9,6.03-5.71,12.06-11.43,18.11-17.11.41-.38,1.07-.71,1.61-.71,14-.04,28-.03,42-.03.12,0,.25.02.61.05Z" fill="#13206d"/>
  <path d="M26.44,119.36c2.29-2.17,4.35-4.12,6.41-6.08,1.19-1.13,2.39-2.24,3.56-3.38,3.07-2.99,6.8-4.41,11.05-4.44,8.37-.04,16.74-.01,25.11-.01.2,0,.39.05.75.1-.63,1.24-1.21,2.39-1.78,3.53-1.58,3.14-3.13,6.29-4.75,9.4-.2.38-.76.83-1.15.83-12.95.04-25.91.04-39.19.04Z" fill="#121f6c"/>
  <path d="M145.06,117.17c2.3,0,4.48-.08,6.65.02,2.29.11,4.65.12,6.84.7,3.44.91,4.76,3.35,4.09,6.81-.42,2.17-.9,4.34-1.46,6.48-.92,3.56-3.55,5.83-7.77,6-6.92.28-13.85.19-20.78.26-.04,0-.07-.03-.2-.09.77-3.22,1.55-6.46,2.33-9.71,1.08-4.51,2.19-9.01,3.24-13.52.25-1.08.74-1.57,1.89-1.52,1.59.07,3.19.05,4.79,0,1.06-.03,1.35.47,1.12,1.41-.24,1.01-.49,2.02-.76,3.16ZM141.6,131.71c3.04,0,5.93.1,8.81-.04,1.55-.07,2.6-1.1,3-2.64.23-.89.42-1.79.57-2.69.35-2.14-.47-3.43-2.61-3.57-2.54-.17-5.11-.04-7.68-.04-.71,3.05-1.41,6.05-2.1,8.98Z" fill="#13206d"/>
  <path d="M226.72,137.3c-7.51,0-14.82.06-22.13-.04-2.19-.03-4.23-.9-5.03-3.14-.81-2.27.17-4.26,1.73-5.95,2.09-2.26,4.86-2.9,7.77-2.98,3.7-.1,7.4-.07,11.1-.09.84,0,1.61,0,1.75-1.12.14-1.13-.36-1.8-1.4-2.02-.81-.17-1.67-.22-2.5-.22-4.2-.02-8.41,0-12.61-.01-1.45,0-1.64-.24-1.33-1.62.06-.24.11-.49.17-.73.44-1.92.65-2.09,2.63-2.08,5.04.02,10.09.02,15.13.08,1.04.01,2.1.15,3.11.41,3.52.91,5.22,3.26,4.55,6.8-.82,4.3-1.95,8.55-2.92,12.72ZM220.49,129.73c-3.82,0-7.38,0-10.93,0-.16,0-.32.08-.48.13-.98.31-1.66.95-1.54,2,.12,1.01,1.05,1.08,1.86,1.09,3.1.03,6.21.06,9.31,0,.44,0,1.04-.48,1.25-.89.31-.64.35-1.42.54-2.33Z" fill="#13206d"/>
  <path d="M175.48,137.73c-2.88-.25-5.76-.44-8.63-.77-.8-.09-1.6-.5-2.32-.9-1.92-1.08-2.64-2.75-2.14-4.88.63-2.68,1.29-5.36,1.99-8.03.92-3.51,3.35-5.35,6.85-5.71,5.03-.52,10.08-.59,15.09.2,3.85.6,5.71,3.5,4.84,7.31-.43,1.87-.89,3.74-1.33,5.61-1.12,4.72-3.37,6.64-8.26,6.88-2.01.1-4.03.02-6.05.02,0,.09-.01.18-.02.27ZM176.03,131.69s0,.06,0,.09c.38,0,.76,0,1.13,0,4.9.02,5.73-.64,6.75-5.32.44-2.01-.34-3.36-2.42-3.57-2.33-.24-4.69-.24-7.04-.21-2.39.03-3.56,1.05-4.2,3.37-.17.6-.31,1.21-.46,1.82-.59,2.38.25,3.61,2.71,3.81,1.17.1,2.35.02,3.53.02Z" fill="#13206d"/>
  <path d="M236.18,137.44h-8.28c.81-3.42,1.61-6.78,2.41-10.13.68-2.84,1.35-5.69,2.06-8.52.2-.81.03-1.22-.87-1.15-.08,0-.17,0-.25,0-2.79-.01-3.01.54-2.21-2.91.5-2.14.51-2.14,2.74-2.14,5.59,0,11.18,0,16.77,0,1.44,0,1.65.22,1.32,1.61-.96,4.01-.48,3.4-4.13,3.43-1.13.01-2.27.07-3.4-.02-1.07-.08-1.5.4-1.73,1.36-1.18,5-2.38,9.99-3.57,14.99-.27,1.14-.55,2.27-.84,3.48Z" fill="#121f6c"/>
  <path d="M197.19,137.43h-7.85c.61-2.59,1.2-5.13,1.81-7.66,1.24-5.16,2.51-10.31,3.71-15.48.3-1.28.88-1.84,2.25-1.74,1.59.11,3.19.05,4.79.02.84-.01,1.21.34,1.01,1.14-1.89,7.88-3.79,15.75-5.71,23.71Z" fill="#13206d"/>
</svg>