<?xml version="1.0" encoding="UTF-8"?>
<svg id="Layer_1" xmlns="http://www.w3.org/2000/svg" xmlns:xlink="http://www.w3.org/1999/xlink" viewBox="0 0 24 24">
  <g filter="url(#drop-shadow-2)">
    <path d="M15.16,5.61c-.38.03-.9.13-1.28.25s-1.08.47-1.39.71c-.21.16-1.88,1.72-3.57,3.34l-.26.25h13.05s1.15-2.28,1.15-2.28c.63-1.25,1.15-2.28,1.15-2.29,0-.03-8.46-.01-8.84.02Z" fill="currentColor"/>
    <path d="M3.22,15.34l-3.22,3.07h7.83c8.5.02,8.09.03,8.76-.16.38-.11.9-.37,1.16-.58.42-.34.46-.4,1.73-2.97.65-1.31,1.19-2.4,1.19-2.4,0,0-3.2-.01-7.12-.01h-7.11l-3.22,3.06Z" fill="currentColor"/>
  </g>
</svg>