<?xml version="1.0" encoding="UTF-8"?>
<svg id="Layer_1" xmlns="http://www.w3.org/2000/svg" viewBox="0 0 24 24">
  <path d="M5.96,21.55c-.8-.13-1.62-.18-2.39-.39C.84,20.41-.44,18.25.14,15.49c.47-2.24,1.66-4.1,3.17-5.74,3.42-3.72,7.55-6.27,12.57-7.13,1.4-.24,2.92-.21,4.31.06,2.97.57,4.33,2.92,3.63,5.88-.57,2.41-1.93,4.36-3.61,6.09-3.26,3.34-7.13,5.61-11.73,6.57-.42.09-.85.16-1.28.19-.4.03-.81,0-1.22,0,0,.04-.01.08-.02.12ZM2.35,16.1c.25,1.76,1.05,3.01,2.6,3.53,1.08.36,2.29.57,3.42.51,2.74-.14,5.16-1.29,7.36-2.88,2.56-1.85,4.54-4.16,5.34-7.3.91-3.55-1.07-6.16-4.71-6.26-3.34-.09-6.18,1.25-8.81,3.15-.12.09-.21.22-.41.43.42,0,.7,0,.98,0,2.85,0,5.7-.01,8.56,0,.5,0,1.02.06,1.5.22,1,.32,1.24.99.76,1.9-.51.96-1.38,1.47-2.37,1.79-.39.13-.8.2-1.28.31,1.45.83,1.56,1.74.41,2.86-.27.26-.59.5-.93.66-.62.29-1.25.63-1.91.73-1.38.19-2.77.29-4.17.33-2.08.05-4.17.01-6.33.01ZM2.27,14.71c2.57,0,4.96.08,7.34-.05.68-.04,1.4-.56,1.96-1.03.26-.21.3-.85.22-1.24-.04-.19-.6-.39-.93-.39-2.34-.03-4.68-.03-7.02,0-.27,0-.7.16-.79.36-.31.74-.51,1.52-.78,2.36ZM3.78,10.75c.18.11.22.16.26.16,2.57,0,5.15.07,7.72-.05.67-.03,1.36-.6,1.93-1.05.22-.17.26-.77.14-1.09-.08-.22-.57-.39-.88-.4-2.19-.03-4.38-.02-6.57-.01-.22,0-.52,0-.64.14-.67.74-1.3,1.52-1.96,2.31Z" fill="currentColor"/>
</svg>