<?xml version="1.0" encoding="UTF-8"?>
<svg id="Layer_1" xmlns="http://www.w3.org/2000/svg" viewBox="0 0 250 250">
  <path d="M.04,173.62c.63-23.49,11.06-43.27,25.22-60.96C62.06,66.66,109.28,36.97,167.56,26.86c13.86-2.4,29.26-2.24,42.82,1.21,33.87,8.61,46.63,34.4,35.93,67.88-8.63,27.03-25.72,48.39-46.22,67.22-24.43,22.44-52.18,39.71-83.62,50.48-13,4.46-26.35,9.62-39.81,10.56-17.82,1.24-36.62,1.08-52.85-8.15C7.91,207.02-.64,192.62.04,173.62ZM46.78,104.24l.03-.05c-.6.86-1.2,1.72-1.8,2.58l-.1.09c-1.46,1.97-2.93,3.93-5.41,7.27,20.01,0,38.19.13,56.37-.05,9.82-.1,19.64-.73,29.45-1.12,4.79-2.46,10.05-4.3,14.24-7.54,5.04-3.9,7.34-9.34,3.12-15.58-2.82-.88-5.63-2.49-8.45-2.51-22.6-.21-45.19-.18-67.79-.02-2.33.02-4.65,1.44-6.97,2.21-3.76,4.33-7.52,8.66-11.28,12.98-.47.57-.94,1.15-1.41,1.72ZM33.01,127.43c-2.45,8.15-4.91,16.3-7.36,24.45.65.64,1.31,1.84,1.96,1.84,22.86-.05,45.71-.21,68.57-.36,6.91-2.52,14.34-4.15,20.58-7.81,6.92-4.06,7.71-10.72,4.07-18-1.41-.54-2.81-1.55-4.22-1.55-26.36-.09-52.71-.09-79.07,0-1.51,0-3.02.94-4.53,1.45ZM78.99,72.46c-1.01.76-2.02,1.51-3.85,2.88h5.19c30.94.12,61.88.13,92.81.48,5.46.06,11.15.81,16.3,2.54,10.42,3.5,13.45,11.27,7.24,20.38-3.92,5.76-9.6,10.82-15.52,14.58-6.06,3.85-13.37,5.72-19.66,8.26,12.45,6.87,14.3,15.57,3.43,26.57-5.57,5.63-13.11,9.71-20.4,13.11-6.48,3.02-13.85,4.12-20.83,6.06-2.84.34-5.67.69-8.51,1.03-29.05.02-58.09.04-87.14.06-5.57,3.07-.77,6.35-.19,9.55,2.07,10.11,8.37,17.17,16.68,22.58,12.68,8.26,26.91,10.57,41.61,9.07,45.42-4.63,81.57-26.56,110-61.38,14.66-17.96,23.67-38.22,23.9-62.55.2-20.48-13.22-38.02-33.56-43.75-18.34-5.17-36.33-2.33-54.01,2.87-19.55,5.75-37.56,14.81-53.52,27.66Z" fill="#cc1329"/>
</svg>