<?xml version="1.0" encoding="UTF-8"?>
<svg id="Layer_1" xmlns="http://www.w3.org/2000/svg" viewBox="0 0 250 250">
  <path d="M72.8,164.24c3.77-36.95,22.48-107.12,58.71-107.12,20.29,0,36.93,28.43,44.86,52.21l16.53-9.57c-8.61-31.86-32.05-76.65-61.45-76.65-40.71,0-71.79,75.03-78.88,154.01l20.23-12.89Z"/>
  <path d="M131.1,71.74c-6.96,0-12.61,5.65-12.61,12.62s5.65,12.62,12.61,12.62,12.6-5.65,12.6-12.62-5.64-12.62-12.6-12.62"/>
  <path d="M13.93,206.22h29.27v-10.48s13.91,0,13.91,0v31.14h-13.91v-12.35H13.93v12.35H.02l-.02-31.14h13.93s0,10.48,0,10.48ZM236.03,215.28c-.76,1.45-2.32,1.85-3.67,1.84h-29.62v-11.63h29.59c1.35,0,2.92.39,3.68,1.84,1.25,2.48,1.27,5.56.02,7.94M144.99,214.74l8.11-11.11h3.81l8.09,11.11h-20.01ZM247.88,202.38c-2.37-4.82-7.38-6.64-12.08-6.64h-46.97l-.02,29.94-21.84-29.94-23.87.02-21.84,29.9v-5.94s-43.08,0-43.08,0v-4.88h43.08v-7.06h-43.08v-4.88h43.08s0-7.16,0-7.16h-56.99v31.14h71.9s3.69-5.09,3.69-5.09h30.26l3.71,5.09h62c4.7,0,9.71-1.82,12.08-6.64,2.7-5.5,2.89-12.62-.02-17.85" fill="#1a171b"/>
</svg>