<?xml version="1.0" encoding="UTF-8"?>
<svg id="Layer_1" xmlns="http://www.w3.org/2000/svg" viewBox="0 0 250 250">
  <g id="layer1">
    <g id="g6837">
      <g id="g5045">
        <path id="path5047" d="M53.45,167.13c-1.43,0-9.13,0-9.7,0,1.05-2.86,3.65-10.11,4.76-13.03.96,2.96,4.9,12.93,4.93,13.03M56.36,147.27c-.6-1.59-1.74-2.27-3.83-2.31-.19,0-9.85,0-9.85,0l-14.29,38.89h6.95c.6.09,1.16,0,1.66-.23,1.36-.62,2.02-2.19,2.22-2.72,0,0,1.94-5.42,2.07-5.78.99,0,13.61,0,14.38,0,.3.92,2.93,8.77,2.93,9.03h9.41l-5.97-19.2-5.68-17.67"/>
      </g>
      <g id="g5049">
        <path id="path5051" d="M124.38,175.62c-5.68,0-10.12-4.91-10.12-11.19s4.35-10.91,10.12-10.91,9.87,4.59,9.87,10.91-4.24,11.19-9.87,11.19M124.07,144.7h.03c-11.14.02-19.22,8.38-19.22,19.88s8.26,19.77,19.22,19.77,19.55-8.68,19.55-19.77-8.59-19.88-19.55-19.88"/>
      </g>
      <g id="g5053">
        <path id="path5055" d="M168.85,161.1l-.36-.1s-3.62-1.11-3.63-1.11l-.54-.2c-2.97-1.07-5.07-1.97-5.07-3.7,0-.04,0-.09,0-.13.29-2.87,5.61-2.9,5.67-2.9,2.93,0,5.19.45,8.05,1.6l.06.03.12.03c.66.14,1.23.15,1.7.05l.79-.3c1.13-.63,2.27-3.94,2.7-5.33l.14-.45-.35-.32c-.14-.13-.98-.81-4-1.94-3.08-1.15-7.44-1.34-7.44-1.34h-2.15c-11.23,0-15.52,6.93-15.66,11.59-.1,4.64,2.54,7.03,6.54,9.19,1.67.93,4.71,1.78,6.93,2.4-.01,0,2.29.67,2.29.67,4.19,1.31,5.78,2.77,5.49,5.04-.13.75-1.55,1.99-4.76,1.99-2.44,0-4.65-.38-6.95-1.18-1.11-.44-2.25-1.01-3.46-1.72l-.06-.04-.12-.05c-.67-.25-1.27-.36-1.78-.32l-.88.2c-1.28.48-3.09,3.76-3.8,5.15l-.28.54.49.38c.08.07,2.08,1.65,3.78,2.64,1.99,1.11,4.24,1.9,6.89,2.44,1.07.2,2.76.44,5.42.44,8.7,0,15.03-4.41,15.76-10.98.32-5.96-3.34-9.85-11.5-12.28"/>
      </g>
      <g id="g5057">
        <path id="path5059" d="M187.5,145.02c-.37,0-2.26.04-3.35,1.05-.5.46-.77,1.08-.77,1.78v6.23s10.54,0,11.92,0c0,1.44,0,29.8,0,29.8h9.64v-29.91c1.28,0,7.56,0,7.56,0,.36,0,2.23-.04,3.31-1.05.5-.46.76-1.08.76-1.77v-6.14h-29.23"/>
      </g>
      <g id="g5061">
        <path id="path5063" d="M20.5,175.07h-10.78c0-1.44-.03-26.52-.03-26.52,0-1.1-.33-1.97-.99-2.59-1.06-.99-2.63-.98-3.22-.97H-.5s.02,38.88.02,38.88h24.39l.02-6.14c0-.79-.34-2.61-3.47-2.61"/>
      </g>
      <g id="g5065">
        <path id="path5067" d="M90.18,153.36c2.36-.15,4.35,0,6.22.52,1,.34,1.91.4,2.68.19,0,0,.78-.35.78-.35,1.08-.68,1.86-4.09,2.23-6.06l.09-.47-.39-.28c-.1-.07-.41-.29-3.93-1.24-3.22-.86-6.07-.97-7.49-.96h-.23c-8.07,0-20.2,5.32-20.55,19.98v-.09c.35,14.76,12.57,20.12,20.7,20.12,0,0,.15,0,.15,0,1.42.01,4.29-.1,7.54-.97,3.55-.96,3.86-1.18,3.96-1.25l.4-.28-.09-.47c-.37-1.99-1.16-5.43-2.25-6.11h0,0-.14l-.78-.34c-.77-.21-1.68-.15-2.7.19-1.86.5-3.84.67-6.23.51-6.1-.6-9.78-4.75-10.05-11.39.27-6.58,3.95-10.73,10.08-11.33"/>
      </g>
      <g id="g5069">
        <path id="path5071" d="M245.44,183.89c1.51-.03,4.06-.92,4.06-3.91l-.03-4.91h-17.17s.02-5.6.03-6.53h14.33l-.02-8.93s-12.13.02-13.47.02c0-1.06,0-4.49,0-5.56,1.34,0,12.4-.01,12.4-.01.35,0,2.19,0,3.2-1.04.7-.73.73-2.06.73-2.75v-5.28h-26.96s.01,38.88.01,38.88l22.97-.03"/>
      </g>
      <g id="g6743">
        <g id="g5073">
          <path id="path5075" d="M162.63,111.17s.03-2.21-2.28-3.67c-3.73-2.35-1.8-3.85-1.93-3.82,0,0-3.8-3.15-10.3-.79-6.51,2.35-6.88,2.11-8.18,1.18s-4.03-.43-3.59,1.12c.43,1.55,1.48,8.37,9.85,4.09,8.37-4.28,1.92,7.32,18.1,9.11,16.18,1.8,25.97.99,15.25-2.79-10.72-3.78-13.69-4.17-13.69-4.17l-3.22-.25" fill="#ca0039"/>
        </g>
        <g id="g5077">
          <path id="path5079" d="M157,97.61s.03-.55-1.07-1.26c-1.88-1.21-2.87.04-2.87.04,0,0-.89.78-.24,1.97,0,0,3.55-.44,4.18-.76" fill="#fff"/>
        </g>
        <g id="g5081">
          <path id="path5083" d="M160.47,95.81s-.43.76-.05,1.02c.19.13,2.15-.42,2.3-.5.15-.08-.85-2.78-2.26-.52" fill="#fff"/>
        </g>
        <g id="g5085">
          <path id="path5087" d="M161.46,105.26c.77-.28,1.44,1.22,2.25.91.85-.32.23-1.83,1.15-2.18.86-.32,1.42,1.21,2.24.9.87-.32.32-1.87,1.14-2.17.86-.31,1.36,1.22,2.25.9.89-.33.31-1.86,1.13-2.17.83-.31,1.44,1.2,2.26.91.78-.29.34-1.89,1.14-2.18.84-.31,1.39,1.21,2.29.88.73-.27.33-1.87,1.09-2.16.77-.29,1.48,1.2,2.27.9.75-.28.3-1.88,1.11-2.17.84-.31,1.49,1.19,2.28.9.78-.28.19-1.58,1.22-2.08,0,0,1.42-.48,1.34-1.53-.02-.17-.31-2.42-2.65-2.89-2.24-.45-20.01,4.49-20.23,4.2-1.64-3.25-3.74-2.34-4.06-2.27-.33.08-2.3.94-4.51.09-4.31-1.97-7.76,3.03-10.11,2.37-2.18-.61-3.84-.27-4.75.05-.84.29-2.19,1.38-5.06.4-22.17-7.62-39.51-.96-39.51-.96-9.77,3.28-11.03,0-11.03,0,0,0-3.21-4.4,19.43-9.64,32.54-7.53,33.52-19.98,33.14-20.76-.54-1.14-.74.2-1.82,1.44-.89,1.03-1.94.52-1.94.52-1.02-.49-1.68.69-1.68.69,0,0-1.32,2.05-2.49.89-1.12-1.12-2.61,1.42-3.16,1.52-.66.12-.98-.21-1.88-.61-1.34-.6-2.77,1.86-3.5,2.02-1.13.26-1.92-1.33-2.88-.67-2.89,2.01-3.35,2.3-4.13,1.51-.58-.59-.66-1.23-2.59.63-1.65,1.59-2.43,1.88-3.1.87-.68-1.02-.5-2.4-3.32.33-1.35,1.3-2.04,1.33-2.81.74-.58-.44-.57-2.53-2.61-.64-1.83,1.71-3.17,2.46-3.68.94-.58-1.7-2.74.31-3.24.79-.51.48-1.63,1.73-2.41.43-.78-1.29-2.65.65-3.75,1.89-.86.96-1.56.22-2.45-.39-1.03-.71-4.1,3.61-4.38,3.87-.28.25-.49,0-1.2-.59-1.09-.92-4,4.2-4.47,4.53,0,0-.21.44-1-.32-1.13-1.08-7.15,6.87-9.41,15.89-2.9,11.55,1.72,20.4,1.72,20.4,0,0,1.39.04,1.98-.91l.9-2.04c.73-1.7,1.92-1.16,1.92-1.16l-2.83,8.48c-.44,1.12-.17,2.7.81,4.2.93,1.5,1.58,2.52,2.33,3.22,2.3,2.18,2.07-.4,2.13-.72.27-1.39,1.79-.33,2.98.34,2.17,1.22,1.93-1.48,2.4-2.37.33-.62,1.4-.66,2.55.32.9.76,1.8-1.81,1.8-1.81,1.12-5.46-1.52-6.1-2.94-6.17l-2.89-.14s.19-.83.49-1.61l.14-.54c3.15-7.9-2.12-9.43-3.69-9.29-1.73.15-1.61-.96-1.61-.96,0,0,9.51-1.88,7.74,8.27,0,0-.35,1.76-.56,2.69l2.61.3c2.26.28,2.65,2.96,2.65,2.96,0,0,8.27,2.19,12.96,1.32,0,0,2.11-.5,2.68-1.81,0,0,3.04-7.21,11.91-7.51,0,0,.32.94-1.11,1.41-1.71.58-7.36,1.03-8.54,7.58v.02c-.14,1.07.15,3.36,2.47,4.42,1.97.9,2.67,4.51,3.07,5.48,1.15,2.77,2.87.12,2.87.12,0,0,1.09-2.23,2.02-1,1.58,2.1,2.32,1.04,2.68-.29.39-1.44.96-2.07,2.62-.32.71.76,2.09.17,2.23-1.13.29-2.85,2.21-.59,2.49-.47.33.13,2.34-.33,1.22-3.55,0,0-1.53-3.07-8.37-4.4-1.61-.31-1.35-1.49-1.35-1.49l1.52.22c.45.08,4.43.52,4.86.59,16.71,1.66,29.38-4.04,29.76-4.45h0c12.98,2.5,30.63,1.64,33.94.45,3.32-1.19,3.57-3.14,3.18-3.66-.49-.65-1.28-.91-1.83-1.16-.54-.25-.46-.78-.91-.93-.45-.15-1.26.79-1.89.59-.62-.2-.57-1.38-1.1-1.55-.53-.17-1.46.72-1.95.56-.49-.16-.58-1.39-1.05-1.54-.47-.15-1.46.74-1.95.58-.49-.16-.51-1.36-1.05-1.53-.54-.17-1.48.72-1.95.57-.48-.15-.52-1.36-1.05-1.53-.52-.17-1.47.71-1.96.56-.49-.16-.63-1.39-1.08-1.54-.45-.15-1.36.59-2.08.54-5.07-.48-7.01-3.68-7.35-2.74-.34.93,1.05,3.2,2.81,3.96,1.39.61,16.49,4.81,16.89,5,.39.19,1.33.62,1.01,1.17-.53.7-2.01,0-2.37-.3-.39-.32-.3-.44-.66-.53-.81-.2-1.25,1.29-2.11,1.09-.78-.18-.73-1.76-1.52-1.94-.87-.2-1.28,1.29-2.1,1.09-.69-.16-.78-1.77-1.52-1.94-.86-.2-1.24,1.29-2.12,1.09-.76-.18-.72-1.75-1.51-1.94-.8-.19-1.35,1.26-2.1,1.09-.75-.18-.86-1.78-1.53-1.94-.68-.16-1.22.66-2.15.78,0,0-2.64.72-6.81-3.66-4.19-4.38-5.9-5.23-8.28-3.45-3.89,2.91-6.3.98-7.01.12-.83-1,.05-1.91.05-1.91,0,0,1.24,1.91,2.79,1.96,2.5.07,4.39-3.37,8.69-3.43,5.43-.2,6.85,1.74,8.34,1.89,1.38.14,1.84-.08,2.79-.64h.07" fill="#005d34"/>
        </g>
        <g id="g5089">
          <path id="path5091" d="M157.04,97.59s.03-.55-1.07-1.26c-1.88-1.22-2.87.05-2.87.05,0,0-.89.78-.24,1.97,0,0,3.55-.44,4.18-.76" fill="#fff"/>
        </g>
        <g id="g5093">
          <path id="path5095" d="M160.52,95.79s-.43.76-.04,1.02c.19.13,2.15-.42,2.3-.5.15-.08-.85-2.78-2.26-.52" fill="#fff"/>
        </g>
        <g id="g5097">
          <path id="path5099" d="M121.76,105.92s2.65-1.44,3.21-1.01c.56.42.03,2.89-.37,2.54l-2.84-1.53" fill="#fff"/>
        </g>
        <g id="g5101">
          <path id="path5103" d="M122.76,101.33s2.64-1.44,3.21-1.01c.56.42.03,2.89-.37,2.53l-2.84-1.52" fill="#fff"/>
        </g>
        <g id="g5105">
          <path id="path5107" d="M128.28,102.33s2.64-1.44,3.21-1.02c.56.42.03,2.9-.37,2.54l-2.84-1.52" fill="#fff"/>
        </g>
        <g id="g5109">
          <path id="path5111" d="M123.84,96.64s2.65-1.44,3.21-1.02c.56.42.03,2.89-.37,2.54l-2.84-1.52" fill="#fff"/>
        </g>
        <g id="g5113">
          <path id="path5115" d="M117.11,100.47s2.64-1.43,3.2-1.01c.56.42.03,2.89-.37,2.54l-2.84-1.53" fill="#fff"/>
        </g>
        <g id="g5117">
          <path id="path5119" d="M116.19,105.21s2.65-1.44,3.21-1.02c.56.42.04,2.89-.36,2.54l-2.85-1.52" fill="#fff"/>
        </g>
        <g id="g5121">
          <path id="path5123" d="M110.29,105.21s2.64-1.44,3.2-1.02c.56.42.03,2.89-.37,2.54l-2.84-1.52" fill="#fff"/>
        </g>
        <g id="g5125">
          <path id="path5127" d="M111.21,100.19s2.65-1.44,3.21-1.02c.56.42.03,2.89-.37,2.54l-2.84-1.52" fill="#fff"/>
        </g>
        <g id="g5129">
          <path id="path5131" d="M112.28,95.19s2.65-1.44,3.21-1.01c.56.42.03,2.89-.37,2.53l-2.84-1.52" fill="#fff"/>
        </g>
        <g id="g5133">
          <path id="path5135" d="M105.41,100.45s2.65-1.44,3.21-1.02c.56.42.03,2.89-.37,2.53l-2.84-1.52" fill="#fff"/>
        </g>
        <g id="g5137">
          <path id="path5139" d="M106.35,95.46s2.64-1.44,3.2-1.02c.57.43.04,2.89-.37,2.54l-2.84-1.52" fill="#fff"/>
        </g>
        <g id="g5141">
          <path id="path5143" d="M100.29,96.27s2.64-1.44,3.21-1.02c.56.42.03,2.9-.37,2.54l-2.84-1.52" fill="#fff"/>
        </g>
        <g id="g5145">
          <path id="path5147" d="M99.3,101.18s2.64-1.44,3.21-1.02c.57.43.03,2.9-.37,2.54l-2.84-1.52" fill="#fff"/>
        </g>
        <g id="g5149">
          <path id="path5151" d="M98.52,106.18s2.65-1.44,3.21-1.02c.57.42.04,2.9-.37,2.54l-2.84-1.52" fill="#fff"/>
        </g>
        <g id="g5153">
          <path id="path5155" d="M104.64,105.11s2.64-1.44,3.21-1.02c.56.42.03,2.89-.36,2.54l-2.84-1.52" fill="#fff"/>
        </g>
        <g id="g5157">
          <path id="path5159" d="M92.31,108.18s2.64-1.44,3.21-1.02c.56.42.03,2.89-.37,2.54l-2.84-1.52" fill="#fff"/>
        </g>
        <g id="g5161">
          <path id="path5163" d="M93.27,103.1s2.64-1.44,3.21-1.02c.56.42.03,2.89-.37,2.54l-2.84-1.52" fill="#fff"/>
        </g>
        <g id="g5165">
          <path id="path5167" d="M94.26,97.89s2.64-1.43,3.2-1.01c.56.42.03,2.89-.37,2.54l-2.83-1.53" fill="#fff"/>
        </g>
        <g id="g5169">
          <path id="path5171" d="M88.33,99.29s2.64-1.43,3.2-1.01c.56.42.03,2.89-.36,2.54l-2.84-1.52" fill="#fff"/>
        </g>
        <g id="g5173">
          <path id="path5175" d="M87.3,104.32s2.65-1.44,3.21-1.02c.56.42.03,2.89-.37,2.54l-2.84-1.52" fill="#fff"/>
        </g>
        <g id="g5177">
          <path id="path5179" d="M86.07,109.07s2.64-1.43,3.21-1.02c.57.42.03,2.9-.37,2.54l-2.84-1.52" fill="#fff"/>
        </g>
        <g id="g5181">
          <path id="path5183" d="M81.14,104.89s2.64-1.44,3.2-1.01c.56.42.03,2.89-.37,2.54l-2.83-1.52" fill="#fff"/>
        </g>
        <g id="g5185">
          <path id="path5187" d="M79.78,109.65s2.64-1.44,3.2-1.02c.56.42.04,2.89-.37,2.54l-2.83-1.52" fill="#fff"/>
        </g>
        <g id="g5189">
          <path id="path5191" d="M74.72,107.42s2.65-1.44,3.21-1.02c.56.42.03,2.89-.37,2.54l-2.84-1.52" fill="#fff"/>
        </g>
        <g id="g5193">
          <path id="path5195" d="M82.08,100.38s2.64-1.44,3.21-1.02c.56.43.03,2.9-.37,2.54l-2.84-1.52" fill="#fff"/>
        </g>
        <g id="g5197">
          <path id="path5199" d="M75.99,102.23s2.64-1.44,3.21-1.02c.56.42.03,2.89-.37,2.54l-2.84-1.52" fill="#fff"/>
        </g>
        <g id="g5201">
          <path id="path5203" d="M70.65,104.09s2.65-1.44,3.2-1.01c.56.42.03,2.89-.37,2.54l-2.84-1.52" fill="#fff"/>
        </g>
        <g id="g5205">
          <path id="path5207" d="M79.32,96.63s2.64-1.44,3.2-1.02c.56.42.03,2.89-.37,2.54l-2.83-1.52" fill="#fff"/>
        </g>
        <g id="g5209">
          <path id="path5211" d="M73.91,98.01s2.64-1.44,3.2-1.02c.56.43.03,2.89-.36,2.54l-2.84-1.52" fill="#fff"/>
        </g>
        <g id="g5213">
          <path id="path5215" d="M68.42,100.04s2.65-1.44,3.21-1.01c.56.42.03,2.89-.36,2.54l-2.85-1.52" fill="#fff"/>
        </g>
        <g id="g5217">
          <path id="path5219" d="M79.84,91.74s2.65-1.44,3.21-1.02c.56.42.03,2.9-.36,2.54l-2.84-1.52" fill="#fff"/>
        </g>
        <g id="g5221">
          <path id="path5223" d="M74.56,93.34s2.64-1.44,3.2-1.02c.56.42.03,2.89-.36,2.54l-2.84-1.52" fill="#fff"/>
        </g>
        <g id="g5225">
          <path id="path5227" d="M68.96,95.15s2.64-1.43,3.21-1.02c.56.42.03,2.9-.37,2.54l-2.84-1.52" fill="#fff"/>
        </g>
        <g id="g5229">
          <path id="path5231" d="M82.19,87.79s2.64-1.44,3.21-1.01c.56.42.03,2.9-.37,2.54l-2.84-1.52" fill="#fff"/>
        </g>
        <g id="g5233">
          <path id="path5235" d="M76.43,88.44s2.65-1.44,3.2-1.02c.56.42.03,2.89-.36,2.54l-2.84-1.52" fill="#fff"/>
        </g>
        <g id="g5237">
          <path id="path5239" d="M83.8,82.95s2.64-1.44,3.2-1.02c.56.42.03,2.9-.36,2.53l-2.84-1.52" fill="#fff"/>
        </g>
        <g id="g5241">
          <path id="path5243" d="M88.41,81.38s2.64-1.43,3.21-1.02c.56.43.03,2.9-.37,2.54l-2.84-1.52" fill="#fff"/>
        </g>
        <g id="g5245">
          <path id="path5247" d="M78.89,84.67s2.64-1.44,3.21-1.02c.56.42.03,2.89-.36,2.54l-2.84-1.53" fill="#fff"/>
        </g>
        <g id="g5249">
          <path id="path5251" d="M71.51,90.15s2.64-1.44,3.2-1.01c.56.42.03,2.89-.37,2.54l-2.83-1.52" fill="#fff"/>
        </g>
        <g id="g5253">
          <path id="path5255" d="M118.18,95.62s2.65-1.44,3.21-1.02c.56.42.03,2.89-.37,2.54l-2.84-1.52" fill="#fff"/>
        </g>
      </g>
    </g>
  </g>
</svg>