<?xml version="1.0" encoding="UTF-8"?>
<svg id="Layer_1" xmlns="http://www.w3.org/2000/svg" viewBox="0 0 24 24">
  <path d="M9.88,16.37c.09.06.18.16.28.18.43.11.86.22,1.23.48.2.15.41.3.43.58.01.11,0,.24-.04.35-.06.16-.25.19-.41.07-.18-.14-.24-.11-.3.11-.1.39-.31.45-.61.17-.14-.13-.23-.1-.3.08-.03.08-.06.16-.09.24-.08.15-.22.18-.35.06-.29-.26-.28-.26-.52.07-.07.09-.21.2-.31.18-.1-.01-.21-.15-.26-.25-.11-.23-.17-.48-.29-.7-.08-.14-.21-.26-.35-.35-.38-.23-.48-.61-.38-.99.19-.77.75-1.11,1.47-1.27.15-.03.31-.07.34-.28-.99.07-1.73.51-2.21,1.37-.18.34-.5.44-.84.45-.72.03-1.43-.09-2.13-.27-.05-.01-.11-.07-.13-.12-.12-.33-.3-.46-.66-.47-.11,0-.22-.03-.33-.05.04-.23.07-.46.11-.68.18-.86-.35-1.48-1.19-1.42-.08,0-.16,0-.25,0,.02.16.12.17.23.17.68-.01,1.02.54.95,1.08-.04.32-.16.63-.25.94-.01.05-.03.1-.04.15.19.02.38.05.57.06.33.02.58.25.57.58-.01.26-.03.53-.1.77-.07.24-.18.25-.41.12-.25-.14-.33-.1-.41.19-.01.05-.03.1-.04.15-.05.16-.17.22-.32.15-.13-.05-.25-.12-.37-.18-.17-.08-.24-.04-.26.15-.03.26-.12.32-.32.14-.19-.17-.35-.4-.51-.61-.26-.35-.3-.73-.13-1.14.17-.4.29-.83.43-1.24,0-.03.01-.06.02-.11-.15-.02-.23.05-.29.16-.06.13-.11.26-.18.39-.04.07-.1.13-.17.17-.2.12-.26.09-.35-.13C.03,14.93-.05,13.96.02,12.99c.05-.69.26-1.35.54-1.99.24-.55.53-1.06.89-1.53.09-.12.19-.22.3-.32.12-.11.25-.11.39.02.17-.22.34-.44.5-.66.02-.02.03-.04.04-.06.21-.25.29-.26.55-.06.18-.2.35-.4.54-.59.2-.21.26-.21.51-.06.12.07.22.08.31-.04.07-.08.15-.15.22-.23.26-.26.35-.26.66.02.17-.14.35-.28.53-.41.2-.15.29-.12.43.1.06.1.14.14.25.06.14-.1.29-.2.43-.31.21-.19.32-.18.46.05.1.16.27.19.43.05.12-.1.23-.2.34-.3.19-.16.31-.14.43.06.11.19.23.21.4.07.15-.12.29-.24.44-.36.09-.07.16-.08.24.03.08.11.2.14.33.06.13-.08.27-.16.39-.26.14-.11.28-.11.41,0,.16.13.29.09.41-.05.05-.06.1-.11.16-.15.14-.11.29-.18.47-.06.15.1.28.09.41-.06.22-.24.23-.23.53-.12.06.02.15,0,.21-.04.08-.06.12-.16.2-.21.08-.05.2-.13.27-.1.24.09.36-.05.48-.21.06-.08.12-.17.18-.27.22.15.13.34.07.48-.13.29-.28.6-.48.84-.49.58-1.1,1-1.77,1.36-1.24.66-2.57,1.07-3.93,1.39-.92.22-1.83.44-2.71.81-.38.16-.76.32-1.04.65-.23.26-.18.47.15.59.45.16.88.05,1.31-.06.62-.15,1.24-.35,1.87-.48.38-.08.77-.11,1.15-.13.44-.03.89-.07,1.33-.04.65.04,1.3.11,1.94.23.66.12,1.3.32,1.95.49.23.06.46.06.69-.05.32-.14.65-.18.98-.08.21.06.38-.02.55-.11.2-.1.4-.22.61-.32.29-.13.6-.14.9,0,.24.1.49.1.73.01.39-.14.65-.02.82.28.07.12.16.12.26.1,1.06-.25,2.13-.5,3.19-.73.3-.06.62-.13.87.17.21.26.18.48-.09.66-.08.05-.13.16-.16.25-.06.18-.12.21-.28.11-.01,0-.02-.02-.03-.03-.24-.17-.26-.16-.33.14-.05.21-.14.25-.32.12-.07-.05-.14-.09-.23-.16-.04.13-.07.22-.11.32-.05.17-.12.19-.27.1-.07-.04-.14-.1-.24-.17-.05.1-.09.18-.13.27-.07.22-.16.25-.34.11-.19-.14-.27-.11-.31.13-.03.2-.16.25-.32.13-.22-.17-.27-.15-.32.12-.04.19-.15.23-.31.13-.26-.17-.29-.16-.37.15-.04.16-.16.21-.29.1-.13-.11-.23-.12-.39-.04-.22.11-.44.04-.65-.06-.48-.24-1-.33-1.52-.25-.23.04-.46.15-.68.25-.17.08-.31.2-.48.29-.29.15-.49.12-.72-.11-.05-.05-.08-.12-.13-.19-.14.19-.1.31.01.42.26.25.56.29.88.17.16-.06.32-.16.47-.26.25-.17.5-.19.74-.01.24.17.44.38.67.56.27.23.53.48.83.68.27.19.58.26.89.05.13-.09.2,0,.26.11.15.28.16.29.42.08.12-.09.2-.08.27.05.02.03.03.07.05.11.09.18.16.19.32.06.2-.17.24-.16.36.07.12.23.16.23.36.06.15-.13.21-.12.31.06.16.29.16.29.42.08.09-.07.15-.07.24,0,.1.07.22.12.34.15.04.01.1-.04.15-.07-.03-.05-.04-.11-.08-.14-.08-.05-.17-.08-.25-.11-.99-.29-1.99-.59-2.98-.88-.27-.08-.46-.26-.59-.5-.05-.09-.06-.2-.1-.36.12.05.18.06.24.09.35.23.71.44,1.15.45.1,0,.22-.02.31-.05.13-.05.21-.03.25.11.04.11.1.18.24.13.26-.1.26-.1.4.14.01.02.03.04.07.09.26-.21.46-.13.56.18.1-.03.17-.05.24-.08.12-.06.19-.03.23.09.06.15.15.2.3.11.13-.08.26-.05.3.11.04.17.13.16.24.09.13-.08.24-.12.34.06.04.07.16.1.25.15.21.12.25.32.09.51-.25.3-.61.39-.97.45-1.06.15-2.13.14-3.2.11-.63-.01-1.25-.09-1.88-.15-.29-.03-.57-.11-.85-.11-.21,0-.41.1-.61.17-.68.25-1.38.41-2.1.54-.86.15-1.73.18-2.6.15-.46-.02-.92-.1-1.38-.15-.13-.01-.26-.02-.39-.03-.01.01-.02.03-.03.04ZM17.35,11.48c.27-.05.52-.09.81-.14-.2-.21-.36-.39-.63-.28-.18.07-.22.21-.18.42ZM10.17,11.16c.03-.12.07-.22.07-.33,0-.1-.06-.17-.18-.13-.13.05-.27.11-.43.18.19.1.35.18.54.27ZM2.37,10.21c.02-.07.04-.11.04-.14,0-.1,0-.2-.01-.3-.09,0-.19,0-.28.03-.08.03-.16.08-.26.14.18.1.33.18.5.28ZM5.22,13.34l-.08-.02c-.16.06-.32.12-.52.2.21.11.37.19.56.3.01-.18.03-.33.04-.48ZM4.49,9.33l-.05-.06c-.17.06-.35.12-.57.2.22.12.38.2.57.3.02-.16.04-.3.06-.44ZM7.87,11.37c.03-.08.07-.13.07-.18,0-.09,0-.18-.04-.26-.01-.02-.14,0-.21.02-.1.03-.2.08-.34.14.2.1.35.18.53.27ZM1.24,11.8c.22.12.37.2.57.3.02-.14.04-.23.04-.33,0-.14-.05-.19-.19-.13-.12.05-.24.09-.42.15ZM4.39,12.15c.03-.09.06-.16.07-.23.05-.18-.04-.27-.22-.22-.12.04-.24.1-.37.16.18.1.34.19.51.28ZM1.36,10.88c.17.1.33.18.51.29.03-.1.07-.17.09-.25.04-.16-.08-.26-.23-.2-.12.05-.24.1-.37.16ZM5.07,8.26c.2.11.36.19.52.28.03-.08.07-.13.07-.18,0-.09,0-.18-.04-.26-.01-.02-.14,0-.21.02-.1.03-.19.08-.34.14ZM4.77,8.86v-.43c-.13.01-.26.02-.38.05-.05.01-.1.06-.18.1.18.09.34.17.56.28ZM8.32,11.89c.21.1.36.18.54.26.03-.11.07-.21.07-.3,0-.12-.05-.21-.2-.15-.12.05-.24.11-.41.18ZM2.78,9.59c.19.11.35.19.55.31.02-.18.03-.32.05-.53-.24.09-.41.15-.61.23ZM9.79,13.06c.03-.07.05-.12.06-.17,0-.02,0-.05,0-.08,0-.2-.03-.23-.23-.16-.12.04-.24.09-.38.14.19.1.37.19.54.28ZM9.98,12.13c.02-.17.04-.32.06-.52-.24.09-.41.15-.62.22.19.1.35.19.56.3ZM8.48,10.94c.22.11.38.18.58.28.02-.14.04-.25.04-.35,0-.1-.04-.15-.15-.1-.13.06-.27.1-.47.17ZM11.3,11.25c.03-.09.06-.15.07-.2.05-.24-.03-.3-.26-.22-.1.04-.19.08-.33.14.19.1.35.19.52.28ZM12.02,13.23v-.46c-.11.02-.22.03-.32.05-.07.02-.14.06-.24.1.19.1.34.19.56.31ZM3.01,12.98c-.2.08-.36.15-.56.23.21.11.37.19.56.28v-.51ZM5.82,13.36c.2.1.35.18.52.27.03-.1.07-.17.09-.25.03-.17-.06-.23-.22-.18-.11.04-.21.08-.38.15ZM4.02,13.4c-.23.09-.4.15-.61.23.2.1.36.18.57.29.01-.17.03-.32.04-.52ZM11.15,11.65c-.23.09-.39.16-.6.24.22.11.38.18.58.28,0-.18.02-.32.03-.52ZM3.85,8.74s-.03-.04-.05-.06c-.17.06-.34.13-.55.2.2.1.35.19.55.3.02-.17.03-.3.05-.44ZM1.7,12.59c.18.09.33.18.56.29v-.44c-.13.01-.26.02-.38.05-.05.01-.1.05-.17.1ZM5.39,12.89c.03-.08.05-.15.07-.22.04-.18-.05-.27-.22-.21-.12.04-.24.1-.37.16.19.09.35.18.53.26ZM4.23,13.02c.02-.14.04-.23.04-.32,0-.12-.02-.19-.17-.13-.12.05-.25.09-.43.16.19.1.35.19.56.3ZM8.18,12.77c.2.11.35.19.53.28.03-.1.06-.17.07-.25.02-.18-.04-.24-.22-.19-.12.03-.23.09-.38.16ZM5.6,11.94c.03-.09.05-.15.06-.21,0-.07,0-.16-.03-.2-.04-.03-.13-.03-.19,0-.12.04-.23.09-.36.15.19.1.35.18.54.27ZM12.16,12.33c.08-.16.14-.31.01-.48-.16.06-.33.13-.53.2.19.1.35.19.52.28ZM2.86,11.71v-.5c-.2.07-.37.14-.57.22.21.1.37.18.57.29ZM3.88,11.44c.02-.16.04-.31.06-.51-.23.08-.4.15-.62.23.2.1.36.18.56.28ZM4.01,10.54v-.44c-.13.01-.26.02-.38.05-.05.01-.1.05-.17.09.17.09.32.18.55.3ZM2.95,10.81c.02-.08.05-.15.07-.23.04-.16-.04-.24-.2-.2-.12.04-.23.09-.39.15.2.11.35.19.52.28ZM6.6,12.17c-.22.08-.39.14-.6.22.2.11.36.19.55.3.01-.18.02-.32.04-.52ZM10.98,12.64s-.03-.04-.05-.06c-.17.06-.34.13-.54.2.19.1.35.19.55.3.02-.17.03-.31.05-.44ZM7.02,12.98c.18.1.34.18.51.27.02-.08.05-.15.05-.21,0-.07.02-.17-.02-.21-.04-.04-.14-.03-.2,0-.1.03-.2.09-.34.16ZM7.14,12.01c.21.11.37.2.57.3.01-.17.02-.31.04-.51-.22.07-.39.13-.61.2ZM6.73,11.67c.02-.1.05-.16.06-.23.02-.22-.03-.26-.24-.19-.11.04-.21.09-.34.15.19.1.35.18.53.27ZM11.86,11.17c.19.09.35.18.51.26.02-.06.05-.11.05-.15,0-.09,0-.2-.04-.28-.01-.03-.15,0-.23.02-.09.03-.18.09-.3.15ZM3.3,12.01c-.23.08-.41.14-.61.21.2.11.36.19.56.3.02-.16.03-.31.05-.51ZM12.68,12.24c.21.1.37.19.55.28.02-.11.03-.2.04-.29,0-.14-.03-.22-.19-.14-.11.06-.24.09-.4.15ZM18.78,11.13s.04.04.06.06c.09-.02.19-.03.28-.06.09-.03.14-.09.05-.17-.05-.04-.15-.1-.17-.08-.08.07-.15.17-.22.25Z" fill="currentColor"/>
</svg>