<?xml version="1.0" encoding="UTF-8"?>
<svg id="Layer_1" xmlns="http://www.w3.org/2000/svg" viewBox="0 0 250 250">
  <path d="M129.83,106.51c16.12,6.22,32.1,12.38,48.08,18.54,0,.08,0,.17,0,.25-.39.04-.78.11-1.18.11-5.84,0-11.67.02-17.51-.02-.81,0-1.66-.22-2.43-.51-12.96-4.82-25.91-9.67-38.84-14.54-.94-.35-1.72-.38-2.67-.02-12.93,4.89-25.88,9.74-38.83,14.57-.81.3-1.72.51-2.59.51-24.24,0-48.48-.03-72.72-.06-.34,0-.69-.03-1.14-.05v-37.69h7.94v29.73c.76,0,1.3,0,1.83,0,21.42,0,42.84,0,64.26-.02.86,0,1.77-.19,2.58-.49,8.36-3.17,16.71-6.38,25.05-9.58.45-.17.9-.37,1.71-.72-16.42-6.38-32.52-12.63-48.62-18.88.02-.08.04-.16.07-.24,6.12,0,12.24-.01,18.36.02.52,0,1.05.24,1.56.42,13.55,4.92,27.1,9.86,40.66,14.74.75.27,1.75.28,2.5.01,13.67-4.92,27.32-9.88,40.95-14.88,2.42-.89,4.67-.81,7.05.15,23.58,9.58,47.18,19.12,70.77,28.67.54.22,1.08.42,1.78.69v-29.46h8.09v37.6c-1.29,0-2.51-.08-3.71.01-4.34.34-8.31-.76-12.33-2.38-23.03-9.29-46.13-18.42-69.22-27.57-.67-.27-1.59-.4-2.23-.16-9.52,3.59-19.02,7.26-28.52,10.91-.18.07-.35.17-.7.34Z"/>
  <path d="M198,162.88c-2.16-.16-4.34-.16-6.47-.5-3.1-.5-4.57-2.36-4.66-5.53-.02-.59-.02-1.19,0-1.78.14-2.88,1.36-4.62,4.17-5.15,4.68-.88,9.42-.95,14.1.02,2.58.53,3.79,2.18,3.99,4.83.03.34.04.69.05,1.04.08,4.49-1.78,6.55-6.29,6.85-1.62.11-3.26.02-4.88.02,0,.07,0,.14,0,.21ZM198.06,161.76c0-.07,0-.13.01-.2,1.53,0,3.07.09,4.59-.02,3.8-.26,5.3-1.93,5.22-5.71-.01-.49-.07-.99-.15-1.47-.36-2.13-1.29-3.34-3.41-3.49-3.83-.27-7.7-.45-11.52-.2-3.49.23-4.52,1.76-4.52,5.32,0,.35,0,.69.03,1.04.14,2.44,1.15,3.79,3.57,4.21,2.03.35,4.12.36,6.18.51Z"/>
  <path d="M232.28,150.54v12.09c-.51.04-.91.07-1.4.1v-13.57c1.08.4,2.12.54,2.85,1.09,4.51,3.38,8.95,6.85,13.41,10.29.42.32.85.62,1.53,1.1,0-2.46,0-4.66,0-6.86,0-1.43.03-2.87,0-4.3-.03-1.01.42-1.19,1.34-.89v13.02c-1.17.33-2.07.05-3.01-.69-4.78-3.76-9.61-7.44-14.7-11.38Z"/>
  <path d="M90.14,156.12c-3.49-2.21-6.81-4.3-10.12-6.39.06-.15.12-.31.19-.46.82.27,1.73.4,2.45.83,2.55,1.51,5.07,3.07,7.54,4.72.85.56,1.43.52,2.25-.01,2.53-1.63,5.1-3.22,7.69-4.75.68-.4,1.51-.53,2.28-.79.08.15.15.31.23.46-3.3,2.07-6.6,4.15-10.16,6.39,3.45,2.18,6.74,4.27,10.04,6.35-.05.15-.1.29-.15.44-.82-.25-1.72-.36-2.44-.78-2.52-1.46-5.01-2.99-7.45-4.57-.86-.56-1.49-.61-2.38-.03-2.48,1.62-5.01,3.16-7.58,4.65-.69.4-1.56.49-2.35.73-.05-.14-.11-.29-.16-.43,3.32-2.08,6.64-4.16,10.13-6.34Z"/>
  <path d="M57.87,149.47c.92-.26,1.32-.01,1.3.98-.06,2.42.04,4.85-.05,7.27-.1,2.99-1.26,4.55-4.23,4.71-4.22.24-8.48.15-12.71-.11-2.51-.16-3.65-1.66-3.75-4.16-.1-2.62-.04-5.24-.07-7.86-.01-.96.47-1.04,1.36-.74,0,2.36,0,4.72,0,7.08.02,3.79,1.06,4.89,4.81,4.94,2.87.04,5.74.05,8.6-.06,3.63-.14,4.61-1.22,4.62-4.84,0-2.27.01-4.55.02-6.82,0-.09.05-.19.11-.38Z"/>
  <path d="M149.98,149.47h1.25v12.01c.63.03,1.15.07,1.67.07,4.45,0,8.89-.01,13.34.03.4,0,.79.41,1.18.63-.39.18-.78.51-1.17.51-5.38.03-10.76.02-16.26.02v-13.27Z"/>
  <path d="M1.06,162.74v-13.15c.98-.45,1.33-.12,1.32.9-.03,3.12,0,6.23,0,9.35,0,.53,0,1.06,0,1.72h16.01c.09.13.18.26.27.4-.28.26-.56.75-.84.75-5.53.04-11.06.03-16.74.03Z"/>
  <path d="M125.89,162.9c-.33-.31-.96-.61-.96-.93-.07-4.13-.04-8.25-.04-12.45h1.33v12.99c-.11.13-.21.26-.32.38Z"/>
</svg>