<?xml version="1.0" encoding="UTF-8"?>
<svg id="Layer_1" xmlns="http://www.w3.org/2000/svg" viewBox="0 0 24 24">
  <path d="M0,15.87v-7.73h.77v6.04c.2.02.37.05.53.05,1.76,0,3.53.04,5.29-.02.48-.02.97-.26,1.43-.56.66-.44,1.3-1.03,2.06-1.66-1.6-1.32-3.09-2.56-4.58-3.79.82-.08,1.62-.34,2.41.37,1.02.92,2.08,1.67,3.14,2.44.2.14.46.13.65-.01,1.21-.89,2.42-1.83,3.62-2.8.34-.28.64-.27.98.03,2.13,1.87,4.27,3.69,6.4,5.53.15.13.31.25.52.42v-6.01h.77v7.84c-.47-.16-.95-.16-1.35-.49-2.24-1.83-4.45-3.76-6.69-5.61-.22-.18-.51-.17-.73,0-.83.61-1.65,1.32-2.57,2.08,1.59,1.3,3.07,2.53,4.56,3.75,0,.09,0,.17,0,.26-.7-.11-1.43.01-2.09-.39-1.16-.71-2.26-1.77-3.4-2.62-.21-.16-.48-.15-.69,0-.98.72-1.93,1.58-2.92,2.27-.5.35-1.04.6-1.57.61-2,.07-3.99.02-5.99.01-.17,0-.34,0-.54,0Z" fill="currentColor"/>
</svg>