<?xml version="1.0" encoding="UTF-8"?>
<svg id="Layer_1" xmlns="http://www.w3.org/2000/svg" viewBox="0 0 250 250">
  <path d="M249.32,144.46c-2.85-.25-5.68-1.42-7.18-.48-16.57,10.42-35.27,12.6-54.04,15.46-12.54,1.91-24.68,6.37-37.03,9.56-2.23.58-4.63.5-6.96.73-.1-.47-.2-.93-.3-1.4,5.48-1.93,10.97-3.85,16.45-5.78-.08-.32-.17-.64-.25-.97-8.93,1.91-17.86,3.81-26.79,5.72-.13-.58-.27-1.15-.4-1.73,22.07-4.73,44.35-8.77,65.52-18.85-5.99-1.83-11.14-3.41-16.28-4.98.06-.49.11-.97.17-1.46h11.69c.04-.55.09-1.1.13-1.65-4.45-.52-9.09-.43-13.31-1.71-4.25-1.29-8.09-3.94-11.6-7.15,5.45.3,10.9.61,16.35.91-9.01-3.71-20.19-2.3-25.77-12.96,5.91,1.3,11.82,2.61,17.73,3.91-8.32-3.4-17.47-5.38-22.13-15.48,8.59,3.09,16.77,6.03,24.96,8.97-9.65-6.99-23.29-8.45-27.91-22.19,7.95,4.13,15.78,8.2,23.61,12.27-9.56-7.23-20.57-12.61-25.94-24.95,3.51,1.96,6.63,3.95,9.96,5.53,17.88,8.49,35.75,16.99,53.75,25.23,5.56,2.55,9.53,6,11.61,11.95.66,1.88,3.19,3.42,5.21,4.42,1.67.83,3.84.8,5.8.89,11.4.54,15.39,5.83,12.96,16.17Z" fill="#be1f30"/>
  <path d="M46.92,134.34h-8.95v-25.42c-.45-.13-.9-.27-1.34-.4-2.46,5.57-4.91,11.14-7.37,16.7-1.13,2.56-1.69,5.14-5.76,5.18-4.08.04-4.63-2.54-5.76-5.09-2.44-5.53-4.87-11.06-8.34-16.4v25.29H0v-41.9c8.9-2.88,11.24-1.87,14.94,6.27,2.59,5.7,5.25,11.36,8.55,18.47,3.13-6.81,5.73-12.4,8.29-18.02,4.01-8.81,4.55-9.08,15.15-7.06v42.38Z" fill="#be1f30"/>
  <path d="M53.19,128.08c1.42-2.79,2.69-5.3,3.75-7.38,5.03,1.89,9.56,4.17,14.36,5.14,2.21.45,4.94-1.66,7.44-2.61-1.76-1.9-3.2-4.42-5.36-5.56-3.29-1.73-7.16-2.33-10.65-3.74-4.67-1.89-6.87-5.51-6.75-10.62.12-5.08,2.57-8.67,7.05-10.6,9.32-4.02,18.19-2.23,27.14,2.58-1.33,2.89-2.5,5.43-3.69,8.02-3.95-1.3-7.27-2.99-10.73-3.32-2.61-.25-7.25.62-7.73,2.08-1.31,3.96,2.98,4.48,5.68,5.55,2.5.99,5.2,1.49,7.71,2.46,6.36,2.46,9.18,6.3,9.04,12.01-.14,5.73-3.61,10.34-10.01,11.85-9.74,2.29-18.84.65-27.25-5.84Z" fill="#be1f30"/>
  <path d="M92.72,91.79c1.39-.29,1.91-.47,2.44-.5q8.7-.47,11.62,7.85c2.62,7.43,5.28,14.86,9.08,22.46,2.13-6.01,4.27-12.02,6.4-18.03.54-1.53,1.04-3.07,1.58-4.59q3.05-8.69,13.48-7.12c-1.94,5.1-3.79,10.08-5.72,15.04-3.2,8.22-6.29,16.49-9.8,24.57-.62,1.44-3.09,2.94-4.67,2.91-2.91-.06-7.68-.42-8.39-2.08-5.71-13.17-10.65-26.67-15.99-40.5Z" fill="#be1f30"/>
  <path d="M72.07,150.65c2.82,3.52,5.64,7.04,9.44,11.78.22-4.34.37-7.25.51-10.16.19,0,.39.02.58.03v14.19c-3.7-4.53-6.46-7.92-9.99-12.26-.31,4.07-.55,7.19-.79,10.31-.27-.02-.54-.05-.81-.07v-13.33c.35-.16.71-.33,1.06-.49Z" fill="#be1f30"/>
  <path d="M46.77,154.19c-.26,4.36-.43,7.15-.6,9.95-.23,0-.45-.01-.68-.02v-12.85c.36-.18.72-.35,1.08-.53,2.75,3.54,5.5,7.08,9.16,11.8.24-4.48.4-7.39.56-10.31.2.01.41.02.61.03v14.09c-3.65-4.38-6.4-7.67-10.14-12.15Z" fill="#be1f30"/>
  <path d="M109.27,162.9c1.8.2,2.32.36,2.81.29,2.23-.3,4.44-.67,6.67-1.02-1.47-1.29-3.06-2.46-4.36-3.9-1.37-1.52-3.86-3.95-3.43-4.86,1.85-3.96,5.22-3.03,9.21-1.46-3.13.37-5.51.65-7.88.93-.11.56-.22,1.12-.33,1.67,1.36.9,2.62,2.02,4.1,2.66,2.56,1.1,5.91,2.33,4.08,5.44-.97,1.66-4.77,1.8-7.36,2.3-.7.13-1.62-.91-3.49-2.06Z" fill="#be1f30"/>
  <path d="M29.52,151.13c-1.35.85-3.56,2.24-5.78,3.63,2.11,1.32,4.23,2.63,6.12,3.81-1.61.89-7.5-1.83-5.69,5.2,2.44.17,4.99.35,7.54.52,0,.25,0,.5-.01.75h-8.86v-13.92h6.69Z" fill="#be1f30"/>
  <path d="M1.17,150.91h9.16c-8.01,2.69-2,9.52-5.23,14.02-.54-4.52-.96-8.61-1.61-12.66-.06-.37-1.58-.5-2.43-.75.04-.2.07-.41.11-.61Z" fill="#be1f30"/>
  <path d="M96.64,164.67v-13.25c.29,0,.58-.01.88-.02v13.25c-.29,0-.58.01-.88.02Z" fill="#be1f30"/>
</svg>