<?xml version="1.0" encoding="UTF-8"?>
<svg id="Layer_1" xmlns="http://www.w3.org/2000/svg" viewBox="0 0 24 24">
  <path d="M3.72,11.22c1.28.46,2.55.92,3.83,1.38-1.68-1.29-3.98-1.7-4.82-4.24,1.4.71,2.69,1.36,3.99,2.01-1.54-1.39-3.06-2.76-4.58-4.13.08-.07.15-.13.23-.2,4.67,2.19,9.34,4.37,13.99,6.6.46.22.97.73,1.1,1.2.39,1.39,1.23,1.78,2.61,1.83,2.42.08,3.03.89,2.88,3.3-3.58.95-7.13,1.98-10.72,2.84-3.67.88-7.38,1.6-11.16,2.19.94-.36,1.88-.71,2.97-1.13-.47-.07-.79-.12-1.17-.18,3.11-.99,6.15-1.95,9.61-3.05-1.52-.51-2.57-.86-3.63-1.21.02-.11.05-.22.07-.33h3.54c-2.31-.76-4.7.03-6.24-2.17,1.45.12,2.76.23,4.08.34l.04-.2c-.68-.14-1.36-.29-2.05-.42-.76-.15-1.58-.14-2.25-.46-.67-.32-1.18-.96-2.06-1.71,1.34.26,2.3.44,3.08.59-1.15-.71-2.4-1.48-3.65-2.26.11-.2.22-.39.32-.59Z" fill="currentColor"/>
  <path d="M8.49,5c1.07,1.28,1.96,2.34,2.84,3.4-.95-1.93-2.52-3.62-2.01-6.13.51.75.99,1.45,1.51,2.23C10.56,2.92,10.3,1.46,10.05,0c2.93,4.33,5.86,8.61,8.71,12.94.35.53.29,1.33.45,2.14-.48-.08-.65-.07-.67-.12-.98-2.96-3.73-3.6-6.15-4.58-2.31-.94-3.96-2.29-3.9-5.38Z" fill="currentColor"/>
</svg>