<?xml version="1.0" encoding="UTF-8"?>
<svg id="Layer_1" xmlns="http://www.w3.org/2000/svg" viewBox="0 0 250 250">
  <path d="M97.91,115.99c.61-.07,1.19-.15,1.77-.19,2.39-.15,4.79-.29,7.18-.42,1.99-.11,3.99-.17,5.98-.28,1.84-.11,3.68-.28,5.51-.39,1.93-.11,3.86-.16,5.79-.28,1.93-.11,3.85-.29,5.78-.4,1.97-.11,3.95-.16,5.92-.28,1.82-.11,3.64-.42,5.45-.35,1.32.05,1.57-.77,1.97-1.6,0-.02,0-.04-.03-.17-26.6-1.68-53.24-3.36-80.01-5.05.56-.98,1.06-1.88,1.57-2.76.61-1.07,1.26-2.12,1.83-3.2.28-.53.66-.71,1.21-.74,1.97-.11,3.94-.21,5.91-.35,2.84-.2,5.67-.43,8.51-.62,1.78-.12,3.56-.15,5.34-.27,2.77-.19,5.54-.43,8.31-.62,1.74-.12,3.48-.15,5.22-.27,2.86-.19,5.71-.43,8.57-.62,1.74-.12,3.48-.15,5.21-.27,2.81-.19,5.62-.43,8.44-.62,1.78-.12,3.56-.17,5.34-.27,2.33-.13,4.66-.27,6.99-.44,2.77-.2,5.53-.44,8.3-.62,1.76-.12,3.52-.17,5.28-.27,1.21-.06,2.41-.14,3.62-.23.21-.02.49-.13.6-.29.3-.42.53-.89.87-1.48-8.46-.55-16.81-1.09-25.22-1.63.05-.14.08-.26.13-.36,2.54-4.41,5.07-8.81,7.62-13.21.1-.18.38-.34.59-.37,1.01-.1,2.03-.14,3.05-.22,1.65-.12,3.29-.27,4.94-.38,1.72-.11,3.44-.16,5.15-.27,1.82-.12,3.63-.31,5.45-.43,1.8-.12,3.6-.17,5.4-.27.83-.04,1.65-.09,2.48-.18.19-.02.42-.17.53-.33.28-.41.51-.86.84-1.42-8.46-.59-16.77-1.18-25.21-1.77.56-.98,1.04-1.84,1.53-2.69,1.37-2.39,2.76-4.76,4.12-7.16.19-.33.39-.43.75-.43,15.77,0,31.54,0,47.31.03,1.63,0,3.25.26,4.88.4,2.18.2,4.3.66,6.36,1.38,3.46,1.21,6.4,3.09,8.15,6.46.98,1.89,1.33,3.92,1.31,6.02-.03,2.92-.6,5.73-1.75,8.41-1.62,3.77-4.06,6.95-7.04,9.74-3.45,3.23-7.47,5.54-11.81,7.31-1.15.47-2.35.79-3.53,1.18-.21.07-.41.18-.6.27,1.15.42,2.29.76,3.36,1.26,3.52,1.65,6.07,4.19,7.12,8.05.5,1.84.51,3.68.25,5.55-.58,4.13-2.24,7.8-4.73,11.1-1.74,2.3-3.81,4.29-6.08,6.06-3.6,2.79-7.57,4.95-11.82,6.55-2.59.98-5.28,1.74-7.96,2.44-1.77.46-3.6.73-5.42.95-1.47.18-2.96.23-4.45.23-18.03.01-36.06,0-54.09,0h-.61c-.9-3.54-1.8-7.06-2.72-10.66,1.23-.08,2.45-.15,3.68-.24,2.69-.21,5.37-.45,8.06-.64,1.61-.12,3.22-.15,4.83-.27,2.6-.19,5.2-.43,7.79-.62,1.29-.1,2.58-.18,3.87-.2.49-.01.79-.15.99-.6.16-.38.39-.73.64-1.16-1.45-.1-2.8-.21-4.14-.29-1.8-.11-3.6-.19-5.4-.3-1.82-.11-3.65-.24-5.47-.36-1.06-.07-2.11-.16-3.17-.22-2.35-.14-4.7-.29-7.05-.42-1.67-.09-3.35-.17-5.03-.23-.98-.04-1.07-.03-1.33-1.02-1.02-3.8-2.02-7.62-3.02-11.43-.01-.04,0-.08,0-.27ZM146.38,126.35c.39,0,.62,0,.85,0,2.88,0,5.75,0,8.63,0,.61,0,1.24-.02,1.84-.12,2.56-.41,5.01-1.15,7.21-2.54,2.95-1.87,4.99-4.36,5.39-7.96.38-3.45-2.4-6.11-5.38-6.03-2.79.08-5.58.02-8.37.01-.4,0-.65.11-.86.49-2.24,3.91-4.51,7.81-6.76,11.72-.82,1.43-1.64,2.86-2.54,4.43ZM165.19,93.8c.33,0,.54,0,.74,0,2,0,4.01.01,6.01,0,1.87-.02,3.71-.15,5.54-.64,2.56-.68,4.84-1.82,6.6-3.8,1.88-2.12,3.03-4.54,2.42-7.5-.4-1.93-1.98-4.05-4.72-3.96-2.21.07-4.43.02-6.65.01-.43,0-.81-.12-1.11.42-2.79,4.9-5.61,9.77-8.42,14.65-.13.23-.23.47-.41.83Z" fill="#ce0b2c"/>
  <path d="M125.24,77.8c1.14,4.33,2.28,8.66,3.47,13.18-18.19-1.19-36.25-2.38-54.44-3.57.87-1.52,1.65-2.9,2.44-4.27.34-.59.73-1.15,1.01-1.76.26-.55.67-.7,1.22-.73,3.01-.15,6.01-.29,9.02-.48,2.83-.18,5.66-.43,8.5-.61,1.72-.11,3.44-.14,5.15-.25,3-.2,6.01-.45,9.01-.65,1.84-.12,3.69-.16,5.53-.27,1.65-.1,3.29-.27,4.94-.38,1.35-.09,2.71-.14,4.15-.22Z" fill="#ce0c2d"/>
  <path d="M97.46,116c-1.48,2.56-2.88,4.99-4.28,7.41-.79,1.36-1.59,2.7-2.36,4.07-.18.32-.36.41-.74.39-2.1-.12-4.2-.17-6.3-.28-2.05-.11-4.1-.29-6.16-.41-1.95-.11-3.9-.15-5.85-.26-1.99-.11-3.97-.29-5.96-.41-2.2-.13-4.41-.21-6.62-.34-2.3-.13-4.6-.28-6.99-.43.67-1.17,1.31-2.3,1.96-3.43.52-.9,1.05-1.79,1.54-2.7.18-.33.41-.49.78-.52,1.97-.14,3.93-.28,5.9-.44,2.41-.2,4.81-.43,7.22-.62,1.48-.12,2.97-.15,4.45-.27,2.43-.19,4.85-.43,7.28-.62,1.5-.12,3.01-.16,4.52-.27,2.39-.19,4.77-.42,7.15-.61,1.43-.11,2.87-.18,4.44-.27Z" fill="#cf0c2d"/>
  <path d="M96.77,167.77c1.11-.6,2.11-1.27,3.21-1.7.9-.36,1.91-.55,2.88-.63,2.93-.24,5.5.69,7.69,2.65,1.65,1.47,2.75,3.3,3.34,5.4,1.21,4.31.21,8.19-2.59,11.61-1.55,1.89-3.61,2.92-6.04,3.25-1.8.24-3.55.13-5.25-.48-1.24-.44-2.28-1.2-3.17-2.16-.11-.12-.18-.28-.27-.42-.09.03-.17.07-.26.1,0,.55-.03,1.11,0,1.66.05.59-.15.79-.75.77-1.11-.04-2.22-.04-3.32,0-.55.02-.68-.19-.68-.71.01-9.2.01-18.41,0-27.61,0-.46.15-.59.58-.59,1.32.02,2.64.03,3.96,0,.49-.01.66.13.65.65-.03,2.58-.01,5.16,0,7.73,0,.18.02.36.03.49ZM102.89,170.09c-1.3.02-2.76.47-3.68,1.18-2.19,1.71-3.06,3.91-2.69,6.71.39,2.93,2.91,5.57,5.97,5.7,2.13.09,3.9-.55,5.2-2.2,1.63-2.06,1.93-4.42,1.17-6.91-.85-2.81-3.31-4.41-5.99-4.48Z" fill="#cf0d2e"/>
  <path d="M72.03,179.29c1.35-4.48,2.65-8.81,3.97-13.18h5.49c-.27.77-.51,1.5-.77,2.22-1.08,2.98-2.17,5.96-3.27,8.93-1.16,3.15-2.33,6.3-3.5,9.45-.41,1.09-.42,1.08-1.58,1.08-.62,0-1.23,0-1.94,0-1.35-4.64-2.7-9.29-4.04-13.93-.06.01-.13.03-.19.04-.46,1.58-.93,3.15-1.39,4.73-.79,2.7-1.57,5.4-2.36,8.1-.04.14-.09.28-.11.43-.07.44-.27.67-.77.64-.66-.04-1.32-.03-1.98,0-.41.01-.63-.1-.79-.54-2.06-5.79-4.15-11.58-6.23-17.37-.44-1.23-.9-2.45-1.38-3.74.19-.04.33-.09.47-.09,1.51,0,3.03,0,4.54,0,.33,0,.5.06.61.45,1.17,4.02,2.37,8.03,3.57,12.05.06.22.18.42.33.79.28-.99.53-1.83.76-2.67.49-1.82.96-3.64,1.44-5.46.42-1.57.83-3.15,1.28-4.71.05-.18.33-.41.5-.42,1.11-.04,2.22-.04,3.32,0,.18,0,.44.25.49.44.63,2.31,1.23,4.63,1.84,6.95.46,1.76.92,3.52,1.39,5.28.04.15.16.29.3.53Z" fill="#cf0c2e"/>
  <path d="M133.93,185.16c-.6.49-1.03.88-1.51,1.22-2.07,1.47-4.39,2.3-6.92,2.05-4.14-.41-7.15-2.56-8.71-6.44-1.81-4.52-1.45-8.86,1.62-12.78,1.54-1.97,3.61-3.13,6.08-3.61,3.02-.59,5.71.05,8.09,1.98.43.35.81.77,1.33,1.26v-2.73h4.7c0,.21.03.43.03.65,0,6.76,0,13.51.02,20.27,0,.62-.17.8-.78.77-1.08-.05-2.17-.05-3.26,0-.59.03-.74-.19-.7-.73.04-.57,0-1.14,0-1.91ZM133.86,176.87c-.18-.87-.27-1.77-.57-2.6-1.45-4.02-6.26-5.38-9.57-3-2.21,1.59-3.44,4.85-2.46,7.92,1.17,3.65,4.96,5.42,8.42,4.1,2.52-.96,4.07-3.44,4.17-6.43Z" fill="#cf0d2e"/>
  <path d="M86.29,135.43c-1.68,2.89-3.35,5.68-4.92,8.51-.43.78-.9,1.02-1.78,1.02-12.57-.04-25.14-.03-37.72-.03-.2,0-.4,0-.74,0,.67-1.15,1.27-2.19,1.87-3.23.58-1.01,1.15-2.03,1.76-3.02.12-.19.41-.37.63-.39,2.43-.19,4.87-.33,7.3-.51,2.6-.19,5.2-.43,7.8-.62,1.61-.12,3.22-.15,4.83-.27,2.62-.19,5.24-.44,7.86-.62,2.67-.19,5.34-.3,8.01-.48,1.54-.1,3.08-.27,4.62-.41.12-.01.24.03.46.05Z" fill="#ce0b2d"/>
  <path d="M166.21,168.81v-2.69h4.79c.01.2.04.38.04.57,0,6.8,0,13.59.01,20.39,0,.55-.13.76-.71.74-1.19-.04-2.39-.03-3.58,0-.43.01-.56-.14-.54-.55.02-.65,0-1.3,0-1.95-.88.62-1.67,1.28-2.55,1.79-5.35,3.1-12.23.69-14.51-5.07-1.36-3.44-1.44-6.92.09-10.33,1.31-2.93,3.54-4.89,6.64-5.86,1.46-.46,2.95-.57,4.4-.36,2.23.32,4.17,1.36,5.66,3.11.04.05.09.08.26.23ZM153.24,177.19c.11.55.18,1.27.41,1.95,1.09,3.18,3.4,4.69,6.79,4.51,1.95-.11,3.4-1.08,4.47-2.64,1.3-1.91,1.43-4.03.91-6.22-.9-3.76-5.19-5.72-8.62-4.13-2.71,1.26-3.68,3.57-3.96,6.53Z" fill="#cf0d2e"/>
  <path d="M51.55,180.98c-.48,1.55-1.27,2.76-2.27,3.84-1.64,1.78-3.66,3-6.03,3.44-4.43.83-9.02-.88-11.73-5.02-1.23-1.88-1.88-4-1.83-6.2.11-4.56,2.24-8.86,6.96-10.88,5.73-2.44,12.11-.05,14.72,6.08.89,2.09,1.22,4.27.7,6.52-.04.18-.29.34-.47.45-.11.06-.29.01-.44.01-5.11,0-10.23,0-15.34,0-.68,0-.72.05-.44.68,1.02,2.22,2.7,3.52,5.18,3.74,1.58.15,3.04-.11,4.29-1.14.42-.35.73-.82,1.11-1.22.12-.13.29-.3.44-.3,1.68-.02,3.36-.01,5.16-.01ZM40.97,175.17c1.81,0,3.62,0,5.43,0,.32,0,.69.05.55-.49-.92-3.54-3.83-5.17-7.05-4.55-2.42.47-4.01,2.05-4.78,4.43-.18.55,0,.62.47.61,1.79-.01,3.58,0,5.37,0Z" fill="#cf0c2e"/>
  <path d="M239.94,181.08c-.42,1.35-1.15,2.52-2.09,3.57-1.41,1.58-3.13,2.73-5.15,3.35-1.51.46-3.06.57-4.65.36-2.57-.34-4.76-1.41-6.58-3.23-1.84-1.85-2.93-4.08-3.22-6.68-.44-4,.78-7.42,3.67-10.2,1.69-1.62,3.72-2.55,6.07-2.87,5.85-.81,10.62,2.88,12.22,8.02.56,1.79.68,3.62.28,5.47-.09.41-.33.37-.61.37-1.49,0-2.98,0-4.47,0-3.67,0-7.33,0-11,0-.25,0-.5,0-.94,0,.27.57.42,1.03.67,1.42.97,1.5,2.28,2.63,4.06,2.93,2.18.38,4.54.09,6.11-2.23.11-.17.35-.35.53-.36,1.64-.02,3.28,0,4.92,0,.04,0,.07.04.16.08ZM229.42,175.17c1.81,0,3.62,0,5.43,0,.37,0,.66-.03.52-.52-.98-3.63-3.88-5.1-7.02-4.53-2.38.44-3.95,2-4.76,4.29-.24.68-.17.75.58.76,1.75,0,3.5,0,5.24,0Z" fill="#cf0c2e"/>
  <path d="M89.15,61.56h31.85c.8,3,1.6,5.99,2.42,9.06-12.73-.8-25.36-1.59-38.1-2.39,1.33-2.32,2.58-4.5,3.83-6.67Z" fill="#cf0c2e"/>
  <path d="M173.85,187.79v-21.69h4.74v1.76c.34-.25.56-.39.75-.56,1.13-1.03,2.48-1.67,3.96-1.86,2.16-.27,4.2.22,6.04,1.43,1.91,1.26,2.96,3.07,3.32,5.28.18,1.1.26,2.24.27,3.36.03,3.83,0,7.67.02,11.5,0,.59-.12.82-.77.8-1.42-.05-2.85-.02-4.34-.02-.02-.24-.05-.44-.05-.65,0-3.75.07-7.5-.01-11.25-.02-1.14-.26-2.34-.7-3.4-1.18-2.87-4.69-3.14-6.78-.98-.77.8-1.18,1.78-1.2,2.87-.08,4.21-.13,8.43-.16,12.64,0,.63-.19.79-.79.77-1.42-.04-2.85-.01-4.32-.01Z" fill="#cf0c2e"/>
  <path d="M9.26,166.1h4.62v1.83c.28-.2.45-.3.59-.43,1.18-1.1,2.58-1.86,4.16-2.05,3.87-.47,8.16,1.57,9.25,5.91.34,1.35.47,2.71.48,4.1,0,3.88,0,7.75.01,11.63,0,.56-.14.74-.71.72-1.44-.04-2.89-.01-4.4-.01-.01-.29-.04-.54-.04-.79,0-3.64.01-7.29,0-10.93,0-1.26-.21-2.5-.75-3.65-1.13-2.44-3.79-2.97-6.01-1.55-1.19.76-1.88,1.9-1.92,3.27-.13,4.27-.17,8.55-.24,12.83,0,.25,0,.5,0,.79h-5.03v-21.66Z" fill="#cf0d2e"/>
  <path d="M217.18,173.23c-1.85,0-3.64.02-5.43-.02-.2,0-.46-.26-.59-.47-1.25-1.97-3.08-2.88-5.34-2.6-2.8.35-4.73,1.91-5.41,4.72-.67,2.79-.21,5.34,2.03,7.33,2.43,2.14,6.48,2.22,8.54-.82.32-.48.69-.64,1.26-.62,1.43.04,2.86.01,4.28.01.21,0,.41,0,.64,0-1.31,4.45-5.68,8.11-11.45,7.67-5.99-.46-10.84-5.07-10.77-11.68.06-6.34,4.67-10.74,10.2-11.3,6.43-.65,10.91,3.46,12.02,7.78Z" fill="#cf0d2e"/>
  <path d="M141.4,173.36c0-4.58,0-9.16-.01-13.74,0-.55.13-.75.71-.73,1.28.04,2.56.03,3.83,0,.47,0,.67.08.67.63-.02,9.2-.02,18.4,0,27.6,0,.55-.18.69-.7.68-1.23-.03-2.47-.04-3.71,0-.6.02-.81-.14-.8-.78.03-4.56.01-9.12.01-13.67Z" fill="#d01132"/>
</svg>