<?xml version="1.0" encoding="UTF-8"?>
<svg id="Layer_1" xmlns="http://www.w3.org/2000/svg" viewBox="0 0 250 250">
  <path d="M165.25,99.43v1.88c0,12.62,0,25.24,0,37.86,0,6.12-3.05,9.84-9.12,11.04-1.19.23-2.42.35-3.64.35-21.38.02-42.75.02-64.13.02-.43,0-.87,0-1.44,0-.03-.56-.07-1.03-.07-1.5,0-12.13,0-24.26,0-36.39,0-4.15,1.03-7.85,4.47-10.52,2.24-1.73,4.86-2.45,7.63-2.69.68-.06,1.37-.05,2.05-.05,20.79,0,41.58,0,62.37,0h1.88ZM149.65,111.62c-.33-.08-.47-.14-.61-.14-13.06,0-26.12-.04-39.18.03-3.84.02-6.33,2.73-6.35,6.6-.02,5.82,0,11.64,0,17.46,0,1.02,0,2.03,0,3.13.57.03.99.08,1.42.08,12.08,0,24.17,0,36.25,0,.87,0,1.76-.1,2.62-.27,3.7-.73,5.83-3.36,5.85-7.15,0-1.17,0-2.35,0-3.52v-16.21Z" fill="#fe463d"/>
  <path d="M16.54,111.47v38.99H0v-50.95c.52-.03,1-.07,1.47-.07,21.03,0,42.06,0,63.09,0,6.24,0,11.43,3.3,13.31,8.53.44,1.22.74,2.57.75,3.86.05,12.62.03,25.24.03,37.86,0,.24-.04.47-.07.8h-15.78c0-.47,0-.99,0-1.5,0-9.59,0-19.17,0-28.76,0-5.75-3.01-8.75-8.78-8.75-11.93,0-23.87,0-35.8,0h-1.68Z" fill="#fe463d"/>
  <path d="M220.45,119.33c-2.95,3.79-2.89,7.55.14,11.39-.81.5-1.55.96-2.28,1.41-8.94,5.52-17.89,11.03-26.81,16.58-2.05,1.27-4.14,2.01-6.62,1.9-3.66-.15-7.33,0-11-.08-.67-.01-1.8-.45-1.87-.85-.12-.63.29-1.6.81-2.06,7.34-6.61,14.73-13.15,22.1-19.71.44-.39.88-.78,1.31-1.18,1.53-1.4,1.55-2.08.03-3.44-3.86-3.46-7.73-6.89-11.6-10.34-3.94-3.51-7.91-6.99-11.81-10.55-.52-.48-.97-1.41-.89-2.06.12-1.06,1.19-.92,2.02-.92,4.01,0,8.02-.08,12.03.05,1.36.04,2.88.34,4.03,1.03,10.04,6.07,20,12.26,29.99,18.42.15.1.27.25.43.41Z" fill="#fe463d"/>
  <path d="M214.88,138.87c3.15-1.95,6.29-3.9,9.46-5.81.33-.2.85-.05,1.28-.12,1.38-.23,2.81-.34,4.13-.77,1.01-.33,1.73-.32,2.53.4,5.68,5.09,11.4,10.13,17.06,15.24.44.4.76,1.31.63,1.86-.1.41-1.02.85-1.59.86-4.4.07-8.8.09-13.2,0-1.02-.02-2.15-.37-3.04-.9-5.7-3.42-11.35-6.93-17.01-10.41-.08-.05-.11-.15-.25-.35Z" fill="#fe473e"/>
  <path d="M214.71,111.01c2.51-1.54,4.83-2.96,7.15-4.39,2.95-1.82,5.91-3.64,8.85-5.48,1.86-1.17,3.79-1.84,6.07-1.75,3.81.14,7.62,0,11.43.08.62.01,1.65.43,1.75.84.14.58-.22,1.53-.69,1.96-5.54,5.02-11.15,9.95-16.71,14.94-.88.79-1.65.92-2.78.49-1.16-.45-2.46-.8-3.68-.73-1.21.06-2.16-.19-3.14-.81-2.66-1.7-5.37-3.34-8.24-5.13Z" fill="#fe473e"/>
  <path d="M197.77,100.26h26.68c-.46.36-.69.58-.95.74-3.86,2.39-7.72,4.78-11.6,7.13-.39.24-1.1.42-1.42.23-4.31-2.57-8.57-5.22-12.84-7.85.04-.08.08-.17.12-.25Z" fill="#fe483f"/>
  <path d="M224.43,149.73h-26.87c.35-.3.56-.52.8-.67,3.9-2.41,7.8-4.84,11.73-7.19.43-.26,1.26-.32,1.67-.07,4.02,2.4,8,4.87,11.99,7.33.19.12.34.29.69.6Z" fill="#fe483f"/>
</svg>