<?xml version="1.0" encoding="UTF-8"?>
<svg id="Layer_1" xmlns="http://www.w3.org/2000/svg" viewBox="0 0 24 24">
  <path d="M8.39,14.95c0-1.62-.03-3.15.01-4.68.02-.78.43-1.22,1.14-1.23,2.05-.03,4.1-.01,6.25-.01,0,.63,0,1.23,0,1.83,0,.87,0,1.74,0,2.61,0,.97-.32,1.45-1.11,1.46-2.07.03-4.14.01-6.28.01ZM9.87,13.65c1.32,0,2.53,0,3.74,0,.51,0,.77-.36.8-.96.03-.61.04-1.23,0-1.84-.01-.19-.24-.49-.38-.5-1.17-.04-2.35-.05-3.52.01-.22.01-.58.41-.61.67-.08.83-.03,1.67-.03,2.61Z" fill="currentColor"/>
  <path d="M0,14.9v-5.77c.08-.03.16-.09.23-.09,1.97,0,3.94-.02,5.9,0,.82,0,1.31.61,1.33,1.57.02,1.41,0,2.81,0,4.28h-1.44c0-1.09,0-2.19,0-3.28,0-.97-.26-1.27-1.06-1.27-1.15,0-2.29,0-3.5,0v4.56H0Z" fill="currentColor"/>
  <path d="M16.58,14.77c.61-.67,1.22-1.35,1.83-2.02.71-.77.71-.76-.02-1.55-.61-.66-1.21-1.32-1.92-2.1.83-.07,1.48-.21,2.11.31.79.66,1.63,1.24,2.4,1.83v1.51c-.88.65-1.79,1.43-2.77,2.03-.44.27-1.03.16-1.55.23-.02-.08-.05-.15-.07-.23Z" fill="currentColor"/>
  <path d="M20.81,13.65c.83-.82,1.39-1.05,2.1-.03.31.43.69.78,1.09,1.21-1.33.49-2.24-.33-3.19-1.18Z" fill="currentColor"/>
  <path d="M20.83,10.29c.92-.78,1.81-1.66,3.16-1.14-.58.63-1.06,1.39-1.7,1.77-.36.22-.97-.19-1.47-.32,0-.1,0-.21.01-.31Z" fill="currentColor"/>
  <path d="M21.16,9.22q-.84.87-1.85,0h1.85Z" fill="currentColor"/>
  <path d="M21.25,14.8h-1.86c.66-.94.82-.94,1.86,0Z" fill="currentColor"/>
</svg>