<?xml version="1.0" encoding="UTF-8"?>
<svg id="Layer_1" xmlns="http://www.w3.org/2000/svg" viewBox="0 0 250 250">
  <path d="M245.4,125.04c-.03,66.49-54.02,120.42-120.49,120.37-66.51-.05-120.38-54.02-120.31-120.53C4.67,58.39,58.47,4.64,125.01,4.6c66.46-.04,120.42,53.94,120.4,120.44ZM242.45,125.07c-.06-65.46-53.12-117.46-117.32-117.52C60.28,7.49,7.6,60.13,7.54,124.91c-.05,64.19,51.85,117.4,117.31,117.53,64.86.13,117.57-52.53,117.6-117.37Z" fill="#f8fbfa"/>
  <path d="M198.49,125.25c0,40.52-32.86,73.41-73.42,73.48-40.61.07-73.59-32.92-73.56-73.57.03-40.58,32.99-73.46,73.59-73.41,40.54.06,73.38,32.94,73.39,73.5ZM84.34,182.45s.08.03.11.05c-.09.61.46.71.8.94,10.68,7.28,22.48,11.35,35.37,12.17,7.26.46,14.45-.18,21.52-1.96,35.14-8.86,59.02-43.35,52.21-81.13-3.1-17.19-11.72-31.25-25.24-42.29-1.52-1.24-1.01-1.18-2.46-.02-13.33,10.6-26.64,21.21-39.97,31.81-.31.24-.56.59-1.07.64.13-1.06.31-2.09.39-3.13.35-4.32-.59-8.31-3.07-11.9-.77-1.11-.78-1.11.24-1.92,9.99-7.94,19.97-15.88,29.96-23.83.3-.24.66-.43.89-.87-1.95-.98-3.94-1.66-5.89-2.42-.7-.27-1.18-.14-1.75.32-3.07,2.48-6.16,4.92-9.25,7.37-6.42,5.11-12.86,10.21-19.26,15.35-.66.53-1.15.59-1.92.21-1.99-.97-4.16-1.36-6.35-1.54-4.1-.33-8.21-.13-12.31-.19-.39,0-.78.06-1.34-.14,10.54-8.41,20.98-16.68,31.34-25.13-.45-.14-.84-.14-1.23-.14-7.2-.1-14.25.87-21.16,2.91-27.9,8.24-49.3,33.68-50.41,65.28-.28,7.94.78,15.72,3.15,23.32,2.29,7.35,5.71,14.14,10.24,20.37.24.33.36.87.95.82h0c-.04.39.15.69.39.98.36.44.7.89,1.06,1.33,3.78,4.65,8.09,8.74,12.92,12.29.32.24.59.74,1.14.46Z" fill="#fdfcfc"/>
  <path d="M97.2,46.95c-.94-3.09-1.84-6.04-2.73-8.98-1.14-3.77-2.3-7.53-3.4-11.31-.23-.8-.55-1.31-1.46-1.25-.24.01-.48-.09-.72-.1-.64-.03-.88-.32-.86-.99.02-.55.22-.77.73-.92,2.52-.76,5.02-1.6,7.55-2.34,1.94-.57,3.88-1.2,5.88-1.55,7.97-1.42,12.59,3.46,13.93,9.35,1.52,6.68-1.81,12.61-8.34,14.82-3.45,1.17-7.01,2.01-10.58,3.28ZM95.24,24.27c.12.41.21.76.31,1.1.95,3.15,1.89,6.29,2.85,9.44.76,2.52,1.54,5.04,2.3,7.57.11.37.18.71.72.53,1.5-.5,3.05-.87,4.51-1.46,2.94-1.2,4.9-3.36,5.5-6.51.71-3.71-.36-7.01-2.83-9.82-1.31-1.5-3.06-2.21-5.04-2.41-2.92-.3-5.6.64-8.33,1.57Z" fill="#fafcfb"/>
  <path d="M204.56,100.97c-.75-2.14-1.43-4.07-2.12-6-.13-.37.05-.62.23-.89,2.3-3.35,4.59-6.71,6.9-10.05.63-.9,1.67-.91,2.37-.08,1.33,1.59,2.96,2.53,5.1,2.24,2.51-.34,4.15-2.66,3.62-5.12-.26-1.2-.88-2.27-1.35-3.38-.12-.28-.3-.36-.57-.23-.26.12-.51.24-.77.36-6.05,2.77-12.1,5.55-18.15,8.31-1.33.61-1,.71-1.77-.61-.45-.77-.89-1.55-1.32-2.33-.41-.73-.41-.75.39-1.11,3.66-1.66,7.32-3.31,10.98-4.97,2.51-1.14,5.01-2.32,7.55-3.39.83-.35,1.12-.81,1.01-1.64-.03-.2-.02-.41,0-.61.04-.4-.18-.89.52-1.03.88-.18.99-.2,1.39.5,1.89,3.32,3.67,6.69,5.17,10.21.74,1.73,1.03,3.52.58,5.36-.88,3.58-4.3,5.45-7.84,4.37-1.52-.47-2.76-1.35-3.85-2.48-.11-.11-.23-.21-.46-.4-2.53,4.31-5.02,8.56-7.61,12.98Z" fill="#fafcfb"/>
  <path d="M21.6,142.87c2.05-.25,4.06-.49,6.06-.74,4.27-.53,8.54-1.07,12.81-1.6.81-.1,1.62-.14,2.42-.3.67-.14.83.14.94.72.21,1.2.49,2.38.76,3.63-.85.51-1.86.39-2.8.51-6.16.8-12.33,1.54-18.49,2.27-.56.07-.91.24-1.04.8-.07.32-.19.62-.29.93-.34,1.02-.49,1.06-1.46.79-.56-.15-.51-.6-.58-.95-.46-2.31-.91-4.62-1.32-6.93-.27-1.52-.5-3.05-.58-4.59-.07-1.35.06-2.68.6-3.94,1.57-3.7,5.76-4.98,9.13-2.79,1.15.75,2.01,1.76,2.7,2.93.2.35.39.7.66,1.19,3.68-3.33,7.31-6.6,10.93-9.87.37.26.22.57.23.82.08,1.62.12,3.25.22,4.87.03.55-.14.89-.56,1.23-3.1,2.43-6.2,4.87-9.27,7.34-.49.4-.97.49-1.57.41-.46-.06-.73-.19-.86-.67-.12-.42-.34-.82-.56-1.21-.51-.9-1.21-1.63-2.12-2.13-3-1.66-6.25.08-6.42,3.49-.06,1.24.12,2.5.47,3.78Z" fill="#fafcfb"/>
  <path d="M201.95,53.15c-5.66,4.86-11.24,9.65-16.81,14.43-1.09-1.13-2.15-2.23-3.27-3.39.17-.27.58-.53.94-.83,5-4.28,10-8.56,15.03-12.81.62-.53.89-.99.53-1.74-.1-.22-.16-.46-.2-.7-.06-.4-.39-.85.25-1.13.54-.23.94-.43,1.49.12,2.71,2.69,5.31,5.49,7.79,8.4,1.25,1.47,1.96,3.16,1.94,5.13-.03,3.72-2.98,6.42-6.69,6.12-1.23-.1-2.39-.44-3.48-1.01-.32-.17-.64-.33-1.07-.55-1.24,4.8-2.46,9.54-3.68,14.28-.41,0-.48-.31-.63-.51-.95-1.32-1.85-2.67-2.83-3.97-.38-.51-.45-.95-.24-1.55,1.25-3.69,2.46-7.39,3.69-11.09.43-1.3,1.35-1.61,2.46-.86,1.38.93,2.89,1.31,4.52.96,3.05-.66,4.37-4.02,2.67-6.72-.61-.97-1.5-1.69-2.41-2.58Z" fill="#fafcfb"/>
  <path d="M220.19,126.51c-6.6-.04-11.87-4.56-13.07-11.22-.45-2.48-.44-4.93.35-7.34,1.58-4.83,5.96-8.06,11.18-8.38,7.79-.49,12.56,4.95,13.59,11.24.33,2.03.33,4.05-.09,6.06-1.26,6.1-5.71,9.69-11.96,9.65ZM218.9,121.37c1.18-.05,2.31-.11,3.42-.35,4.86-1.05,7.6-4.55,7.24-9.3-.26-3.44-2.3-6.12-5.5-6.97-3.46-.92-6.86-.58-10.04,1.08-2.74,1.42-4.25,3.75-4.33,6.84-.13,4.49,2.35,7.57,6.35,8.42.96.2,1.93.23,2.86.28Z" fill="#fafcfb"/>
  <path d="M67.45,42.89c3.19,4.84,6.39,9.68,9.61,14.58-.88.66-1.68,1.26-2.48,1.86-.5-.21-.63-.67-.86-1.03-3.55-5.49-7.11-10.97-10.6-16.5-.54-.86-1.12-1.18-2.06-.97-.16.03-.32.05-.48.06-.37.02-.85.29-1-.33-.12-.51-.48-1.03.24-1.49.96-.6,1.87-1.29,2.75-2.02.58-.48,1.1-.47,1.79-.25,6.06,1.96,12.13,3.88,18.2,5.8.42.13.84.25,1.31.38-.02-.47-.26-.74-.42-1.04-1.83-3.35-3.68-6.69-5.47-10.05-.36-.67-.74-1-1.5-.82-.24.06-.48.06-.73.09-.97.09-1.01.04-1.23-.87-.1-.39,0-.6.35-.78,1.35-.66,2.69-1.33,4.02-2.02.38-.2.6-.11.77.26.08.18.2.35.29.53,3.61,6.63,7.22,13.26,10.81,19.91.19.35.76.8.36,1.14-.45.38-1.02.8-1.76.55-1.69-.58-3.39-1.11-5.09-1.66-5.36-1.75-10.72-3.5-16.08-5.24-.22-.07-.43-.26-.74-.08Z" fill="#fafcfb"/>
  <path d="M43.73,110.36c.03,1.76-.26,3.48-.81,5.15-2.15,6.41-8.37,9.74-15.05,8.1-7.03-1.73-10-7.69-9.64-13.53.12-1.92.55-3.77,1.29-5.55,2.8-6.76,9-9.3,15.78-6.78,5.29,1.97,8.44,6.75,8.44,12.61ZM20.98,110.8c0,3.17,1.54,5.62,4.55,7.01,2.59,1.2,5.32,1.67,8.17,1.29,3.81-.51,6.49-3.1,7.12-6.93.63-3.86-.98-6.96-4.53-8.66-2.12-1.01-4.37-1.51-6.71-1.46-5.14.1-8.59,3.64-8.6,8.75Z" fill="#fafcfb"/>
  <path d="M153.37,46.12c-3.75-.14-7.44-.64-10.93-2.13-.97-.42-1.91-.9-2.79-1.49-4.34-2.89-6.05-7.19-4.88-12.25.22-.95.5-1.88.88-2.78,2.04-4.91,5.79-7.38,11.03-7.62,3.73-.17,7.23.86,10.63,2.27,1.31.55,2.56,1.22,3.81,1.9.54.3.76.58.45,1.23-.7,1.51-1.29,3.07-1.94,4.6-.13.32-.17.77-.72.58-.44-.15-1-.13-1.01-.83,0-.53-.09-1.05-.09-1.58,0-1-.39-1.72-1.24-2.34-2.08-1.51-4.32-2.59-6.9-2.83-2.83-.26-5.36.49-7.27,2.65-2.38,2.67-3.28,5.89-2.74,9.4.65,4.23,4.1,7.31,8.51,7.84,1.22.15,2.43.12,3.65,0,.65-.06,1.03-.27,1.17-.97.23-1.11.54-2.21.87-3.29.16-.53.02-.82-.43-1.1-.75-.48-1.48-1.01-2.2-1.53-.41-.29-.95-.48-.51-1.21.49-.81.43-.86,1.41-.6,1.61.42,3.21.86,4.82,1.29.63.17,1.25.35,1.88.49.41.09.53.28.43.68-.79,2.94-1.58,5.88-2.34,8.82-.11.44-.34.57-.76.61-.93.09-1.86.22-2.8.18Z" fill="#fafbfb"/>
  <path d="M179.65,62.46c-1.58-1.25-3.17-2.52-4.77-3.76-.37-.29-.3-.62-.25-.98.2-1.73.37-3.47.63-5.2.09-.58-.05-.88-.55-1.18-2.52-1.48-5.02-2.99-7.5-4.53-.51-.31-.84-.26-1.27.11-1.24,1.05-2.52,2.04-3.76,3.09-.42.36-.78.47-1.3.19-.78-.43-1.6-.77-2.4-1.16.19-.41.54-.56.82-.78,6.71-5.13,13.42-10.25,20.14-15.36,1.04-.8.67-.8,1.86-.1,1.67.98,1.64.99,1.38,2.91-.97,7.07-1.93,14.15-2.9,21.22-.05.4-.11.8-.19,1.2-.14.71,0,1.32.44,1.93.92,1.27.88,1.29-.37,2.38ZM177.48,38.33c-.09-.04-.17-.07-.26-.11-2.73,2.12-5.46,4.24-8.31,6.45,2.35,1.42,4.54,2.74,6.86,4.14.59-3.64,1.15-7.06,1.7-10.48Z" fill="#fafbfb"/>
  <path d="M70.64,60.58c.17.24.29.44.45.63.35.42.31.72-.13,1.11-1.34,1.18-2.65,2.4-3.94,3.64-.41.4-.74.48-1.28.28-1.52-.57-3.08-1.04-4.59-1.61-.51-.19-.8-.1-1.15.29-1.96,2.23-3.94,4.44-5.94,6.63-.38.42-.35.73-.1,1.18.83,1.54,1.6,3.1,2.44,4.63.29.53.31.94-.07,1.43-.51.67-.94,1.4-1.43,2.13-.34-.23-.41-.55-.55-.82-3.88-7.73-7.76-15.46-11.63-23.19-.59-1.19-.64-.81.25-1.86,1.22-1.44,1.23-1.44,2.98-.84,6.95,2.38,13.9,4.74,20.84,7.15.91.32,1.69.39,2.51-.16.4-.26.87-.43,1.33-.65ZM47.71,59.83c-.07.06-.14.11-.21.17,1.59,3.11,3.18,6.22,4.83,9.43,1.82-2.04,3.53-3.96,5.34-5.98-3.45-1.25-6.71-2.44-9.97-3.62Z" fill="#fafcfb"/>
  <path d="M213.07,130.65c-.46.55-.83.97-1.19,1.41-1.38,1.68-2.16,3.6-2.41,5.75-.06.53-.04,1.05.06,1.57.44,2.22,2.58,3.13,4.45,1.87.71-.48,1.31-1.1,1.87-1.74.99-1.13,1.95-2.28,2.95-3.41.94-1.07,1.96-2.06,3.19-2.81,3.61-2.21,7.78-.79,9.27,3.18.76,2.03.83,4.12.5,6.24-.29,1.85-.81,3.63-1.61,5.34-.26.55-.56.69-1.13.52-1.55-.46-3.13-.87-4.68-1.31-.28-.08-.68-.08-.61-.58.05-.42.12-.79.62-.92,1.06-.26,2.12-.56,3.18-.83.36-.09.71-.14.86-.56.57-1.59.96-3.2.5-4.88-.6-2.23-2.65-2.98-4.55-1.69-.78.53-1.42,1.21-2.02,1.93-1.16,1.36-2.29,2.74-3.46,4.09-.64.74-1.38,1.37-2.17,1.95-3.29,2.48-8.34.83-9.57-3.26-.72-2.41-.58-4.81,0-7.22.48-1.99,1.26-3.85,2.44-5.54.58-.82.6-.82,1.43-.34.67.38,1.33.78,2.1,1.23Z" fill="#fafbfb"/>
  <path d="M48.47,77.4c1.44,2.09,2.84,4.14,4.26,6.16.28.39.27.69.04,1.1-2.26,3.91-3.99,8.07-5.6,12.28-.22.59-.44.83-1.13.72-.61-.1-.79-.39-.66-.89.43-1.75-.53-2.43-1.98-3.1-4.96-2.31-9.87-4.75-14.77-7.2-.87-.44-1.49-.45-2.12.28-.11.12-.25.21-.38.3-.34.24-.6.7-1.12.21-.44-.41-.78-.72-.45-1.43.68-1.47,1.23-3,1.87-4.5.41-.96.43-.96,1.39-.49,5.98,2.92,11.96,5.84,17.93,8.76,1.36.67,1.1.76,1.81-.64,1.55-3.04,1.45-6.09.1-9.16q-.62-1.42.8-2.41Z" fill="#fafbfb"/>
  <path d="M135.2,228.33c-1.52.11-2.78.17-4.03.3-.52.05-.81-.14-1.08-.57-1.11-1.8-2.26-3.57-3.38-5.36-.54-.88-.33-1.43.65-1.86,1.58-.69,2.44-1.96,2.43-3.6-.01-1.46-.95-2.55-2.4-2.77-.32-.05-.65-.04-.97-.04-.91,0-.93,0-.93.95-.01,4.02-.01,8.05-.02,12.07,0,.28,0,.57,0,.85,0,.35-.14.52-.51.51-.89-.01-1.79,0-2.68,0-.37,0-.5-.2-.49-.54,0-.28,0-.57,0-.85,0-4.02-.02-8.05,0-12.07,0-.75-.05-1.36-.9-1.59-.43-.11-.53-.36-.43-.82.11-.52.36-.63.84-.61,2.23.13,4.47.04,6.7.02.81,0,1.62.07,2.4.33,1.7.57,2.94,1.62,3.3,3.42.39,1.91-.26,3.52-1.75,4.79-.52.45-1.14.74-1.84,1.14,1.68,2.08,3.3,4.09,5.08,6.3Z" fill="#f8fbfa"/>
  <path d="M79.95,218.54c.08-.44.4-.65.64-.9,3.43-3.69,6.86-7.38,10.3-11.07.71-.76.72-.76,1.63-.4,1.71.66,1.73.66,1.84,2.57.21,3.73.39,7.47.59,11.2.03.53.09,1.05.09,1.58,0,.72.17,1.35.8,1.81.29.21.53.46.29.91-.29.55-.66.32-1.03.21-1.2-.38-2.38-.8-3.59-1.15-.53-.15-.72-.42-.71-.95.02-.81-.06-1.63-.03-2.44.02-.52-.15-.81-.65-1-1.64-.6-3.27-1.21-4.89-1.87-.48-.2-.74-.07-1.03.29-.48.6-1.03,1.16-1.49,1.77-.34.46-.67.47-1.13.22-.53-.3-1.09-.53-1.63-.79ZM90.65,210.01c-1.42,1.79-3.03,3.4-4.53,5.24,1.59.6,3,1.14,4.54,1.72-.01-2.42-.25-4.67,0-6.96Z" fill="#f8fbfa"/>
  <path d="M64.08,190.45c-2.91,3.25-5.74,6.39-8.56,9.53-1.07,1.19-1.08,1.21-2.22.09-.48-.47-1.3-.84-1.3-1.5,0-.58.74-1.01,1.17-1.49,2.54-2.85,5.08-5.7,7.64-8.52.51-.56.86-1.05.35-1.78-.27-.39-.1-.65.25-.9.37-.27.61-.24.94.08,1.87,1.81,3.76,3.58,5.64,5.38.83.8,1.48,1.74,1.78,2.86.69,2.61-1.15,5.18-4.05,5.55-2.35.31-4.15-.81-5.72-2.4-.48-.49.13-.78.3-1.14.19-.39.43-.18.69-.05,1.72.91,3.26.7,4.53-.61,1.02-1.05,1.12-2.2.28-3.41-.44-.64-1.04-1.12-1.72-1.68Z" fill="#f8fbfa"/>
  <path d="M190.15,202.12c.52-.21,1.05-.4,1.56-.62,1.1-.48,2.06-1.13,2.79-2.1.42-.55.65-1.16.36-1.82-.31-.7-.94-.98-1.67-1.04-.83-.07-1.61.17-2.38.43-1.04.36-2.06.76-3.13.99-.93.2-1.85.24-2.77-.06-2.46-.79-3.71-3.12-2.97-5.59.72-2.39,2.36-4.02,4.43-5.29.33-.2.57-.21.86.08.63.63,1.28,1.25,1.94,1.85.32.3.27.56,0,.83-.28.29-.34.91-.98.67-.42-.16-.86-.28-1.24-.5-.62-.35-1.07-.13-1.5.33-.36.39-.71.78-.95,1.26-.68,1.4.1,2.75,1.67,2.88.92.08,1.76-.25,2.6-.56,1.03-.38,2.04-.81,3.12-1.04,1.51-.32,2.91-.11,4.13.9,1.31,1.08,1.8,2.47,1.47,4.13-.27,1.35-.93,2.5-1.85,3.52-.66.73-1.4,1.37-2.26,1.84-2.41,1.33-1.92,1.47-3.25-1.11Z" fill="#f8fbfa"/>
  <path d="M160.95,204.72c2.21,5.05,4.38,9.98,6.56,14.94-.98.6-1.99.91-2.94,1.35-.31.14-.54.08-.67-.27-.1-.27-.23-.52-.35-.78-1.63-3.71-3.28-7.42-4.87-11.15-.29-.69-.61-1.1-1.4-.98-.54.08-.67-.25-.78-.69-.13-.5.14-.63.52-.78,1.28-.52,2.54-1.06,3.93-1.64Z" fill="#f8fbfa"/>
  <path d="M68.84,167.39c-.02-.4-.07-.81-.07-1.21,0-5.45.02-10.89-.02-16.34,0-.87.28-1.4.95-1.93,8.06-6.38,16.1-12.79,24.16-19.17.71-.56.99-1.13.99-2.04-.03-11.99-.02-23.98-.02-35.97,0-.37.01-.73,0-1.1-.01-.42.2-.57.6-.56,2.68.08,5.37-.21,8.03.24,2.21.37,4.21,1.2,5.86,2.76,3.09,2.91,3.61,7.41,1.29,11.15-1.36,2.19-3.37,3.6-5.68,4.61-1.57.69-3.22,1.14-4.9,1.41-.59.1-.81.35-.95.89-.75,2.88-.77,2.88.6,5.46,3.21,6.07,6.42,12.13,9.63,18.2.13.25.26.51.4.75.17.29.13.53-.15.74-.23.17-.44.36-.66.54-12.95,10.29-25.89,20.59-38.85,30.86-.36.28-.6.86-1.23.69,0,0,0,0,0,0Z" fill="#fffefe"/>
  <path d="M147.61,156.68c.51-.05,1.01-.22,1.53-.11.14-.05.28-.09.42-.14.34-.05.68-.23,1.04-.12.14-.05.28-.09.43-.14.18-.07.37-.14.57-.07.13-.05.27-.1.4-.15,1.06-.35,1.02-.14,1.02-1.29,0-3.37,0-6.74,0-10.1,0-1.02,0-1.03-.98-1.31-2.99-.87-5.99-1.73-8.98-2.6-.88-.26-.92-.28-.78-1.16.24-1.44.32-2.9.71-4.31,7.55,0,15.1,0,22.64,0,.02.28.05.56.05.85,0,8.14,0,16.27,0,24.41,0,.28-.03.56-.05.85-.07.09-.14.18-.2.26-2.22,1-4.57,1.64-6.91,2.28-5.54,1.53-11.18,2.46-16.95,2.27-5.95-.19-11.56-1.56-16.6-4.88-2.05-1.35-3.87-2.96-5.5-4.79q-.84-.93-1.78-.19c-5.95,4.73-11.89,9.45-17.83,14.18-4.83,3.84-9.66,7.68-14.5,11.52-.28.22-.5.55-.91.56-.03-.03-.07-.04-.11-.05-.14-.39-.08-.81-.08-1.21,0-5.48.01-10.97-.03-16.45,0-.78.25-1.25.85-1.72,8.92-7.05,17.81-14.13,26.7-21.21.57-.45,1.13-.69,1.87-.68,4.06.03,8.12.01,12.18.02,1.11,0,1.11,0,1.37,1.16.45,1.95,1.1,3.82,2.08,5.57,1.92,3.41,4.67,5.89,8.29,7.4.34.14.67.28,1.01.42.11.05.22.1.33.15.41-.01.77.13,1.13.3.14.05.28.1.43.15.28-.09.53.05.79.11.14.04.28.09.42.13.44-.11.86.07,1.28.11.14.18.3.2.47.03,1.31,0,2.62,0,3.92,0,.08.08.16.07.23-.02Z" fill="#fff"/>
  <path d="M125.89,137.43c-.17-.31-.29-.51-.4-.72-3-5.77-5.98-11.54-9.01-17.29-.4-.75-.35-1.28.1-1.98,4.45-6.75,10.65-11.09,18.39-13.2,9.7-2.64,19.16-1.53,28.36,2.27,1.92.79,1.67.33,1.45,2.54-.45,4.61-.89,9.22-1.31,13.83-.18,1.97-.15,1.97-2.05,1.97-.73,0-1.47-.04-2.19.01-.66.05-.93-.24-1.08-.84-.64-2.56-1.32-5.11-1.97-7.67-.57-2.23-.57-2.24-2.73-3-3.41-1.19-6.89-1.83-10.53-1.43-4.89.53-8.75,2.81-11.68,6.72-2.55,3.39-3.87,7.29-4.6,11.42-.38,2.17-.54,4.35-.55,6.55,0,.22.1.47-.2.8Z" fill="#fffdfd"/>
  <path d="M165.63,135.17c-7.55,0-15.1,0-22.64,0,.14-.39.48-.24.73-.24,7.07,0,14.13,0,21.2,0,.25,0,.59-.16.72.24Z" fill="#fdfcfc"/>
  <path d="M143.45,156.71c-.17.16-.32.15-.47-.03.16.01.31.02.47.03Z" fill="#fdfcfc"/>
  <path d="M147.61,156.68c-.07.09-.15.1-.23.02.07-.05.15-.05.23-.02Z" fill="#fdfcfc"/>
  <path d="M165.42,161.54c.07-.09.14-.18.2-.26.03.17-.04.25-.2.26Z" fill="#fdfcfc"/>
  <path d="M152,155.96c-.13.05-.27.1-.4.15.1-.15.24-.18.4-.15Z" fill="#fdfcfc"/>
  <path d="M140.48,156.32c-.14-.05-.28-.1-.43-.15.17-.02.32,0,.43.15Z" fill="#fdfcfc"/>
  <path d="M151.02,156.19c-.14.05-.28.09-.43.14.11-.16.26-.16.43-.14Z" fill="#fdfcfc"/>
  <path d="M149.56,156.44c-.14.05-.28.09-.42.14.1-.15.26-.16.42-.14Z" fill="#fdfcfc"/>
  <path d="M138.93,155.88c-.11-.05-.22-.1-.33-.15.14-.02.25.03.33.15Z" fill="#fdfcfc"/>
  <path d="M141.7,156.57c-.14-.04-.28-.09-.42-.13.16-.03.32-.02.42.13Z" fill="#fdfcfc"/>
</svg>