<?xml version="1.0" encoding="UTF-8"?>
<svg id="Layer_1" xmlns="http://www.w3.org/2000/svg" viewBox="0 0 250 250">
  <path d="M.1,127.7c0-2.03,0-4.07,0-6.1.16-1.31.47-2.6.38-3.94.02-.2.05-.4.07-.6.41-7.4,1.52-14.7,3.3-21.88C13.84,54.82,42.84,22.3,81.81,7.77,94.31,3.11,107.26.63,120.58.11c3.01,0,6.03,0,9.05,0,8.22.31,16.36,1.29,24.34,3.28,33.92,8.46,60.1,27.6,78.31,57.41,11.14,18.24,16.94,38.18,17.61,59.57v9.05c-.03,2.64-.22,5.27-.47,7.91-.67,6.97-1.93,13.83-3.78,20.58-10.8,39.43-40.35,71.17-78.96,84.83-8.14,2.88-16.49,4.87-25.06,5.99-3.1.41-6.22.62-9.34.93-.95,0-1.9.02-2.85.02-.76.05-1.55-.25-2.27.22h-4.63c-.69-.46-1.46-.17-2.2-.24-.81,0-1.62,0-2.43,0-2.39-.23-4.77-.43-7.16-.69-8.79-.96-17.36-2.9-25.73-5.75-33.07-11.27-59.94-35.83-74.1-67.76-4.69-10.56-7.83-21.57-9.42-33.02-.48-3.42-.79-6.86-1.03-10.3.12-.4.02-.8-.02-1.2-.11-1.08-.23-2.15-.35-3.23ZM125.12,4.54C58.68,4.57,4.77,58.48,4.75,124.91c-.02,66.5,53.92,120.46,120.4,120.43,66.56-.02,120.42-53.89,120.4-120.41-.02-66.53-53.93-120.42-120.44-120.39Z" fill="#094b32"/>
  <path d="M129.45,249.68c-.06.06-.08.13-.08.22h-2.2c.72-.47,1.51-.17,2.27-.22Z" fill="#0c4d34"/>
  <path d="M125.15,7.49c65.5.1,117.43,53.23,117.45,117.39.02,64.81-52.61,117.54-117.43,117.51-64.88-.03-117.49-52.6-117.47-117.48.02-64.79,52.62-117.37,117.45-117.41ZM177.59,73.79c0-.11-.06-.16-.17-.17v-.07s-.08,0-.08,0c0-.11-.06-.17-.17-.17v-.07s-.08,0-.08,0c0-.11-.06-.17-.17-.17v-.07s-.08,0-.08,0c0-.11-.06-.16-.17-.17v-.07s-.08,0-.08,0c0-.1-.06-.16-.16-.16v-.07s-.09-.01-.09-.01c0-.1-.05-.15-.16-.15v-.07s-.09-.01-.09-.01c0-.09-.05-.14-.14-.14-.68-.76-1.42-1.47-2.26-2.06-.01-.12-.07-.18-.2-.18v-.06s-.07,0-.07,0c0-.1-.05-.16-.16-.15-.76-.76-1.57-1.47-2.49-2.06-.02-.12-.08-.18-.21-.18l-.02-.06h-.07c0-.08-.05-.12-.13-.11-3.25-2.7-6.81-4.92-10.51-6.92-1.52-.82-3.04-1.67-4.69-2.24-.11-.15-.24-.23-.43-.2-.38-.27-.8-.46-1.27-.53-.11-.15-.25-.23-.44-.2-.23-.17-.47-.31-.77-.29-.11-.15-.26-.23-.45-.2-.46-.27-.95-.48-1.48-.54-.12-.16-.27-.22-.47-.19l-.24-.06c-.12-.17-.29-.22-.49-.19-.07-.02-.15-.04-.22-.06-.13-.18-.31-.21-.51-.19-.06-.07-.13-.09-.22-.06-.13-.17-.31-.21-.51-.18-.08-.02-.15-.04-.23-.06-.13-.17-.3-.21-.5-.18-.09-.02-.17-.04-.26-.06-.12-.15-.28-.2-.46-.17-.14-.03-.28-.06-.42-.09-.15-.19-.35-.21-.57-.18-.08-.02-.16-.03-.23-.05-.21-.22-.47-.23-.75-.21-.05-.07-.11-.09-.19-.04-.14-.17-.32-.2-.53-.17-.14-.03-.28-.05-.43-.08-.15-.18-.34-.2-.55-.16-.15-.03-.3-.05-.44-.08-.23-.22-.5-.22-.79-.19-.08-.01-.15-.03-.23-.04-.21-.19-.47-.23-.74-.18-.15-.02-.3-.05-.44-.07-.23-.2-.5-.21-.78-.17-.16-.02-.31-.04-.47-.06-.3-.22-.65-.24-1-.19-.14-.02-.29-.04-.43-.06-.31-.23-.67-.22-1.03-.18-.16-.02-.32-.03-.48-.05-.47-.26-.97-.23-1.48-.21-.14-.08-.29-.1-.45-.04-.56-.26-1.15-.23-1.75-.19-.23-.09-.46-.12-.69-.05-1.06-.29-2.13-.24-3.21-.21-.7-.11-1.4-.18-2.1-.04-.63-.16-1.26-.15-1.89,0-.63-.13-1.25-.07-1.87.04-1.09-.03-2.19-.1-3.26.21-.22-.08-.43-.05-.64.04-.6-.03-1.21-.06-1.78.2-.23-.07-.45-.03-.66.06-.44-.04-.86-.04-1.26.19-.15.02-.3.03-.45.05-.42-.04-.84-.02-1.22.21-.08.01-.16.02-.25.03-.37-.03-.74-.05-1.06.2-.14.02-.27.04-.41.06-.34-.04-.67-.01-.96.2-.09.01-.17.03-.26.04-.28-.03-.56-.02-.78.18-.15.02-.29.05-.44.07-.27-.05-.51,0-.72.19-.09.02-.17.03-.26.05-.27-.04-.52,0-.73.19-.08.01-.16.03-.25.04-.27-.04-.51.02-.71.21-.09.02-.18.03-.27.05-.21-.03-.41,0-.56.17-.14.03-.28.06-.43.09-.19-.03-.35.02-.48.17-.08.02-.17.04-.25.05-.21-.03-.39,0-.53.18-.6.04-1.14.24-1.66.53-.27-.03-.51.02-.7.23-1.21.28-2.35.73-3.46,1.27-.19-.03-.33.05-.44.2-.34-.02-.62.17-.92.3-3.44,1.46-6.76,3.15-9.93,5.13-3.06,1.92-6.04,3.95-8.73,6.39-.09,0-.14.04-.15.14h-.06s-.01.06-.01.06c-.12,0-.19.06-.2.18-.58.35-1.07.82-1.52,1.33-.1,0-.15.04-.15.14h-.07s0,.07,0,.07c-.12,0-.18.06-.18.18l-.06.05c-.12,0-.19.06-.2.19-1.44,1.19-2.76,2.51-3.95,3.95-.12.01-.19.08-.19.2l-.05.05c-.12.01-.18.07-.18.19h-.06s0,.07,0,.07c-.1,0-.15.06-.15.16-.94.92-1.8,1.89-2.54,2.98-.12.02-.18.09-.18.21h-.06s0,.07,0,.07c-.09,0-.13.05-.12.14-.19.21-.4.4-.57.63-4.01,5.15-7.31,10.73-9.83,16.76-.26.63-.61,1.24-.71,1.93-.09.04-.13.09-.08.19-.43.78-.7,1.62-.9,2.49-.09.04-.13.1-.08.2-.15.15-.18.33-.17.53-.09.04-.13.1-.07.2-.33.7-.59,1.42-.67,2.2-.1.06-.15.14-.11.26-.17.48-.4.94-.37,1.46-.09.06-.14.13-.08.23-.23.55-.41,1.11-.41,1.71-.09.06-.14.13-.08.24-1.07,3.93-1.57,7.96-1.84,12.01-.35,5.37-.14,10.72.7,16.04.54,3.41,1.22,6.79,2.33,10.06-.04.12.01.19.11.25.05.24.08.48.15.71,2.15,6.81,5.25,13.17,9.28,19.07,2.25,3.29,4.68,6.43,7.52,9.24,0,.09.04.14.14.14v.07s.07,0,.07,0c0,.11.06.17.17.18v.07s.07,0,.07,0c0,.11.07.17.17.18v.06s.07,0,.07,0c0,.11.07.17.18.18v.06s.06,0,.06,0c0,.11.07.17.18.18.06.15.16.25.31.31,0,.11.07.17.18.18v.06s.06,0,.06,0c0,.11.07.17.18.18v.06s.07,0,.07,0c0,.11.07.17.18.18v.06s.07,0,.07,0c0,.11.07.16.17.17v.07s.07,0,.07,0c0,.1.05.15.15.15.13.15.26.31.41.45,6.97,6.55,14.92,11.55,23.85,15,1.73.67,3.46,1.37,5.3,1.74.12.13.27.2.45.17.4.16.8.36,1.25.32.12.13.27.19.45.16.16.03.33.07.49.1.13.15.3.19.49.16.17.03.33.06.5.08.13.14.29.19.48.16.17.03.34.06.51.09.13.13.28.18.46.14.23.11.47.14.73.12.14.15.31.19.51.15.23.03.47.06.7.1.14.15.32.17.51.14.23.11.48.14.73.1.13.13.29.17.47.12.32.13.66.16,1,.13.22.17.47.19.73.15.32.11.65.13.99.1.3.2.63.21.97.16.32.1.65.12.99.08.47.21.95.21,1.45.17.55.1,1.11.16,1.67.09.81.24,1.64.2,2.47.16,1.39.11,2.79.1,4.18,0,.91.04,1.81.08,2.7-.17.57.06,1.13.02,1.69-.08.43.05.85.04,1.24-.16.41.05.81,0,1.2-.1.34.05.66.03.96-.16.34.04.67.02,1-.1.2.04.39.02.54-.13.31.04.62,0,.92-.11.21.04.39.02.55-.14.32.03.63,0,.92-.13.18.04.34,0,.47-.13.26.03.51,0,.74-.11.18.04.34,0,.47-.14.27.02.53,0,.77-.13.11.04.2.01.26-.1,1.26-.16,2.47-.48,3.66-.91h.11s.07-.08.07-.08c.45.02.83-.17,1.23-.33.18.03.33-.04.45-.17.09-.02.19-.04.28-.06.19.03.34-.04.46-.18.39.05.71-.15,1.05-.27,19.35-6.91,33.56-19.59,42.62-38.04,1.16-2.36,2.23-4.77,2.94-7.32.09-.04.13-.1.08-.2.15-.14.18-.32.17-.52.09-.05.14-.11.09-.22.14-.15.17-.33.15-.52.09-.05.13-.11.08-.21.15-.15.18-.33.16-.53.09-.04.11-.11.07-.19.23-.47.42-.95.43-1.48.09-.06.15-.13.1-.25.17-.49.4-.96.38-1.49.09-.05.11-.11.05-.19,1.2-3.98,1.76-8.06,2.13-12.18.38-4.17.37-8.35,0-12.52-.36-4.04-.96-8.05-2.06-11.96.04-.12,0-.2-.11-.26.01-.26,0-.52-.19-.73.01-.03.04-.06.03-.08-.03-.05-.07-.09-.1-.14-.03-.16-.06-.32-.09-.49.03-.13-.01-.24-.13-.31,0-.25,0-.49-.19-.69.06-.1.01-.17-.08-.21.02-.18,0-.35-.11-.5.04-.13-.02-.21-.12-.27-.23-1.18-.66-2.3-1.14-3.4.04-.11,0-.17-.1-.21-.05-.19-.08-.4-.15-.58-1.6-4.26-3.6-8.33-5.99-12.21-2.11-3.42-4.41-6.71-7.14-9.68,0-.1-.05-.15-.14-.15v-.06s-.06,0-.06,0c0-.12-.06-.18-.18-.19-.59-.85-1.3-1.58-2.06-2.27,0-.09-.04-.14-.14-.14v-.07s-.08-.01-.08-.01c0-.1-.05-.16-.16-.16v-.07s-.08-.01-.08-.01c0-.11-.05-.16-.16-.16v-.07s-.08-.01-.08-.01ZM116.66,31.43c-.05-2.41-.83-5.1-2.5-7.5-1.59-2.3-3.75-3.8-6.48-4.42-1.93-.44-3.88-.4-5.8.06-4.38,1.04-8.67,2.41-12.95,3.8-.78.25-.8.39-.76,1.25.03.7.52.59.94.66.2.03.4.08.6.08.88.01,1.31.43,1.56,1.31,1.02,3.59,2.13,7.15,3.21,10.72.85,2.83,1.71,5.67,2.57,8.5.31,1.03.32,1.02,1.29.7.62-.2,1.23-.41,1.85-.6,2.64-.8,5.31-1.5,7.91-2.41,5.36-1.87,8.54-6.27,8.56-12.14ZM219.27,77.27c.58,1.1,1.09,2.12,1.41,3.2.49,1.62.29,3.16-.93,4.42-1.24,1.28-2.77,1.6-4.48,1.17-1.36-.35-2.43-1.14-3.22-2.26-.36-.52-.74-.53-1.25-.44-.5.09-.87.32-1.17.77-2.23,3.3-4.48,6.58-6.75,9.85-.32.46-.34.83-.15,1.34.59,1.55,1.11,3.13,1.68,4.7.09.24,0,.6.46.7,2.48-4.24,4.97-8.49,7.5-12.8,1.2,1.27,2.41,2.26,3.94,2.81,3.79,1.36,7.43-.69,8.26-4.62.37-1.75.02-3.4-.65-4.99-1.49-3.52-3.29-6.88-5.15-10.21-.39-.7-.88-.55-1.43-.5-.65.06-.41.58-.46.93-.03.2-.05.41-.01.61.18.98-.32,1.41-1.17,1.8-6,2.68-11.98,5.4-17.96,8.12-.39.18-.85.27-1.17.68.61,1.09,1.22,2.19,1.84,3.28.45.79.47.8,1.29.42,2.55-1.16,5.09-2.33,7.63-3.5,3.94-1.81,7.89-3.62,11.94-5.48ZM44.77,144.71c-.29-1.43-.57-2.73-.81-4.04-.11-.58-.48-.55-.91-.49-5.36.68-10.71,1.35-16.07,2.02-1.49.19-2.98.39-4.47.57-.84.1-.85.09-.94-.8-.09-.85-.23-1.69-.26-2.54-.06-1.71.53-3.14,2.09-3.97,1.62-.87,3.22-.63,4.72.35,1.06.69,1.72,1.7,2.2,2.85.43,1.04,1.4,1.33,2.3.63,3.2-2.5,6.38-5.04,9.57-7.55.35-.28.5-.56.47-1.03-.09-1.66-.12-3.33-.19-4.99-.01-.26.14-.57-.26-.83-3.62,3.27-7.25,6.55-10.94,9.88-.26-.48-.45-.83-.65-1.17-.7-1.22-1.6-2.25-2.79-3-3.31-2.09-7.39-.86-8.98,2.72-.65,1.45-.82,2.97-.65,4.53.41,3.76,1.12,7.46,1.89,11.16.15.72.54.86,1.17.94.69.09.7-.37.83-.79.09-.27.21-.53.25-.81.12-.72.55-.95,1.25-1.03,3.63-.42,7.25-.89,10.88-1.34,3.38-.42,6.76-.84,10.3-1.28ZM194.81,79.7c.27-1.05.47-1.79.66-2.52.97-3.77,1.94-7.54,2.92-11.31.18-.71.21-.72.86-.36.97.53,1.99.92,3.07,1.13,3.53.67,6.69-1.4,7.38-4.87.46-2.32-.26-4.36-1.71-6.12-2.48-3.01-5.17-5.84-7.93-8.59-.57-.56-.98-.31-1.5-.08-.66.29-.27.73-.2,1.13.04.2.08.4.15.59.32.77.15,1.28-.53,1.86-4.98,4.18-9.9,8.42-14.85,12.64-.28.24-.54.49-.83.71-.35.26-.33.49-.03.78.84.82,1.67,1.66,2.49,2.51.31.32.58.41.91.06.17-.18.37-.32.55-.48,4.9-4.21,9.8-8.42,14.7-12.62.39-.34.74-.75,1.3-.96.78.81,1.68,1.52,2.3,2.49,1.75,2.75.41,6.01-2.76,6.74-1.67.38-3.12-.14-4.49-1.03-.38-.25-.7-.69-1.28-.3-.43.29-.87.46-1.07,1.06-1.23,3.82-2.52,7.62-3.79,11.43-.1.31-.21.62.01.93,1.16,1.65,2.33,3.3,3.66,5.19ZM18.38,109.95c-.01,7.51,3.83,12.34,10.16,13.73,6.47,1.42,12.43-1.95,14.55-8.23.42-1.24.64-2.51.76-3.81.69-7.1-3.56-13.01-10.5-14.56-5.34-1.19-10.11.92-12.81,5.69-1.43,2.52-2.12,5.25-2.16,7.19ZM232.6,113.56c.04-1.55-.13-3.09-.58-4.57-1.34-4.39-3.98-7.58-8.48-8.98-1.89-.59-3.84-.67-5.79-.35-5.04.83-8.54,3.55-10.16,8.48-.68,2.08-.74,4.22-.41,6.38,1.2,7.96,7.27,12.27,14.03,11.95,5.27-.25,9.32-3.35,10.8-8.34.44-1.49.64-3.02.6-4.57ZM74.58,59.32c.71-.34,1.24-.83,1.82-1.26.98-.72.89-.55.28-1.47-2.82-4.27-5.64-8.54-8.46-12.81-.19-.28-.45-.54-.49-1.01.3.08.53.13.75.2,6.75,2.2,13.5,4.39,20.23,6.63,1.03.34,1.87.33,2.77-.45-3.96-7.28-7.93-14.58-11.91-21.9-1.63.67-3.08,1.48-4.56,2.22-.27.14-.41.31-.35.67.15.86.29,1,1.17.97.28,0,.58,0,.85-.05.71-.17,1.09.12,1.43.76,1.84,3.44,3.73,6.84,5.59,10.27.12.22.38.43.2.76-.52.05-.95-.2-1.4-.34-5.99-1.9-11.98-3.81-17.96-5.75-.73-.24-1.29-.18-1.88.31-.81.67-1.66,1.31-2.55,1.88-.63.4-.57.87-.42,1.46.17.66.65.46,1.07.45.24,0,.5.01.73-.06.81-.26,1.23.1,1.65.78,3.35,5.28,6.75,10.53,10.14,15.79.42.65.84,1.29,1.28,1.96ZM153.71,46.05c.6-.03,1.53-.08,2.47-.11.57-.02.86-.31.98-.87.18-.83.42-1.65.64-2.47.52-1.96,1.04-3.92,1.54-5.89.1-.37.3-.79-.34-.95-2.4-.61-4.79-1.25-7.18-1.89-.75-.2-.7.5-.97.83-.3.37-.17.63.21.88.84.56,1.65,1.19,2.51,1.73.52.32.59.67.43,1.21-.32,1.09-.64,2.18-.87,3.29-.13.6-.44.76-.98.85-1.55.25-3.09.23-4.6-.12-3.87-.89-6.62-3.1-7.58-7.06-.81-3.34,0-6.47,1.96-9.25,1.57-2.23,3.81-3.36,6.54-3.45,3.48-.12,6.39,1.27,8.99,3.45.3.26.42.55.45.94.05.81.18,1.62.21,2.43.02.65.52.63.92.76.49.16.64-.18.78-.53.65-1.57,1.29-3.15,1.97-4.72.22-.5.19-.78-.34-1.07-1.21-.66-2.42-1.33-3.69-1.87-3.81-1.63-7.74-2.72-11.95-2.3-3.93.39-6.99,2.21-9.05,5.63-.99,1.66-1.62,3.46-1.95,5.35-.67,3.9.22,7.34,3.16,10.12,1.4,1.33,3.04,2.31,4.82,3.03,3.39,1.39,6.94,1.96,10.92,2.03ZM158.53,48.96c.95.45,1.74.77,2.47,1.18.56.31.94.2,1.4-.2,1.2-1.03,2.47-1.98,3.67-3.02.47-.41.83-.47,1.37-.13,2.45,1.52,4.91,3.02,7.4,4.48.56.33.69.69.6,1.28-.19,1.37-.22,2.77-.55,4.1-.32,1.32.08,2.09,1.17,2.8,1.15.75,2.16,1.72,3.23,2.59.21.17.38.43.73.23.82-.46.98-1.03.47-1.81-.16-.24-.3-.49-.48-.7-.34-.41-.38-.83-.31-1.36,1.05-7.6,2.02-15.22,3.15-22.81.22-1.46-.06-2.24-1.38-2.83-1.04-.47-1-.57-1.89.11-6.07,4.63-12.14,9.27-18.22,13.9-.9.69-1.8,1.38-2.85,2.19ZM55.11,80.87c.46-.7.88-1.44,1.39-2.1.38-.49.38-.88.09-1.41-.82-1.49-1.56-3.03-2.39-4.52-.33-.59-.3-.97.17-1.48,1.9-2.06,3.77-4.15,5.6-6.26.47-.54.87-.69,1.56-.43,1.47.57,2.98,1.05,4.47,1.57.35.12.65.2.99-.12,1.41-1.35,2.84-2.67,4.29-3.98.32-.29.26-.51.07-.83-.46-.77-.48-.79-1.31-.41-.15.07-.3.13-.43.22-.88.6-1.74.56-2.74.21-6.89-2.4-13.8-4.74-20.7-7.1-1.8-.62-1.76-.58-3.09.86-.58.62-.56,1.09-.2,1.81,3.88,7.67,7.72,15.36,11.58,23.05.16.32.23.7.64.93ZM213.16,130.71c-.1-.14-.13-.23-.19-.26-.56-.33-1.12-.66-1.68-.98-.97-.56-1-.58-1.61.34-1.94,2.92-2.91,6.14-2.86,9.65.02,1.35.27,2.65.81,3.9,1.29,2.96,5.62,4.79,8.89,2.62.92-.61,1.76-1.32,2.48-2.15,1.2-1.38,2.36-2.79,3.54-4.18.58-.68,1.19-1.34,1.93-1.85,1.99-1.38,4.27-.41,4.67,1.99.23,1.39,0,2.74-.39,4.08-.18.61-.5.95-1.13,1.09-.99.21-1.95.55-2.95.74-.58.11-.69.44-.75.92-.06.56.35.55.69.64,1.52.42,3.06.79,4.56,1.28.7.23.93-.05,1.18-.59.62-1.33,1.08-2.72,1.37-4.15.5-2.5.61-5-.34-7.44-1.52-3.89-5.63-5.27-9.2-3.1-1.27.77-2.31,1.79-3.28,2.89-1.02,1.16-2.01,2.34-3.03,3.5-.59.67-1.24,1.27-2.01,1.76-1.53.98-3.35.11-3.96-1.31-.33-.77-.38-1.58-.27-2.39.26-1.83.83-3.56,1.95-5.05.49-.65,1.01-1.26,1.56-1.94ZM47.07,90.14c-6.67-3.26-13.32-6.5-20.01-9.77-.91,1.84-1.55,3.68-2.33,5.46-.32.71.05,1.01.48,1.41.52.5.78.01,1.12-.22.2-.14.4-.28.57-.45.52-.53,1.01-.56,1.7-.22,5.16,2.56,10.35,5.06,15.52,7.6,1.84.9,1.47.46,1.42,2.31,0,.2,0,.41-.03.61-.08.47.18.63.59.73.82.2.93.17,1.24-.65,1.61-4.21,3.33-8.37,5.6-12.28.27-.46.22-.78-.07-1.2-1.31-1.86-2.59-3.74-3.89-5.61-.11-.16-.2-.36-.45-.4-.35.11-.56.42-.85.63-.34.24-.48.51-.22.92.18.27.3.58.43.87,1.54,3.54,1.3,6.94-.82,10.27ZM130.29,221.98c.82-.45,1.51-.8,2.08-1.34,1.29-1.24,1.89-2.76,1.54-4.52-.37-1.84-1.64-2.94-3.38-3.5-.62-.2-1.26-.3-1.92-.3-2.36,0-4.71,0-7.07,0-.43,0-.79,0-.92.54-.12.51.08.79.52.91.72.2.85.69.85,1.38-.02,3.86,0,7.72,0,11.58,0,.45.03.9,0,1.34-.04.54.18.71.7.69.69-.03,1.38,0,2.07,0,.9,0,.91-.02.91-.96,0-4.02,0-8.04.01-12.07,0-1.47.02-1.49,1.5-1.33.2.02.4.06.6.1,1.32.29,2.1,1.23,2.16,2.58.07,1.69-.79,3.05-2.4,3.74-1.02.44-1.2.98-.6,1.95.79,1.28,1.6,2.54,2.41,3.81.41.65.72,1.46,1.3,1.89.66.49,1.56,0,2.36-.02.71,0,1.45.05,2.24-.28-1.68-2.08-3.3-4.1-4.97-6.18ZM80.14,218.45c.5.4,1.14.55,1.69.87.42.24.73.18,1.04-.22.47-.61,1.02-1.16,1.49-1.77.33-.44.67-.48,1.15-.29,1.58.63,3.16,1.25,4.76,1.84.45.17.64.4.65.88.01.85.11,1.7.1,2.55,0,.53.17.81.68.97,1.2.36,2.4.75,3.59,1.14.4.13.75.27,1.03-.25.26-.47-.08-.67-.32-.91-.41-.4-.74-.77-.77-1.43-.21-4.42-.46-8.84-.71-13.25-.12-2.15.31-1.55-1.67-2.38-1.28-.54-1.01-.47-1.82.4-3.44,3.68-6.86,7.36-10.29,11.05-.21.23-.5.41-.59.8ZM54.62,201.13c.33-.36.6-.65.87-.95,2.5-2.78,4.99-5.57,7.49-8.33.42-.47.79-1.34,1.37-1.23.65.12,1.15.85,1.58,1.45.86,1.2.74,2.48-.31,3.51-1.3,1.29-2.84,1.49-4.44.6-.17-.1-.3-.28-.57-.18-.08.11-.18.23-.28.36-.07.1-.14.2-.21.3-.19.28-.16.51.09.75,1.64,1.59,3.49,2.66,5.89,2.27,2.54-.41,5.36-3.19,3.25-6.82-.45-.78-1.06-1.43-1.72-2.04-1.68-1.59-3.37-3.18-5.03-4.78-.32-.3-.54-.54-1.01-.21-.43.3-.49.62-.24,1.01.4.63.19,1.08-.28,1.59-2.54,2.79-5.05,5.62-7.57,8.43-.41.45-.8.92-1.22,1.36-.25.26-.26.46,0,.71.77.72,1.52,1.45,2.32,2.21ZM190.25,202.13c.36.62.68,1.13.96,1.67.2.37.46.4.8.23,2.51-1.18,4.59-2.8,5.48-5.55,1.07-3.29-1.45-6.22-4.89-5.76-1.3.18-2.5.7-3.71,1.14-.73.27-1.46.52-2.24.54-1.82.04-2.74-1.5-1.86-3.07.16-.28.36-.54.57-.78.82-.94.89-.95,2.05-.49.3.12.61.22.91.35.71.29.76-.4,1.07-.71.31-.31.18-.55-.11-.81-.63-.57-1.26-1.15-1.85-1.77-.32-.34-.6-.3-.95-.09-1.85,1.12-3.33,2.59-4.18,4.62-.34.83-.55,1.7-.41,2.62.37,2.35,2.63,4.06,5.02,3.81,1.43-.15,2.75-.7,4.09-1.14.77-.26,1.54-.53,2.38-.44,1.59.16,2.22,1.49,1.32,2.79-.62.89-1.47,1.52-2.43,1.98-.62.3-1.26.53-2.05.86ZM160.93,204.76c-.13.05-.25.09-.36.14-1.16.48-2.31.99-3.48,1.44-.47.18-.44.49-.4.87.04.42.28.59.65.53.94-.16,1.25.42,1.56,1.15,1.39,3.24,2.81,6.47,4.25,9.7.37.84.6,1.76,1.23,2.47.9-.37,1.79-.76,2.69-1.1.48-.18.61-.38.38-.89-2.04-4.6-4.06-9.21-6.08-13.81-.05-.11-.08-.24-.15-.33-.07-.08-.19-.13-.29-.19Z" fill="#064930"/>
  <path d="M126.26,102.36c1.09-.84,2.2-1.66,3.27-2.52,12.46-9.92,24.92-19.84,37.38-29.76,1.32-1.05.92-1.06,2.17-.05,13.83,11.24,22.55,25.58,25.56,43.16,5.8,33.84-13.32,66.65-45.44,78.31-8.38,3.04-17.03,4.45-25.93,4.19-13.74-.41-26.32-4.47-37.72-12.17-.4-.27-.87-.47-1.08-.94.49-.03.76-.43,1.1-.7,10.76-8.54,21.51-17.09,32.26-25.63.31-.24.57-.57,1.03-.68.29.32.59.64.89.97,3.49,3.86,7.71,6.55,12.69,8.07,5.59,1.71,11.29,1.76,17.02,1.07,5.26-.63,10.35-2.02,15.33-3.79,1.28-.46,1.08-.39,1.08-1.53,0-8.05,0-16.1,0-24.14,0-1.32.15-1.3-1.34-1.3-6.71,0-13.41,0-20.12,0-.24,0-.49,0-.73,0-.37,0-.6.12-.66.54-.21,1.49-.44,2.97-.67,4.46-.04.28.03.47.32.55.23.06.47.14.7.21,2.96.87,5.92,1.73,8.88,2.6.96.28.97.29.97,1.2,0,3.41-.02,6.83.02,10.24,0,.69-.19.98-.89,1.15-3.39.79-6.81,1.18-10.27.62-5.58-.92-9.89-3.72-12.67-8.72-.97-1.75-1.61-3.63-2.04-5.59-.26-1.16-.05-1.03-1.22-1.03-4.15,0-8.29,0-12.44-.02-.61,0-1.08.18-1.55.55-9,7.16-18,14.32-27.02,21.45-.55.44-.7.9-.69,1.55.02,5.73,0,11.46.01,17.19,0,.24.03.49.04.73-.45-.01-.73-.33-1.05-.57-5.23-3.86-9.87-8.33-13.87-13.46-.1-.13-.19-.26-.3-.38-.35-.37-.2-.61.15-.88,1.63-1.28,3.25-2.57,4.87-3.86,11.64-9.25,23.28-18.51,34.93-27.76.13-.1.24-.22.38-.3.43-.26.47-.57.22-1-.47-.81-.89-1.64-1.32-2.47-3.13-5.92-6.26-11.85-9.42-17.76-.39-.73-.55-1.38-.27-2.19.28-.8.25-1.79.72-2.42.46-.62,1.5-.42,2.28-.63,2.25-.6,4.42-1.38,6.29-2.82,3.08-2.37,4.54-5.47,3.96-9.37-.36-2.38-1.71-4.18-3.65-5.55-1.7-1.2-3.63-1.81-5.68-2-2.31-.21-4.63-.06-6.95-.11-.65-.01-.86.26-.81.87.04.48,0,.97,0,1.46,0,11.79-.01,23.57.02,35.36,0,.86-.26,1.4-.93,1.93-8.06,6.38-16.09,12.8-24.16,19.17-.74.59-1.03,1.19-1.03,2.13.04,5.49.02,10.97.02,16.46,0,.27.07.56-.17,1-5.52-7.35-9.45-15.36-11.73-24.16-3.91-15.1-3.11-29.98,2.76-44.46,12.26-30.27,41.65-45.36,67.71-44.04-.12.45-.52.61-.81.84-9.66,7.69-19.33,15.38-29,23.08-.35.28-.74.5-1,.88-.22.07-.48.19-.43.41.04.19.31.11.49.06,3.25.02,6.5.05,9.75.05,1.95,0,3.89.13,5.82.49,1.32.25,2.63.56,3.82,1.19.82.44,1.37.28,2.05-.28,2-1.66,4.05-3.25,6.09-4.87,7.37-5.87,14.76-11.71,22.1-17.62.78-.63,1.42-.71,2.3-.36,1.85.73,3.72,1.4,5.56,2.28-.19.45-.6.65-.93.91-9.88,7.87-19.77,15.73-29.65,23.59-.1.08-.19.15-.29.23q-1.01.81-.28,1.85c2.75,3.92,3.55,8.29,3.02,12.98-.07.6-.19,1.2-.28,1.8-.07.14-.15.35.03.39.18.04.34-.14.43-.33ZM126.07,137.26c.26-.27.15-.56.15-.82.04-2.4.25-4.79.72-7.14.76-3.87,2.07-7.52,4.48-10.69,3.32-4.39,7.74-6.66,13.27-6.79,3.51-.08,6.84.7,10.09,1.94.72.28,1.09.65,1.27,1.42.72,2.96,1.54,5.89,2.28,8.84.15.58.37.81.97.79,1.1-.04,2.19,0,3.29-.01.85-.01.85-.02.93-.87.47-4.85.95-9.7,1.42-14.55.21-2.23.22-2.25-1.82-3.06-8.91-3.57-18.05-4.66-27.44-2.24-7.94,2.04-14.31,6.39-18.89,13.27-.48.72-.56,1.27-.13,2.07,2.98,5.63,5.9,11.3,8.84,16.96.16.31.26.66.57.9Z" fill="#d35321"/>
  <path d="M111.82,33.14c0,3.78-2.26,7.01-6.1,8.44-1.25.46-2.55.82-3.83,1.2-.79.24-.81.22-1.07-.61-1.05-3.45-2.1-6.91-3.15-10.36-.68-2.25-1.36-4.5-2.03-6.76-.25-.82-.24-.85.55-1.09,1.63-.5,3.24-1.07,4.94-1.27,4.19-.5,7.6,1.06,9.45,5.06.76,1.64,1.27,3.34,1.24,5.4Z" fill="#074931"/>
  <path d="M31.98,119.18c-2.18-.04-4.27-.46-6.25-1.39-3.38-1.59-4.87-4.45-4.57-7.74.37-4.02,2.65-6.88,6.21-7.69,3.65-.82,7.14-.18,10.29,1.81,2.94,1.86,3.89,4.69,3.35,8.03-.56,3.48-2.91,5.94-6.24,6.7-.92.21-1.84.33-2.78.27Z" fill="#074931"/>
  <path d="M220.86,104.3c1.14-.06,2.26.09,3.36.41,3.07.92,4.85,3.01,5.38,6.12.9,5.26-2.09,9.28-7.57,10.25-2.09.37-4.19.43-6.27-.14-3.32-.91-5.26-3.1-5.79-6.47-.51-3.26.45-6.02,3.18-8.03,1.93-1.42,4.16-1.95,6.49-2.14.4-.03.81,0,1.22,0Z" fill="#074931"/>
  <path d="M177.67,38.26c-.57,3.46-1.13,6.91-1.72,10.51-2.33-1.41-4.53-2.73-6.85-4.14,2.87-2.23,5.63-4.37,8.39-6.52.06.05.12.1.19.14Z" fill="#0c4d34"/>
  <path d="M52.5,69.4c-1.68-3.28-3.25-6.36-4.98-9.72,3.56,1.29,6.85,2.48,10.33,3.73-1.79,2-3.5,3.91-5.35,5.99Z" fill="#0c4d34"/>
  <path d="M90.75,210.08c-.08,2.22.09,4.43.07,6.76-1.57-.38-2.96-1.07-4.51-1.63,1.42-1.81,3.03-3.35,4.44-5.12Z" fill="#0c4d34"/>
</svg>