<?xml version="1.0" encoding="UTF-8"?>
<svg id="Layer_1" xmlns="http://www.w3.org/2000/svg" viewBox="0 0 24 24">
  <path d="M17.89,8.06c-1.47,1.73-3.29,2.9-5.29,3.83-1.54.72-3.13,1.15-4.84,1-1.14-.1-1.71-.9-1.23-1.9,2.06-4.36,7.36-5.96,11.37-2.93Z" fill="currentColor"/>
  <path d="M14.07,12.47c.33,1.4,1.38,1.86,2.56,2.07,1.83.33,3.65.09,5.46-.26.63-.12,1.25-.26,1.91-.31-.21.12-.42.25-.64.37-3.74,2.04-7.69,3.24-12,2.96-1.31-.08-2.58-.35-3.67-1.15-.81-.6-1.26-1.4-1.26-2.47,2.82,1.15,5.28.33,7.64-1.21Z" fill="currentColor"/>
  <path d="M9.49,6.43c-.65.36-1.32.69-1.95,1.09-1.21.76-2.21,1.75-2.91,3.01-1.26,2.27-.68,4.83,1.46,6.3.4.28.85.5,1.26.83-.67-.12-1.34-.21-1.99-.37-1.49-.36-2.91-.88-4.05-1.96-1.43-1.35-2-3.79-.03-5.64,1.53-1.44,3.42-2.17,5.39-2.71.93-.25,1.88-.42,2.82-.63l.02.08Z" fill="currentColor"/>
</svg>