<?xml version="1.0" encoding="UTF-8"?>
<svg id="Layer_1" xmlns="http://www.w3.org/2000/svg" viewBox="0 0 250 250">
  <path d="M113.47,71.16c.59,2.71-1.55,3.11-3.28,3.8-9.5,3.79-17.39,10.02-22.14,18.81-6.43,11.9-6.43,23.73,7.62,34.61,1.5,1.16,3.08,2.22,4.63,3.32-.19.42-.39.84-.58,1.26-2.69-.51-5.43-.84-8.05-1.58-8.77-2.45-17.35-5.32-23.94-12.1-8.42-8.67-8.34-21.11.56-29.29,8.91-8.19,20-12.34,31.38-15.72,4.29-1.27,8.72-2.09,13.08-3.12.24,0,.48,0,.72,0Z" fill="#d9251a"/>
  <path d="M162.71,80.85c-5.36,6.1-11.26,11.26-18.08,15.27-3.88,2.28-7.93,4.34-12.08,6.1-9.53,4.05-19.3,6.95-29.86,4.86-5.61-1.11-7.45-3.85-5.34-9.15,1.14-2.86,3.06-5.55,5.12-7.88,3.7-4.19,7.61-8.21,11.72-11.99,3.93-3.62,9.13-3.88,14.12-5.11,6.01-1.48,11.56-.63,17.24.28,6.24,1,11.81,3.77,17.16,7.63Z" fill="#d9251a"/>
  <path d="M96.19,112.06c3.99.69,7.01,1.3,10.05,1.71,2.84.38,5.78,1.08,8.55.73,9.36-1.2,18.05-4.44,26.04-10.18,1.87,9.81,9.67,10.79,16.94,11.85,5.71.83,11.59.95,17.36.71,4.32-.17,8.58-1.49,12.89-2.14,1.56-.24,3.18-.04,4.78-.04.06.43.12.85.19,1.28-2.13.86-4.23,1.81-6.39,2.57-9.31,3.29-18.47,7.19-28,9.61-14.08,3.58-28.49,4.61-42.96,1.87-6.63-1.25-12.04-4.57-16.13-9.78-1.47-1.87-1.9-4.54-3.33-8.2Z" fill="#d9251b"/>
  <path d="M55.86,178.84c-3.68-.24-7.48-.03-10.99-.92-1.95-.49-4.17-2.52-4.97-4.41-2.58-6.03.07-15.29,5.38-19.08,1.86-1.33,4.5-1.99,6.84-2.16,4.51-.33,9.08-.34,13.6-.04,7.56.49,9.96,3.45,9.63,9.94-.73,14.3-4.27,17.09-16.6,16.44-.95-.05-1.91,0-2.87,0,0,.08,0,.15-.01.23ZM56.42,171.76s0-.04,0-.06c1.67,0,3.34.1,5-.02,3.19-.24,4.11-2.78,4.39-5.24.27-2.4,1.67-6.18-1.56-6.89-4.11-.91-8.59-.35-12.88-.04-.88.06-1.96,1.72-2.4,2.86-2.73,6.96-1.03,9.39,6.38,9.39.36,0,.71,0,1.07,0Z"/>
  <path d="M229.32,178.58c-2.75,0-5.5.13-8.24-.02-7.36-.41-8.23-5.17-8.41-10.74-.04-1.13.44-2.26.57-3.41.9-8.09,5.36-12.18,13.42-12.22,3.94-.02,7.89-.15,11.82.03,8.19.37,11.2,3.8,10.39,11.62-.11,1.07-.18,2.14-.27,3.2-.71,7.96-4.55,11.52-12.48,11.56-2.27.01-4.54,0-6.81,0,0,0,0-.02,0-.03ZM224.78,171.85c3.14.02,6.29.04,9.43.05,4.39-1.03,6.32-4.26,5.61-9.58-.54-4.09-3.71-3.66-6.58-3.68-1.91-.01-3.83,0-5.74.02-3.88.04-5.22,3.22-5.59,5.92-.33,2.43-1.5,6.24,2.86,7.27Z"/>
  <path d="M35.04,157.19c.23,2.56-1.69,2.14-3.13,2.15-5.74.05-11.48,0-17.22.04-1.25,0-2.49.26-4.39.48,1.29,1.51.76,3.08,3.57,2.63,4.53-.72,9.3-.39,13.91.09,3.08.32,5.82,2.04,5.98,5.72.2,4.74-1.71,7.71-5.55,9.01-.78.26-1.61.36-2.42.53-1.37-.19-2.75-.54-4.12-.55-6.38-.06-12.76-.03-19.3-.03-.13-1.73-.22-3.01-.32-4.29,6.61,0,13.22,0,19.83-.05.14,0,.27-.68.41-1.05,1.4-.6,2.8-1.19,4.2-1.79-1.54-.48-3.05-1.27-4.62-1.38-4.51-.32-9.07-.06-13.54-.61-4.18-.51-6.25-3.13-6.13-6.59.13-3.77,2.46-6.44,6.23-7.3,1.06-.24,2.05-.8,3.07-1.21,1.37.2,2.74.57,4.11.58,5.92.07,11.84.03,17.1.03,1.04,1.59,1.69,2.58,2.33,3.56Z"/>
  <path d="M163.72,153.08c5.77,2.77,6.27,3.79,5.34,9.46-.66,4.04-1.56,8.04-2.2,12.09-.15.95.31,1.99.59,3.51-2.7,0-5.21.24-7.61-.15-.73-.12-1.73-2.03-1.64-3.04.35-4.02.99-8.03,1.69-12.01.35-1.97-.11-3.04-2.21-3.05-3.59-.02-7.18-.13-10.75.08-.68.04-1.67,1.3-1.84,2.14-1,4.71-1.48,9.54-2.76,14.16-1,3.62-4.46,1.46-6.78,1.74-.52.07-1.95-1.93-1.85-2.85.64-6.02,1.6-12.01,2.45-18.01.92-4.36,4.33-3.54,7.36-3.53,3.57.02,7.15.07,10.72-.02,3.17-.08,6.34-.35,9.5-.53Z"/>
  <path d="M180.31,177.9c-4.15-.51-6.15-3.03-6.8-7-1.41-8.64,2.58-16.08,9.69-17.88,1.14.2,2.28.57,3.42.58,7.42.05,14.83.01,22.25,0-.07.26-.13.53-.2.79-.92,4.29-4.3,3.52-7.3,3.52-4.02,0-8.04-.06-12.06.04-1.09.03-2.17.51-3.25.78-3.75,3.08-4.84,9.42-2.2,12.76,1.1.26,2.2.72,3.31.73,4.87.08,9.75.23,14.61-.05,2.49-.14,3.63.82,4.28,2.93-.13.75-.25,1.49-.38,2.24-6.74-.02-13.48-.09-20.22-.04-1.72.01-3.43.38-5.15.59Z"/>
  <path d="M86.21,177.83c-4.97-1.47-6.52-3.54-6.02-8.51.54-5.31,1.25-10.61,1.92-16.18h9.45c-.11,2.14-.16,4.48-.37,6.81-.2,2.25-.55,4.49-.83,6.73-.46,3.63.15,4.4,3.95,4.44,6.32.07,12.64.02,19.5.02-.35,2.26-.66,4.18-.96,6.11-.28.27-.56.54-.84.81-7.41,0-14.82,0-22.24,0-1.19-.07-2.38-.15-3.57-.22Z"/>
  <path d="M128.36,178.15c-1.87,0-3.53,0-5.19,0-4.96,0-5.24-.22-4.64-4.97.82-6.49,1.8-12.96,2.72-19.56h10.17c-1.01,8.1-2.01,16.08-3.07,24.53Z"/>
  <path d="M22.28,171.9c-.14.36-.27,1.05-.41,1.05-6.61.05-13.22.05-19.83.05-.16.01-.31.01-.47,0,.68-.41,1.36-1.17,2.04-1.18,6.22-.05,12.44.04,18.66.08Z"/>
  <path d="M35.04,157.19c-.65-.98-1.29-1.97-2.33-3.56-5.26,0-11.18.04-17.1-.03-1.37-.02-2.74-.38-4.11-.58h23.92c-.13,1.42-.25,2.8-.38,4.17Z"/>
  <path d="M163.72,153.08c-3.17.18-6.33.45-9.5.53-3.57.09-7.15.03-10.72.02-3.03-.01-6.43-.83-7.36,3.53.13-1.4.27-2.8.39-4.07h27.2Z"/>
  <path d="M1.58,172.99c.16.01.31,0,.47,0,.09,1.28.19,2.55.32,4.29,6.55,0,12.93-.03,19.3.03,1.38.01,2.75.36,4.12.55-8.21,0-16.41,0-24.79,0,.19-1.63.39-3.25.58-4.86Z"/>
  <path d="M208.86,153.61c-7.42,0-14.84.04-22.25,0-1.14,0-2.28-.38-3.42-.58,8.29-.09,16.59-.2,24.88-.25.26,0,.53.54.79.83Z"/>
  <path d="M186.06,158.74c1.08-.27,2.16-.75,3.25-.78,4.02-.09,8.04-.03,12.06-.04,3,0,6.38.77,7.3-3.52-.16,1.37-.33,2.74-.52,4.34h-22.09Z"/>
  <path d="M206.06,175.12c-.65-2.11-1.79-3.07-4.28-2.93-4.86.28-9.74.13-14.61.05-1.11-.02-2.21-.48-3.31-.73h22.51c-.12,1.35-.22,2.48-.32,3.61Z"/>
  <path d="M180.31,177.9c1.72-.21,3.43-.58,5.15-.59,6.74-.05,13.48.02,20.22.04-.48.24-.96.7-1.45.7-7.97-.02-15.95-.09-23.92-.15Z"/>
  <path d="M86.21,177.83c1.19.07,2.38.15,3.57.22-1.19-.07-2.38-.15-3.57-.22Z"/>
  <path d="M112.02,178.06c.28-.27.56-.54.84-.81-.28.27-.56.54-.84.81Z"/>
  <path d="M224.78,171.85c3.14.02,6.29.04,9.43.05-3.14-.02-6.29-.04-9.43-.05Z"/>
</svg>