<?xml version="1.0" encoding="UTF-8"?>
<svg id="Layer_1" xmlns="http://www.w3.org/2000/svg" viewBox="0 0 250 250">
  <path d="M17.06,133.36c-1.47-2.6-2.88-5-4.16-7.46-.24-.46-.14-1.3.12-1.78,1.99-3.66,4.06-7.27,6.11-10.9.34-.61.67-1.23,1.13-2.08-2.06,0-3.85,0-5.65,0-2.97,0-5.94-.03-8.91.02-.81.01-1.29-.21-1.69-.95-1.26-2.35-2.6-4.65-4-7.14h59.67c-.78,1.39-1.7,2.58-2.17,3.93-1.22,3.53-3.52,4.44-7.17,4.24-6.49-.35-13.02-.08-19.54-.12-.89,0-1.36.29-1.78,1.05-3.68,6.61-7.39,13.2-11.1,19.79-.23.41-.49.81-.85,1.41Z" fill="#283370"/>
  <path d="M195.83,118.01c2.57-1.09,5.18-1.93,8.06-1.57,6.18.76,9.66,5.8,8.13,11.86-1.73,6.82-9.34,11.73-16.24,10.37-1.42-.28-2.75-1.01-4.2-1.56-.12,1.19-1.05,1.22-2.11,1.16-1.14-.07-2.29-.01-3.59-.01.62-3.2,1.21-6.28,1.81-9.37,1.1-5.59,2.23-11.17,3.29-16.76.17-.91.48-1.31,1.47-1.25,1.38.09,2.76.02,4.33.02-.43,2.31-.84,4.49-1.25,6.68,0,.16-.02.32-.03.48.11-.02.22-.03.33-.05ZM207,126.5c0-2.51-1.44-4.37-3.88-5.02-4.33-1.15-9.44,2.33-9.94,6.77-.25,2.2.86,4.23,2.83,5.18,4.63,2.24,10.99-1.78,10.98-6.93Z" fill="#050505"/>
  <path d="M231.25,129.43c.44,4.93,5.65,5.93,11.21,2.23,1.09,1.01,2.2,2.03,3.3,3.06-3.62,4.08-10.96,5.46-15.66,3.01-3.39-1.77-5.13-5.44-4.47-9.61,1.28-8.17,10.22-13.9,18.8-10.96,5.33,1.83,6.37,7.36,5.05,11.61-.1.32-.87.62-1.33.63-5.07.04-10.15.03-15.23.03-.52,0-1.04,0-1.68,0ZM244.28,125.38c.03-1.59-.38-2.48-1.47-3.25-3.15-2.21-9.01-.42-10.52,3.25h11.99Z" fill="#060606"/>
  <path d="M90,129.43c.14,2.04,1.15,3.27,2.77,4.03,2.5,1.17,5.24.56,8.45-1.84,1.09,1.01,2.2,2.04,3.39,3.14-2.65,2.65-5.8,3.96-9.41,4.13-1.28.06-2.6-.03-3.85-.3-5.41-1.15-8.24-6.23-6.67-11.84,2.09-7.49,10.53-12.11,17.97-9.83,5.65,1.73,6.99,7.35,5.62,11.81-.1.33-.85.66-1.3.66-5.08.05-10.16.03-15.23.03h-1.73ZM103.09,125.36c.05-1.52-.32-2.46-1.37-3.15-3.67-2.43-9.39-.22-10.59,3.15h11.96Z" fill="#060606"/>
  <path d="M52.09,116.51c-1.52,2.69-2.87,5.16-4.31,7.58-.2.33-.85.55-1.3.56-2.59.05-5.18.08-7.76,0-1.05-.03-1.62.31-2.13,1.23-3.56,6.4-7.18,12.77-10.78,19.15-.32.57-.65,1.12-1.11,1.9-1.53-2.72-2.95-5.2-4.3-7.72-.17-.32-.05-.94.15-1.3,3.85-6.9,7.72-13.79,11.62-20.66.19-.34.71-.71,1.08-.71,6.18-.04,12.35-.03,18.84-.03Z" fill="#e3062e"/>
  <path d="M152.34,138.29h-5.58c.46-2.38.9-4.66,1.34-6.94.37-1.97.83-3.93,1.07-5.92.33-2.73-1.03-4.17-3.77-4.19-3.16-.03-5.37,1.75-6.06,5.02-.83,3.92-1.59,7.86-2.4,11.89h-5.55c1.39-7.02,2.76-13.99,4.13-20.92,3.36-.52,5-.29,5.29.85,2.69-1.69,5.63-1.97,8.68-1.58,3.61.46,5.8,2.65,5.52,6.26-.28,3.61-1.12,7.17-1.75,10.75-.28,1.59-.62,3.18-.94,4.78Z" fill="#060606"/>
  <path d="M77.93,138.3h-5.52c1.48-7.57,2.95-15.05,4.44-22.67h-10.07c.31-1.63.59-3.11.89-4.65h27.59c-.86,1.51-1.6,2.94-2.47,4.28-.18.28-.84.34-1.28.35-2.59.03-5.17.07-7.76-.01-1.03-.03-1.38.3-1.58,1.3-1.32,6.91-2.7,13.8-4.07,20.7-.04.22-.12.44-.18.7Z" fill="#0a0a0a"/>
  <path d="M132.5,120.91c-1.37.93-2.74,1.86-4.19,2.84-1.93-2.67-4.55-3.07-7.42-2.14-3.04,1-4.77,3.27-5.35,6.38-.68,3.62,2.09,6.52,5.91,5.94,1.82-.28,3.53-1.22,5.66-1.99.72.66,1.83,1.68,2.94,2.7-3.54,4.38-11.74,5.71-16.3,2.62-3.38-2.3-4.44-5.59-3.75-9.54,1.31-7.47,10.03-12.99,17.22-10.91,2.29.67,4.1,2.05,5.28,4.09Z" fill="#060606"/>
  <path d="M174.18,122.02c-1.08,5.4-2.15,10.74-3.23,16.15h-5.54c.57-2.93,1.11-5.79,1.67-8.64.72-3.67,1.55-7.31,2.14-11,.77-4.86,3.36-7.93,10.6-7.5-.26,1.36-.44,2.72-.82,4.02-.09.3-.79.57-1.23.6-1.38.09-2.42.53-2.72,2.24h3.85c-.97,3.32-1.76,4-4.73,4.12Z" fill="#060606"/>
  <path d="M228.35,116.58c-.3,1.53-.6,3.06-.88,4.47-1.23.24-2.35.31-3.36.68-2.33.84-3.24,2.81-3.69,5.07-.76,3.79-1.52,7.57-2.29,11.4h-5.5c1.39-7.06,2.75-14.03,4.15-21.12,1.54,0,3.01-.05,4.48.04.31.02.58.52.73.66,2.02-.56,4.04-1.11,6.07-1.67.1.16.2.32.3.48Z" fill="#050505"/>
  <path d="M159.85,118.01h5.6c-1.34,6.82-2.67,13.55-3.99,20.3h-5.6c1.34-6.82,2.66-13.55,3.99-20.3Z" fill="#070707"/>
  <path d="M181.91,138.31h-5.51c1.33-6.8,2.64-13.52,3.96-20.29h5.56c-1.34,6.78-2.68,13.54-4.01,20.29Z" fill="#070707"/>
  <path d="M186.43,115.58h-5.59c.28-1.45.53-2.83.83-4.2.04-.19.39-.45.6-.46,1.66-.04,3.31-.02,5.09-.02-.33,1.67-.63,3.16-.93,4.68Z" fill="#121212"/>
  <path d="M161.28,110.95h5.58c-.29,1.42-.51,2.77-.86,4.07-.07.26-.6.56-.93.57-1.47.06-2.95.03-4.7.03.3-1.58.59-3.06.9-4.68Z" fill="#111"/>
</svg>