<?xml version="1.0" encoding="UTF-8"?>
<svg id="Layer_1" xmlns="http://www.w3.org/2000/svg" xmlns:xlink="http://www.w3.org/1999/xlink" viewBox="0 0 24 24">
  <path d="M6.86,15.28c-.19-.32-.37-.63-.54-.94-.41-.7-.81-1.41-1.22-2.11-.06-.1-.07-.18,0-.28,1-1.73,1.99-3.46,2.98-5.18.03-.05.06-.11.1-.19-.09,0-.16,0-.22,0-1.98,0-3.96,0-5.94,0-.14,0-.21-.04-.28-.16-.54-.94-1.09-1.89-1.63-2.83-.03-.06-.07-.12-.11-.19h24c-.12.21-.24.41-.35.61-.46.81-.93,1.61-1.39,2.42-.07.12-.15.16-.28.16-3.28,0-6.55,0-9.83,0-.19,0-.29.06-.38.22-1.26,2.19-2.52,4.37-3.78,6.55-.35.6-.7,1.21-1.05,1.81-.02.04-.05.07-.08.12Z" fill="currentColor"/>
  <path d="M20.92,8.73c-.2.34-.38.66-.56.97-.4.69-.8,1.39-1.2,2.08-.06.1-.12.13-.23.13-1.24,0-2.47,0-3.71,0-.17,0-.27.04-.36.2-1.16,2.03-2.34,4.05-3.51,6.08-.44.76-.88,1.52-1.32,2.29-.02.04-.05.07-.08.13-.03-.04-.06-.07-.08-.11-.57-.99-1.14-1.98-1.72-2.97-.05-.08-.04-.14,0-.21,1.36-2.34,2.71-4.68,4.06-7.03.28-.49.56-.98.84-1.47.04-.08.1-.11.19-.11,2.51,0,5.03,0,7.54,0,.03,0,.07,0,.13.01Z" fill="currentColor"/>
</svg>