<?xml version="1.0" encoding="UTF-8"?>
<svg id="Layer_1" xmlns="http://www.w3.org/2000/svg" viewBox="0 0 24 24">
  <path d="M6.86,15.36c-.59-1.05-1.16-2.01-1.68-3-.1-.18-.06-.52.05-.72.8-1.47,1.63-2.92,2.46-4.38.14-.25.27-.49.45-.84-.83,0-1.55,0-2.27,0-1.19,0-2.39-.01-3.58,0-.33,0-.52-.08-.68-.38-.51-.94-1.05-1.87-1.61-2.87h24c-.32.56-.68,1.04-.87,1.58-.49,1.42-1.42,1.78-2.89,1.7-2.61-.14-5.24-.03-7.86-.05-.36,0-.55.12-.72.42-1.48,2.66-2.97,5.31-4.46,7.96-.09.17-.2.32-.34.57Z" fill="#283370"/>
  <path d="M20.95,8.59c-.61,1.08-1.15,2.08-1.73,3.05-.08.13-.34.22-.52.23-1.04.02-2.08.03-3.12,0-.42-.01-.65.13-.86.5-1.43,2.58-2.89,5.14-4.33,7.7-.13.23-.26.45-.45.76-.61-1.09-1.19-2.09-1.73-3.11-.07-.13-.02-.38.06-.52,1.55-2.78,3.1-5.55,4.67-8.31.08-.14.28-.29.43-.29,2.48-.02,4.97-.01,7.58-.01Z" fill="#e3062e"/>
</svg>