<?xml version="1.0" encoding="UTF-8"?>
<svg id="Layer_1" xmlns="http://www.w3.org/2000/svg" viewBox="0 0 250 250">
  <path d="M32.86,106.58h-6.4v-9.96h21.96v.82c0,13.47,0,26.93,0,40.4,0,.51.04,1.02.1,1.52.29,2.32,2.47,3.95,4.91,3.25,1.64-.47,2.85-1.49,3.82-2.83.89-1.23,1.45-2.63,1.98-4.03,1.48-3.95,2.03-8.04,1.87-12.25-.22-5.46-1.03-10.8-2.58-16.04-.08-.29-.19-.57-.3-.88h-5.39v-9.96h18.11c.17.45.35.92.52,1.39,1.02,2.91,1.67,5.91,2.18,8.94.85,4.98,1.29,10,1.49,15.04.1,2.59-.06,5.18-.32,7.76-.27,2.6-.73,5.17-1.44,7.69-1.05,3.74-2.58,7.27-4.86,10.45-1.56,2.19-3.48,4.03-5.74,5.47-2.25,1.43-4.75,2.12-7.38,2.39-1.85.19-3.7.16-5.54-.12-2.68-.4-4.99-1.61-7.05-3.33-1.12-.94-2.1-2.02-2.96-3.24-.12.12-.22.21-.3.32-2.39,3.12-5.58,4.99-9.35,5.94-2.6.66-5.22.6-7.85.22-2.33-.34-4.55-1.02-6.62-2.16-3.59-1.99-6.04-4.98-7.58-8.73-1.14-2.79-1.71-5.69-1.71-8.72.02-9.51,0-19.02,0-28.53,0-.23,0-.46,0-.79-.72,0-1.43,0-2.14-.01-.72,0-1.44,0-2.15,0s-1.42,0-2.17,0v-9.89c.56-.15,19.74-.21,22-.07,0,.26.02.52.02.79,0,13.17,0,26.33,0,39.5,0,.58.04,1.16.13,1.72.24,1.46,1.01,2.57,2.29,3.3,1.42.81,2.95,1.07,4.55.7,1.68-.39,2.81-1.44,3.44-3.04.3-.76.46-1.55.46-2.37,0-10.09,0-20.18,0-30.27,0-.09-.01-.18-.02-.37Z" fill="#ed1b3a"/>
  <path d="M78.05,123.33v-6.72h17.96v.84c0,7.54,0,15.09,0,22.63,0,.52.07,1.07.24,1.56.42,1.19,1.49,1.74,2.72,1.42,1.55-.4,2.87-1.19,3.85-2.45.99-1.28,1.89-2.63,2.54-4.12.51-1.16.77-2.36.77-3.63-.01-9.12-.01-18.23,0-27.35,0-3.96,1.81-6.94,5.08-9.08,1.75-1.15,3.72-1.74,5.78-2.02,2.7-.38,5.4-.36,8.05.38,2.31.64,4.4,1.69,6.08,3.43,1.63,1.69,2.57,3.72,2.96,6,.63,3.67.27,7.27-.79,10.83-.92,3.08-2.31,5.93-3.88,8.72-2.5,4.46-5.28,8.75-8.23,12.92-.78,1.1-1.25,2.31-1.14,3.7.13,1.73,1.32,2.93,3.06,2.98,1.81.05,3.4-.61,4.82-1.68,1.32-.99,2.37-2.27,3.36-3.59,1.44-1.94,2.56-4.05,3.44-6.31.82-2.11,1.6-4.24,2.14-6.44.66-2.68,1.1-5.39,1.17-8.15,0-.18.03-.36.04-.59h13.18c.05.33.12.69.16,1.05.2,1.59.75,3.06,1.6,4.4,1.1,1.74,2.28,3.43,3.41,5.15,1.16,1.76,2.35,3.49,3.43,5.29,1.55,2.58,2.49,5.38,2.57,8.4.09,3.28-.94,6.24-3.01,8.8-1.41,1.74-3.06,3.21-5.04,4.3-2.62,1.45-5.38,1.8-8.32,1.26-4.21-.77-7.63-2.94-10.69-5.8-.32-.3-.59-.65-.87-.99-.42-.49-.68-.56-1.27-.27-.22.11-.44.26-.61.44-1.7,1.69-3.56,3.16-5.62,4.39-2.73,1.62-5.67,2.48-8.83,2.49-2.05,0-4.05-.44-5.89-1.37-2.06-1.04-3.61-2.63-4.74-4.63-.24-.42-.39-.89-.55-1.34-.26-.71-.66-.83-1.24-.36-.12.1-.23.23-.34.35-1.68,1.9-3.6,3.53-5.67,4.98-1.84,1.28-3.91,1.98-6.12,2.26-2.23.29-4.42.05-6.57-.65-3.82-1.25-6.07-5.36-6.04-8.49.06-6.71.02-13.42.02-20.13,0-.16,0-.32,0-.49-.02-1.15-.58-1.86-1.71-2.11-.38-.09-.77-.12-1.23-.19ZM119.95,123.76c.38-.44.72-.76.96-1.14.49-.78.97-1.58,1.37-2.41,1.32-2.71,2.33-5.54,3.12-8.44.45-1.66.66-3.36.49-5.08-.1-1.06-.3-2.12-.92-3.02-.88-1.28-2.09-1.41-3.24-.39-.81.73-1.36,1.62-1.67,2.67-.34,1.14-.5,2.31-.5,3.49-.02,4.28,0,8.56,0,12.84,0,.28.03.56.09.82.04.18.16.35.31.65ZM143.04,131.02c-.51.52-.64.75-.89,1.37-1.05,2.56-2.11,5.12-3.17,7.68-.07.17-.11.35-.19.52-.3.64-.13,1.22.23,1.76.56.85,1.29,1.54,2.22,1.94,1.3.56,2.61.67,3.93-.05,1.37-.75,2.75-3.44,1.98-5.26-.16-.38-.29-.78-.48-1.15-1.07-2.1-2.15-4.19-3.23-6.28-.1-.19-.26-.35-.4-.53Z" fill="#ed1b3b"/>
  <path d="M250,148.66v6.49c-.24.01-.44.03-.64.03-3.77,0-7.55.02-11.32,0-2.07-.02-3.89-.73-5.38-2.19-1.24-1.22-1.82-2.76-2.03-4.46-.08-.62-.09-1.25-.09-1.87,0-4.74,0-9.49,0-14.23,0-.39-.02-.79-.12-1.17-.36-1.29-1.27-2.02-2.53-2.29-1.39-.3-2.72-.07-3.95.63-1.06.61-1.63,1.54-1.66,2.78,0,.28-.01.56-.01.83,0,7.03,0,14.07,0,21.1v.75c-.54.16-13.03.23-14.94.09,0-.26-.02-.52-.02-.79,0-7.33,0-14.67,0-22,0-.56-.06-1.11-.32-1.62-.41-.84-1.11-1.12-2.01-.85-.75.22-1.39.59-1.93,1.17-.44.48-.58,1.03-.47,1.66.83,4.61.03,8.97-2.02,13.13-1.32,2.67-3.39,4.66-5.84,6.27-2.77,1.82-5.81,2.94-9.1,3.29-2.75.29-5.44-.07-8.1-.78-2.41-.64-4.69-1.6-6.63-3.19-4.03-3.31-6.4-7.57-7.23-12.72-.49-3.07-.01-6.03.8-8.97.56-2.02,1.38-3.92,2.55-5.66,1.45-2.16,3.39-3.78,5.61-5.09,3.67-2.17,7.64-3.28,11.92-2.96,3.28.24,6.43,1.02,9.34,2.62,1.92,1.06,3.45,2.57,4.78,4.27.73.93.97.97,1.77.04,1.61-1.86,3.36-3.57,5.45-4.9,1.74-1.1,3.59-1.92,5.66-2.13,1.74-.18,3.42.07,4.99.87.49.25.93.6,1.34.97,1.27,1.13,2.36,2.41,3.17,3.91.42.77.99.85,1.61.22,1.25-1.27,2.56-2.48,4.03-3.5,2.48-1.72,5.22-2.68,8.23-2.73,1.94-.03,3.87.29,5.54,1.31,2.69,1.63,4.45,4,4.99,7.16.07.43.05.88.05,1.32,0,6.73,0,13.47.01,20.2,0,.54.09,1.11.27,1.62.31.89.99,1.37,1.96,1.38.74,0,1.47,0,2.27,0ZM187.89,135.48c-.05-.71-.11-1.68-.2-2.65-.15-1.47-.4-2.93-.84-4.34-.34-1.12-1.05-1.9-2.19-2.21-.49-.13-1-.23-1.5-.23-2.01-.03-3.24.86-3.76,2.79-.32,1.18-.54,2.39-.69,3.6-.15,1.19-.22,2.39-.23,3.59,0,.9.11,1.8.2,2.69.15,1.45.4,2.88.85,4.27.37,1.16,1.15,1.91,2.32,2.15.69.15,1.43.19,2.13.12.94-.09,1.81-.47,2.35-1.3.31-.48.52-1.03.67-1.58.61-2.17.81-4.4.9-6.91Z" fill="#ed1b3b"/>
  <path d="M87.92,101.08c2.55-.04,4.72.33,6.72,1.4,2.41,1.29,3.67,3.32,3.44,6.06-.21,2.55-1.52,4.48-3.82,5.66-1.97,1.01-4.1,1.25-6.27,1.06-1.46-.13-2.88-.44-4.21-1.08-.62-.3-1.23-.65-1.77-1.08-2.12-1.68-2.82-4.47-1.84-7.08.96-2.54,2.88-3.95,5.44-4.57.85-.21,1.73-.28,2.32-.37Z" fill="#ed1b3b"/>
</svg>