<?xml version="1.0" encoding="UTF-8"?>
<svg id="Layer_1" xmlns="http://www.w3.org/2000/svg" xmlns:xlink="http://www.w3.org/1999/xlink" viewBox="0 0 24 24">
  <g filter="url(#drop-shadow-1)">
    <path d="M3.18,5.68s.25.21.56.41c2.37,1.56,4.14,4.61,4.45,7.58l.09.97,1.24-2.16c.69-1.19,1.87-3.22,2.61-4.51l1.36-2.34h-5.16c-2.83,0-5.15.03-5.15.05Z" fill="currentColor"/>
    <path d="M13.76,5.67s.33.28.73.56c2.34,1.6,4.01,4.54,4.29,7.53l.08.91,2.51-4.34c1.39-2.4,2.57-4.42,2.62-4.53.09-.15-.81-.17-5.07-.17-2.83,0-5.16.03-5.16.04Z" fill="currentColor"/>
    <path d="M2.84,11.18c-.77.2-1.4.58-1.92,1.16-1.6,1.83-1.06,4.61,1.11,5.66,1.96.95,4.38-.04,5.06-2.09.28-.83.2-2.08-.19-2.82-.32-.64-1.2-1.46-1.81-1.72-.56-.22-1.73-.33-2.25-.2Z" fill="currentColor"/>
    <path d="M13.43,11.18c-1.79.46-2.96,2.08-2.81,3.85.12,1.32.85,2.42,2,2.98,1.96.95,4.38-.05,5.06-2.09.28-.83.2-2.08-.19-2.82-.32-.64-1.2-1.46-1.81-1.72-.56-.22-1.73-.33-2.25-.2Z" fill="currentColor"/>
  </g>
</svg>