<?xml version="1.0" encoding="UTF-8"?>
<svg id="Layer_1" xmlns="http://www.w3.org/2000/svg" viewBox="0 0 250 250">
  <path d="M187.87,124.91c-.01.22-.03.44-.03.67,0,6.99,0,13.97,0,20.96v.72h-.64c-1.98,0-3.95-.02-5.93.01-.49,0-.74-.12-.97-.59-3.65-7.63-7.33-15.25-11.01-22.86-.08-.16-.16-.32-.32-.63v24.04h-8.1c0-.22,0-.44,0-.65,0-7,0-14.01,0-21.01,0-.22-.02-.45-.02-.67,0-.22.02-.45.02-.67,0-6.91,0-13.82,0-20.73v-.73h.64c1.98,0,3.95.01,5.93-.01.45,0,.68.12.88.54,3.67,7.64,7.37,15.27,11.05,22.91.08.17.17.35.36.5v-23.9h8.11v.66c0,6.93,0,13.86,0,20.79,0,.22.02.44.03.67Z"/>
  <path d="M155.88,124.91c-.11,2.38-.18,4.76-.35,7.14-.23,3.16-.63,6.3-1.88,9.25-1.54,3.64-4.26,5.83-8.13,6.62-3.14.64-6.27.64-9.35-.26-3.95-1.15-6.37-3.89-7.72-7.68-.77-2.17-1.18-4.42-1.34-6.71-.19-2.79-.32-5.58-.47-8.36.15-2.71.27-5.43.47-8.13.21-2.79.71-5.53,1.88-8.11,1.58-3.46,4.21-5.66,7.93-6.52,3.27-.75,6.56-.68,9.79.2,4.11,1.12,6.53,3.94,7.71,7.93.69,2.35.97,4.77,1.11,7.21.15,2.47.24,4.94.35,7.42ZM147.42,124.9c-.14-3.25-.23-6.5-.45-9.75-.1-1.45-.56-2.86-1.55-3.99-1.58-1.8-3.64-1.96-5.8-1.55-2,.38-3.13,1.73-3.69,3.63-.45,1.54-.47,3.12-.52,4.7-.07,2.32-.15,4.65-.23,6.97.09,2.68.15,5.36.28,8.04.05,1.05.18,2.12.39,3.15.54,2.62,1.91,4.04,4.2,4.39.69.11,1.42.1,2.12.03,1.92-.18,3.32-1.15,4.07-2.95.24-.56.47-1.15.54-1.75.19-1.49.33-2.99.41-4.5.11-2.14.16-4.28.23-6.42Z"/>
  <path d="M215.82,124.89v4.01h-14.04v10.26h15.39v8.04h-23.53v-.63c0-7,0-14,0-21.01,0-.22-.02-.44-.03-.67.01-.22.03-.44.03-.67,0-6.91,0-13.82,0-20.73,0-.22,0-.44,0-.7h23.54v8h-15.36v10.05h14.01v4.04Z"/>
  <path d="M239.32,124.89c.08.22.14.45.24.66,3.4,7.05,6.8,14.1,10.2,21.14.08.16.14.33.24.55h-3.9c-1.51,0-3.02-.01-4.53,0-.39,0-.58-.12-.75-.48-1.91-4.01-3.84-8.01-5.77-12.01-.08-.16-.16-.33-.29-.57-.5,1.02-.96,1.96-1.42,2.9-1.57,3.23-3.14,6.45-4.69,9.69-.17.36-.37.47-.75.47-2.76-.02-5.52,0-8.35,0,.1-.24.18-.44.27-.63,3.4-7.05,6.8-14.09,10.2-21.14.09-.18.13-.38.2-.57-.74-1.56-1.46-3.13-2.21-4.68-2.7-5.61-5.4-11.22-8.1-16.83-.09-.18-.16-.36-.27-.62h.55c2.61,0,5.22,0,7.83,0,.39,0,.58.11.76.47,1.89,3.94,3.8,7.87,5.7,11.8.08.16.17.33.29.57.12-.23.21-.41.3-.58,1.88-3.92,3.77-7.84,5.64-11.77.17-.35.34-.49.75-.49,2.8.02,5.59.01,8.49.01-.11.25-.19.47-.29.67-3.36,6.97-6.72,13.93-10.07,20.9-.09.18-.17.37-.25.56Z"/>
  <path d="M117.48,124.9c-.6,1.3-1.21,2.59-1.8,3.89-.09.19-.08.43-.08.65,0,5.7,0,11.39,0,17.09,0,.22,0,.44,0,.69h-8.09v-.59c0-5.72,0-11.43,0-17.15,0-.3-.07-.63-.19-.91-.52-1.23-1.07-2.45-1.61-3.67-1.2-2.8-2.39-5.6-3.6-8.4-1.88-4.35-3.76-8.7-5.65-13.05-.09-.2-.17-.41-.28-.7.19,0,.33,0,.47,0,2.63,0,5.26.01,7.89-.01.39,0,.54.14.68.47,2.06,4.86,4.14,9.71,6.21,14.56.07.17.15.33.26.57,1.14-2.5,2.23-4.91,3.33-7.32,1.19-2.6,2.37-5.21,3.57-7.81.09-.19.34-.44.51-.44,2.8-.03,5.59-.02,8.47-.02-.11.26-.2.48-.3.69-3.2,7-6.4,13.99-9.61,20.99-.07.15-.12.31-.18.46Z"/>
  <path d="M20.89,124.91c2.32,1.86,3.93,4.18,4.71,7.07,2.1,7.8-3.42,15.63-11.49,16.29-8.1.66-14.82-6.1-14.04-14.15.35-3.66,1.99-6.66,4.85-8.99.09-.07.16-.15.24-.22,1.68-1.17,3.49-2.04,5.53-2.38,3.61-.61,6.91.12,9.92,2.21.09.06.19.12.28.18Z"/>
  <path d="M58.49,124.91c2.1,1.68,3.65,3.75,4.51,6.31,2.66,7.94-2.9,16.37-11.27,17.05-8.06.65-14.74-6-14.05-14.04.31-3.68,1.95-6.71,4.81-9.07.1-.08.19-.17.29-.26,1.51-1.05,3.12-1.87,4.93-2.26,3.78-.82,7.27-.13,10.46,2.06.11.07.22.14.33.21Z"/>
  <path d="M73,124.89c-1.45,2.49-2.9,4.97-4.35,7.46-.54.92-1.07,1.85-1.67,2.88-.08-1.28-.12-2.43-.23-3.57-.22-2.29-.6-4.56-1.33-6.76-.68-1.84-1.23-3.75-2.07-5.52-3.24-6.89-8.16-12.3-14.67-16.27-.11-.07-.22-.14-.33-.21-.03-.02-.04-.05-.08-.11h37.44c-.12.22-.22.41-.32.59-4.04,6.99-8.08,13.97-12.12,20.96-.1.18-.19.36-.28.54Z"/>
  <path d="M35.35,124.89c-1.88,3.23-3.75,6.46-5.63,9.69-.1.17-.21.34-.45.5,0-.21,0-.41,0-.62-.05-3.12-.51-6.18-1.34-9.19-.03-.12-.09-.24-.14-.36-.69-1.86-1.25-3.78-2.09-5.57-3.24-6.92-8.19-12.33-14.75-16.27-.11-.06-.21-.14-.39-.27h37.52c-.12.21-.22.4-.32.58-4.03,6.97-8.07,13.95-12.1,20.92-.11.19-.21.39-.32.59Z"/>
</svg>