<?xml version="1.0" encoding="UTF-8"?>
<svg id="Layer_1" xmlns="http://www.w3.org/2000/svg" viewBox="0 0 250 250">
  <path d="M.01,125c0-.26-.01-.53-.01-.79C0,113.59,0,102.97,0,92.36c0-.2,0-.39,0-.62h250c0,.15,0,.31,0,.47,0,10.88,0,21.76,0,32.64,0,.05-.01.1-.02.15-5.06,0-10.11,0-15.17,0-3.69,0-7.37,0-11.06,0,.07-.17.14-.33.22-.5,2.98-6.17,5.95-12.34,8.93-18.52.09-.18.16-.37.26-.59-2.57,0-5.04,0-7.52,0-.36,0-.51.12-.66.43-1.65,3.48-3.33,6.95-4.99,10.43-.08.16-.16.31-.27.52-.11-.21-.19-.36-.26-.5-1.69-3.48-3.38-6.97-5.05-10.46-.15-.32-.33-.42-.67-.42-2.31.01-4.63,0-6.94,0h-.49c.1.23.16.39.24.55,2.39,4.97,4.79,9.94,7.18,14.92.66,1.38,1.3,2.77,1.96,4.15-4.25,0-8.51,0-12.76,0v-3.58h-12.41v-8.9h13.61v-7.09h-20.86c0,.23,0,.43,0,.62,0,6.12,0,12.25,0,18.37,0,.2-.02.39-.03.59-1.69,0-3.39,0-5.08,0,0-.2-.03-.39-.03-.59,0-6.14,0-12.28,0-18.42v-.59h-7.18v21.18c-.17-.13-.24-.28-.32-.44-3.27-6.77-6.54-13.53-9.8-20.3-.18-.37-.38-.48-.78-.48-1.75.02-3.5,0-5.26,0h-.57v.65c0,6.12,0,12.25,0,18.37,0,.2-.01.4-.02.59-1.47,0-2.94,0-4.41.01-.1-2.19-.18-4.38-.31-6.57-.13-2.16-.37-4.3-.98-6.39-1.04-3.54-3.19-6.04-6.83-7.03-2.87-.78-5.77-.84-8.68-.18-3.29.76-5.63,2.71-7.02,5.77-1.04,2.28-1.48,4.71-1.67,7.18-.18,2.4-.28,4.81-.42,7.21-2.7,0-5.41,0-8.11,0,.05-.14.1-.28.16-.41,2.84-6.2,5.67-12.4,8.51-18.6.09-.19.17-.38.27-.61-2.55,0-5.02,0-7.5.02-.16,0-.38.22-.46.39-1.07,2.3-2.11,4.61-3.17,6.92-.97,2.14-1.95,4.28-2.95,6.49-.1-.21-.17-.36-.23-.5-1.84-4.3-3.68-8.6-5.51-12.9-.12-.29-.26-.42-.6-.42-2.33.02-4.66.01-6.99.01-.12,0-.24,0-.41,0,.1.26.17.44.25.62,1.67,3.85,3.34,7.71,5,11.56,1.07,2.48,2.13,4.96,3.19,7.44-2.06,0-4.13,0-6.19,0-7.6,0-15.19,0-22.79,0,.08-.16.16-.33.25-.48,3.58-6.19,7.16-12.39,10.74-18.58.09-.16.18-.33.29-.53h-33.18s.04.08.07.1c.1.06.19.13.29.19,5.77,3.52,10.13,8.31,13,14.42.74,1.57,1.23,3.26,1.83,4.89-2.05,0-4.1,0-6.15.01-.1-.06-.2-.12-.29-.18-2.83-1.94-5.92-2.55-9.27-1.82-1.6.35-3.03,1.08-4.37,2.01-2.19,0-4.38-.02-6.57-.02.09-.17.18-.35.28-.52,3.57-6.18,7.15-12.36,10.72-18.54.09-.16.18-.33.28-.51H21.04c.16.11.25.18.34.24,5.81,3.49,10.2,8.29,13.07,14.42.74,1.59,1.24,3.29,1.85,4.94-2.04,0-4.08,0-6.12,0-.08-.05-.17-.1-.25-.16-2.66-1.85-5.59-2.5-8.79-1.96-1.81.31-3.41,1.07-4.9,2.11-5.41,0-10.81,0-16.22,0Z" fill="#0b50a1"/>
  <path d="M.01,125c5.41,0,10.81,0,16.22,0-.07.07-.14.14-.22.2-2.53,2.07-3.98,4.72-4.3,7.97-.69,7.14,5.27,13.12,12.45,12.54,7.15-.58,12.04-7.52,10.18-14.44-.69-2.56-2.12-4.62-4.18-6.27,2.04,0,4.08,0,6.12,0,.04.11.09.21.12.32.74,2.66,1.15,5.38,1.19,8.14,0,.18,0,.37,0,.55.21-.14.31-.29.4-.44,1.66-2.86,3.33-5.72,4.99-8.58,2.19,0,4.38.02,6.57.02-.08.08-.17.16-.25.23-2.53,2.09-3.98,4.77-4.26,8.03-.61,7.13,5.31,13.02,12.45,12.44,7.41-.6,12.34-8.07,9.98-15.11-.76-2.27-2.14-4.1-3.99-5.6,2.05,0,4.1,0,6.15-.01.64,1.95.98,3.95,1.17,5.99.1,1.01.13,2.03.21,3.17.53-.91,1-1.73,1.48-2.55,1.28-2.2,2.57-4.4,3.85-6.61,7.6,0,15.19,0,22.79,0,2.06,0,4.13,0,6.19,0,.48,1.08.96,2.16,1.42,3.26.1.25.17.54.17.81,0,5.07,0,10.13,0,15.2v.52h7.17c0-.22,0-.41,0-.61,0-5.05,0-10.1,0-15.15,0-.19,0-.41.07-.58.52-1.15,1.06-2.3,1.6-3.45,2.7,0,5.41,0,8.11,0,.14,2.47.25,4.94.42,7.41.14,2.03.5,4.02,1.19,5.95,1.19,3.36,3.34,5.78,6.84,6.8,2.73.8,5.51.8,8.29.23,3.42-.7,5.84-2.64,7.2-5.86,1.11-2.62,1.46-5.4,1.66-8.2.15-2.11.21-4.22.31-6.33,1.47,0,2.94,0,4.41-.01,0,.2.02.4.02.59,0,6.21,0,12.41,0,18.62,0,.19,0,.38,0,.58h7.18v-21.31c.14.27.21.41.28.56,3.26,6.75,6.51,13.5,9.75,20.26.2.41.42.53.86.52,1.75-.03,3.5-.01,5.26-.01h.57v-.64c0-6.19,0-12.38,0-18.57,0-.2.02-.39.03-.59,1.69,0,3.39,0,5.08,0,0,.2.03.39.03.59,0,6.21,0,12.41,0,18.62v.56h20.86v-7.13h-13.64v-9.09h12.44v-3.56c4.25,0,8.51,0,12.76,0-.06.17-.1.34-.18.5-3.01,6.25-6.03,12.49-9.04,18.74-.08.17-.15.35-.24.56,2.51,0,4.95,0,7.4,0,.34,0,.52-.1.67-.42,1.37-2.87,2.77-5.72,4.16-8.58.41-.84.81-1.67,1.25-2.57.11.22.18.36.25.5,1.71,3.55,3.42,7.09,5.11,10.65.15.32.32.43.66.42,1.34-.02,2.68,0,4.02,0h3.46c-.08-.2-.14-.35-.21-.49-3.01-6.25-6.03-12.49-9.04-18.74-.09-.19-.14-.39-.21-.58,3.69,0,7.37,0,11.06,0,5.06,0,10.11,0,15.17,0,0,.15.01.3.01.45,0,10.76,0,21.53,0,32.29v.52H.03c0-.12-.03-.25-.03-.37,0-10.88,0-21.76,0-32.64,0-.08,0-.16.01-.25ZM238.76,145.02c2.23,0,4.06-1.82,4.08-4.05.02-2.21-1.84-4.08-4.05-4.08-2.23,0-4.06,1.83-4.07,4.06,0,2.25,1.8,4.07,4.04,4.08Z" fill="#1d9433"/>
  <path d="M178.16,125c0,.2-.03.39-.03.59,0,6.19,0,12.38,0,18.57v.64h-.57c-1.75,0-3.5-.01-5.26.01-.44,0-.66-.11-.86-.52-3.24-6.76-6.5-13.51-9.75-20.26-.07-.14-.14-.29-.28-.56v21.31h-7.18c0-.2,0-.39,0-.58,0-6.21,0-12.41,0-18.62,0-.2-.01-.4-.02-.59,0-.2.02-.4.02-.59,0-6.12,0-12.25,0-18.37v-.65h.57c1.75,0,3.5.01,5.26,0,.4,0,.6.1.78.48,3.25,6.77,6.53,13.54,9.8,20.3.07.15.15.31.32.44v-21.18h7.18v.59c0,6.14,0,12.28,0,18.42,0,.2.02.39.03.59Z" fill="#fcfdfd"/>
  <path d="M149.81,125c-.1,2.11-.16,4.22-.31,6.33-.2,2.8-.55,5.58-1.66,8.2-1.36,3.23-3.78,5.17-7.2,5.86-2.78.56-5.56.56-8.29-.23-3.5-1.02-5.65-3.45-6.84-6.8-.68-1.92-1.05-3.92-1.19-5.95-.17-2.47-.28-4.94-.42-7.41.14-2.4.24-4.81.42-7.21.19-2.47.63-4.9,1.67-7.18,1.4-3.07,3.73-5.02,7.02-5.77,2.9-.67,5.81-.6,8.68.18,3.64.99,5.79,3.49,6.83,7.03.61,2.09.86,4.23.98,6.39.13,2.19.21,4.38.31,6.57ZM142.31,125c-.13-2.88-.21-5.76-.4-8.64-.09-1.29-.49-2.53-1.37-3.54-1.4-1.6-3.23-1.74-5.14-1.37-1.77.34-2.77,1.53-3.27,3.21-.4,1.36-.42,2.76-.46,4.16-.06,2.06-.14,4.12-.21,6.18.08,2.37.13,4.75.25,7.12.04.93.16,1.88.35,2.79.48,2.32,1.7,3.58,3.72,3.89.61.09,1.26.09,1.88.03,1.7-.16,2.94-1.02,3.61-2.61.21-.5.41-1.02.48-1.55.17-1.32.29-2.65.36-3.98.1-1.89.14-3.79.21-5.69Z" fill="#fcfefe"/>
  <path d="M202.93,124.99v3.56h-12.44v9.09h13.64v7.13h-20.86v-.56c0-6.21,0-12.41,0-18.62,0-.2-.02-.39-.03-.59,0-.2.03-.39.03-.59,0-6.12,0-12.25,0-18.37,0-.2,0-.39,0-.62h20.86v7.09h-13.61v8.9h12.41v3.58Z" fill="#fcfdfd"/>
  <path d="M223.76,124.99c.07.19.13.4.21.58,3.01,6.25,6.03,12.49,9.04,18.74.07.14.13.29.21.49h-3.46c-1.34,0-2.68-.01-4.02,0-.35,0-.51-.11-.66-.42-1.69-3.55-3.41-7.1-5.11-10.65-.07-.15-.15-.29-.25-.5-.44.9-.85,1.74-1.25,2.57-1.39,2.86-2.78,5.72-4.16,8.58-.15.32-.32.42-.67.42-2.45-.02-4.89,0-7.4,0,.09-.21.16-.39.24-.56,3.01-6.25,6.03-12.49,9.04-18.74.08-.16.12-.33.18-.5-.65-1.38-1.29-2.77-1.96-4.15-2.39-4.97-4.79-9.94-7.18-14.92-.08-.16-.14-.32-.24-.55h.49c2.31,0,4.63,0,6.94,0,.34,0,.52.09.67.42,1.67,3.49,3.37,6.97,5.05,10.46.07.15.15.29.26.5.11-.21.19-.36.27-.52,1.67-3.47,3.34-6.95,4.99-10.43.15-.31.3-.43.66-.43,2.48.02,4.96,0,7.52,0-.1.23-.17.41-.26.59-2.98,6.17-5.95,12.35-8.93,18.52-.08.16-.15.33-.22.5Z" fill="#fcfdfd"/>
  <path d="M115.78,125c-.53,1.15-1.08,2.29-1.6,3.45-.08.17-.07.38-.07.58,0,5.05,0,10.1,0,15.15,0,.19,0,.39,0,.61h-7.17v-.52c0-5.07,0-10.13,0-15.2,0-.27-.06-.56-.17-.81-.46-1.09-.95-2.17-1.42-3.26-1.06-2.48-2.12-4.96-3.19-7.44-1.66-3.86-3.34-7.71-5-11.56-.08-.18-.15-.36-.25-.62.17,0,.29,0,.41,0,2.33,0,4.66,0,6.99-.01.35,0,.48.12.6.42,1.83,4.3,3.67,8.6,5.51,12.9.06.15.13.29.23.5,1.01-2.21,1.98-4.35,2.95-6.49,1.05-2.31,2.1-4.62,3.17-6.92.08-.17.3-.39.46-.39,2.48-.02,4.96-.02,7.5-.02-.1.23-.18.42-.27.61-2.84,6.2-5.68,12.4-8.51,18.6-.06.13-.11.27-.16.41Z" fill="#fcfefe"/>
  <path d="M30.18,125.01c2.06,1.65,3.49,3.71,4.18,6.27,1.86,6.91-3.03,13.86-10.18,14.44-7.18.58-13.13-5.4-12.45-12.54.31-3.24,1.77-5.9,4.3-7.97.08-.06.14-.13.22-.2,1.49-1.04,3.1-1.81,4.9-2.11,3.2-.54,6.13.11,8.79,1.96.08.06.17.1.25.16Z" fill="#fdfefe"/>
  <path d="M63.5,125.01c1.86,1.49,3.23,3.32,3.99,5.6,2.36,7.04-2.57,14.51-9.98,15.11-7.14.58-13.06-5.31-12.45-12.44.28-3.27,1.73-5.95,4.26-8.03.09-.07.17-.15.25-.23,1.34-.93,2.76-1.66,4.37-2.01,3.35-.73,6.44-.12,9.27,1.82.09.06.19.12.29.18Z" fill="#fdfefe"/>
  <path d="M76.36,124.99c-1.28,2.2-2.57,4.4-3.85,6.61-.48.82-.95,1.64-1.48,2.55-.07-1.14-.11-2.16-.21-3.17-.2-2.03-.53-4.04-1.17-5.99-.6-1.63-1.09-3.32-1.83-4.89-2.87-6.11-7.23-10.9-13-14.42-.1-.06-.2-.12-.29-.19-.02-.02-.03-.05-.07-.1h33.18c-.11.2-.19.36-.29.53-3.58,6.19-7.16,12.38-10.74,18.58-.09.16-.16.32-.25.48Z" fill="#fcfdfe"/>
  <path d="M43,124.99c-1.66,2.86-3.33,5.72-4.99,8.58-.09.15-.18.3-.4.44,0-.18,0-.37,0-.55-.04-2.77-.45-5.48-1.19-8.14-.03-.11-.08-.21-.12-.32-.61-1.65-1.11-3.35-1.85-4.94-2.87-6.13-7.26-10.92-13.07-14.42-.09-.06-.18-.13-.34-.24h33.25c-.1.19-.19.35-.28.51-3.57,6.18-7.15,12.36-10.72,18.54-.1.17-.19.35-.28.52Z" fill="#fcfdfe"/>
  <path d="M238.76,145.02c-2.24,0-4.04-1.83-4.04-4.08,0-2.23,1.84-4.06,4.07-4.06,2.21,0,4.07,1.88,4.05,4.08-.02,2.24-1.85,4.06-4.08,4.05ZM238.79,144.62c2,0,3.65-1.66,3.65-3.67,0-1.99-1.67-3.66-3.66-3.67-2,0-3.66,1.65-3.66,3.65,0,2.04,1.63,3.69,3.67,3.68Z" fill="#f0f8f2"/>
  <path d="M142.31,125c-.07,1.9-.11,3.79-.21,5.69-.07,1.33-.19,2.66-.36,3.98-.07.53-.27,1.05-.48,1.55-.67,1.59-1.91,2.45-3.61,2.61-.62.06-1.26.06-1.88-.03-2.03-.31-3.24-1.57-3.72-3.89-.19-.92-.3-1.86-.35-2.79-.11-2.37-.17-4.75-.25-7.12,3.62,0,7.23,0,10.85,0Z" fill="#1e9534"/>
  <path d="M142.31,125c-3.62,0-7.23,0-10.85,0,.07-2.06.14-4.12.21-6.18.04-1.4.06-2.8.46-4.16.5-1.68,1.5-2.87,3.27-3.21,1.91-.36,3.74-.22,5.14,1.37.88,1.01,1.29,2.25,1.37,3.54.19,2.88.27,5.76.4,8.64Z" fill="#0c50a1"/>
  <path d="M238.79,144.62c-2.04,0-3.67-1.64-3.67-3.68,0-2,1.66-3.66,3.66-3.65,1.99,0,3.66,1.68,3.66,3.67,0,2-1.65,3.66-3.65,3.67ZM240.69,143.1c-.56-.68.06-1.62-.76-2.16.55-.38.63-.86.47-1.43-.14-.49-.51-.7-.96-.72-.74-.04-1.48,0-2.23,0v4.34c.19,0,.34-.02.55-.02v-1.86c.43,0,.81,0,1.19,0,.7,0,.86.17.89.88.01.32.05.65.07.98h.77Z" fill="#219637"/>
  <path d="M240.69,143.1h-.77c-.03-.34-.06-.66-.07-.98-.03-.71-.19-.87-.89-.88-.38,0-.76,0-1.19,0v1.86c-.21,0-.36.02-.55.02v-4.34c.75,0,1.49-.03,2.23,0,.45.02.82.23.96.72.16.56.08,1.04-.47,1.43.81.54.2,1.49.76,2.16ZM237.77,139.27v1.48c.49,0,.96.01,1.42,0,.49-.02.69-.24.71-.7.02-.48-.19-.74-.7-.77-.46-.03-.92,0-1.43,0Z" fill="#f8fcf9"/>
  <path d="M237.77,139.27c.51,0,.97-.02,1.43,0,.5.03.72.28.7.77-.02.46-.23.68-.71.7-.46.02-.92,0-1.42,0v-1.48Z" fill="#25983a"/>
</svg>