<?xml version="1.0" encoding="UTF-8"?>
<svg id="Layer_2" xmlns="http://www.w3.org/2000/svg" viewBox="0 0 298.09 538">
  <defs>
    <style>
      .cls-1 {
        fill: #fff;
      }
    </style>
  </defs>
  <g id="Layer_1-2" data-name="Layer_1">
    <g>
      <path class="cls-1" d="M145.72,527.13c8.2,14.1,32.6,14.6,41.4.8,4.7-7.3,5.1-16.7,10.3-23.6,6.8-9.1,19.4-11.3,30.8-12.8,9.3-1.2,18.5-2.4,27.8-3.7,6.8-.9,13.8-1.9,19.4-5.6,4.1-2.7,14.1-7.9,18.2-10.5,13-8.2-4.9-20.2-21.3-13.8-10.8,4.2-14.5,7.2-25.7,10.1-15.5,4-29.2,14.3-37.3,28"/>
      <path class="cls-1" d="M144.42.23S-38.58-13.37,7.42,166.63c0,0,22.2,65.9,71.9,126.7,0,0,41.4,64.7,42.7,67.9,0,0,8,8.5,4.5,62.8l-3.4,67s-9,27.2-1.1,30.3c0,0,12.4,5.2,22.5,5.2s22.5-5.2,22.5-5.2c7.9-3.1-1.1-30.3-1.1-30.3l-3.4-67c-2.1-55.9,4.5-62.8,4.5-62.8,2.2-5,42.7-67.9,42.7-67.9,50.3-60.5,71.9-126.7,71.9-126.7C327.42-13.37,144.42.23,144.42.23ZM56.52,107.43c4.7-4.9,13.3-4.9,18.2,0s4.9,13.5,0,18.2-13.6,4.6-18.3-.4c-4.5-4.7-4.5-13,.1-17.8ZM74.32,164.93c-5,4.8-12.8,4.8-17.7.1-4.8-4.7-4.8-13.4,0-18.3,5-5,13.1-4.9,18.1.3,5.2,5.2,5,12.9-.4,17.9ZM174.52,67.93c4.9-4.9,13.2-4.6,18.2.5s4.8,13.1-.4,18c-4.9,4.6-13,4.6-17.7-.1-4.7-4.7-4.8-13.7-.1-18.4ZM174.62,107.43c4.8-4.7,13-4.8,17.9-.2,5,4.7,5,13.3.1,18.3-5,4.9-12.6,4.9-17.6,0-5.3-5.2-5.4-13.1-.4-18.1ZM174.72,185.73c5.1-5.2,12.8-5.4,17.9-.4,4.9,4.8,4.9,13.3.1,18.2-4.7,4.7-12.9,4.8-17.7.2-5.3-4.9-5.4-12.8-.3-18ZM175.02,146.53c4.8-4.5,13.1-4.5,17.8.1,4.7,4.6,4.6,13.7-.1,18.3-5.1,5-13.1,4.8-18.1-.3-5-5.2-4.8-13.2.4-18.1ZM135.52,67.93c4.9-4.7,13-4.6,17.8.1,5.1,4.9,4.9,13-.3,18.1-5.1,5-12.4,4.9-17.5-.2-5.2-5.1-5.2-13,0-18ZM153.42,125.33c-5.1,5.2-12.9,5.2-18,.1-4.9-5-5-13.5-.1-18.2,4.6-4.4,13.3-4.4,18-.1,4.9,4.5,4.9,13.3.1,18.2ZM135.22,146.93c4.7-4.9,13.4-5,18.2-.2,4.9,4.8,4.8,13.3-.2,18.2-4.9,4.8-12.6,4.9-17.6.1-5.1-5.1-5.4-13.1-.4-18.1ZM153.22,204.43c-4.9,4.7-13.6,4.4-18.2-.5-4.8-5.1-4.4-13.3.8-18.1,5-4.6,13-4.4,17.7.4,4.8,4.9,4.7,13.4-.3,18.2ZM95.92,68.03c4.6-4.7,13.8-4.6,18.4.1,4.4,4.6,4.4,13.2-.1,17.9-4.8,5.1-13.1,5.2-18.1.2-4.9-5-5-13.3-.2-18.2ZM95.82,107.63c4.8-4.9,13.4-5.1,18.2-.4,5,4.9,4.9,13-.2,18.1-5.2,5.1-12.9,5.1-17.9-.2-4.7-4.8-4.8-12.6-.1-17.5ZM95.82,186.23c4.9-5.1,13-5.1,18.1-.1,5.1,5,5.1,13,0,18-4.9,4.8-13.5,4.7-18.2-.2-4.5-4.6-4.5-13,.1-17.7ZM95.92,146.53c4.7-4.6,13.1-4.6,17.8,0,5.2,4.9,5.3,12.9.3,18-5.1,5.2-13,5.3-18.1.3-4.7-4.7-4.7-13.6,0-18.3ZM181.92,283.03c-11.6,14.9-24.6,29-31.4,46.8-.7,1.7-6.2,2.3-6.2,2.3,0,0-6.8.3-7.6-2.5-6.6-22.8-25.4-39.4-38.9-58.7-2.8-4-6-7.9-8.6-13,41.5,17.6,69.1,17.8,110.2,1.3-4.6,9-11.5,16.2-17.5,23.8ZM232.22,164.93c-4.9,4.9-13,4.7-18.1-.4-5.2-5.3-5.1-12.6.3-17.9,4.9-4.8,12.7-4.8,17.6-.1,4.8,4.8,4.9,13.7.2,18.4ZM231.92,125.73c-4.8,4.6-13,4.7-17.8.1-4.9-4.7-5-13.3-.2-18.2,5-5.1,13.1-5.1,18.1-.1,4.9,5,4.9,13.3-.1,18.2Z"/>
      <path class="cls-1" d="M166.82,361.33s-6.6,6.9-4.5,62.8l3.4,67s9,27.2,1.1,30.3c0,0-12.4,5.2-22.5,5.2s-22.5-5.2-22.5-5.2c-7.9-3.1,1.1-30.3,1.1-30.3l3.4-67c3.5-54.3-4.5-62.8-4.5-62.8,0,0,8.4,4.6,22.5,4.6.1,0,17.8-.3,22.5-4.6Z"/>
      <path class="cls-1" d="M144.42,494.93c1.9.3,3.9.4,5.8.4s3.9-.1,5.8-.4c1.9-.3,3.6-1,5.4-1.6s3.4-1.4,5.3-2.3h.1v.1c-1.1,1.7-2.8,3.1-4.6,4-1.9.9-4,1.1-6,1.3-2,.1-4,.1-6-.1-2-.3-3.9-.6-5.8-1.2-.1,0-.1-.1-.1-.1q0-.1.1-.1Z"/>
    </g>
  </g>
</svg>