<?xml version="1.0" encoding="UTF-8"?>
<svg id="Layer_2" xmlns="http://www.w3.org/2000/svg" viewBox="0 0 800 394.39">
  <defs>
    <style>
      .cls-1 {
        fill: #fff;
      }
    </style>
  </defs>
  <g id="Layer_1-2" data-name="Layer_1">
    <path class="cls-1" d="M722.43,179.01c-23.96-4.39-64.54-4.43-112.89-13.44l6.64,39.82c1.15,6.79-3.46,13.22-10.24,14.34-.7.12-1.39.16-2.08.16-5.98,0-11.27-4.3-12.28-10.39l-6.91-41.39c-.76-4.53-4.97-9.08-9.39-10.27-2.49-.69-5-1.39-7.53-2.12-4.41-1.27-7.36,1.31-6.6,5.82l3.48,20.88c1.14,6.79-3.46,13.21-10.24,14.35-.7.11-1.39.18-2.08.18-5.97,0-11.25-4.3-12.28-10.41l-5.74-34.39c-.75-4.54-4.82-9.56-9.07-11.33-2.98-1.23-5.96-2.52-8.95-3.87-4.19-1.87-6.93.19-6.16,4.72l2.97,17.78c1.14,6.81-3.45,13.23-10.24,14.35-.7.11-1.38.19-2.06.19-5.97,0-11.25-4.33-12.28-10.42l-6.11-36.59c-.74-4.53-4.57-10.08-8.48-12.47-3.71-2.3-7.44-4.7-11.16-7.18-3.81-2.53-6.25-1.01-5.5,3.52l4.27,25.63c1.15,6.79-3.45,13.21-10.24,14.33-.7.13-1.39.19-2.06.19-5.98,0-11.27-4.31-12.28-10.42l-10.61-63.58c-2.48-2.84-4.77-5.62-6.58-8.03-15.34-20.38-45.98-57.56-71.29-66.51-26.5-9.35-47.73,9.76-52.3,27.48-2.28,8.91,1.73,23.71,4.57,32.44,1.77,5.42,4.52,11.33,8.79,16.21,6.04,6.91,8.33,14.23,1.32,20.15-16.39,13.94-47.39,37.52-82.52,50.53-69.26,25.63-81.39-9.69-81.39-9.69,0,0-15.32-49.65-39.86-67.53-7.41-5.42-22.78-7.36-31.7-5.26-3.17.77-6.08,1.95-8.85,3.33,5.47,31.98,29.47,109.16,134.45,159.81,136.16,65.75,407.31,78.87,458.12,80.77,4.6.18,4.65.96.14,1.73-33.1,5.58-161.36,24.58-288.93,8.94-156.8-19.28-301.11-64.41-338.89-191.49-.78,2.78-1.52,5.38-2.24,7.61-6.09,19.2-11.74,31.99-12.91,73.75-.24,9.18-4.02,23.05-7.25,31.64-3.88,10.27-7.99,25.44-8.53,44.19-.54,18.67-.53,34.61-.38,45.7.12,9.18,5.9,21.69,13.81,26.35,5.65,3.36,12.82,6.78,21.04,8.89,8.9,2.3,22.68,6.42,31.44,9.2,3.79,1.21,8.19,2.24,13.1,2.75,9.14.94,19.82-.28,23.84-.05,4.02.22,7.26,2.3,7.26,4.68s4.8,4.29,10.73,4.29,12.44-2.49,14.54-5.54c2.1-3.06,6.29-5.54,9.35-5.54s5.55,2.49,5.55,5.54,4.49,5.54,10.04,5.54,11.59-2.63,13.49-5.9c1.93-3.23,5.81-5.89,8.68-5.89s6.89,2.64,8.99,5.89c2.12,3.26,7.86,5.9,12.83,5.9s10.55-2.49,12.47-5.54c1.91-3.06,6.4-3.06,10.03,0,3.64,3.06,12.02,5.54,18.71,5.54s12.9-2.01,13.85-4.49c.94-2.49,4.51-4.51,7.96-4.51s7.79,2.01,9.7,4.51c1.91,2.48,8.57,3.39,14.88,2.08,6.31-1.35,12.82-5.23,14.54-8.66,1.73-3.44,5.3-4.07,7.98-1.4,2.66,2.7,9.95,5.65,16.27,6.58,6.31.97,13.91-.12,16.97-2.43,3.06-2.29,8.02-3.68,11.06-3.13,3.06.59,5.54,3.37,5.54,6.24s5.28,5.2,11.78,5.2,13.64-1.54,15.94-3.46c2.29-1.91,6.78-3.01,10.03-2.43,3.25.56,5.89,2.59,5.89,4.5s3.25,3.45,7.26,3.45,9.92-1.24,13.17-2.76c3.25-1.54,7.75-2.47,10.04-2.08,2.31.38,4.16,2.4,4.16,4.51s7.44,3.8,16.62,3.8h1.39c9.19,0,16.62-2.49,16.62-5.54s2.64-5.54,5.88-5.54,5.89,2.49,5.89,5.54,6.51,5.54,14.54,5.54,17.33-1.7,20.78-3.8c3.44-2.12,8.56-2.12,11.43,0,2.86,2.1,12.48,3.8,21.47,3.8s17.83-2.17,19.74-4.84c1.91-2.67,6.11-5.62,9.34-6.59,3.25-.93,7.13.44,8.65,3.11,1.54,2.68,10.07,3.41,19.1,1.67l2.69-.54c9-1.77,17.25-6.15,18.4-9.8,1.15-3.62,3.79-6.88,5.89-7.26,2.1-.38,5.67,1.65,7.97,4.5,2.29,2.87,9.12,3.8,15.23,2.06,6.12-1.71,11.86-7.45,12.82-12.8.96-5.35,4.99-10.78,9-12.1,4.02-1.35,7.26.68,7.26,4.5s6.97,4.29,15.55,1.07c8.65-3.29,15.62-9.01,15.62-12.84s2.32-7.87,5.19-9c2.87-1.15,6.59-.69,8.32,1.02,1.71,1.72,6.83.5,11.43-2.76,4.6-3.23,8.94-8.37,9.7-11.42.77-3.06,7.84-9.35,14.57-15.6,13.88-12.93,32.62-38.33,23.5-76.82-13.87-58.52-24.25-41.57-75.16-50.94Z"/>
  </g>
</svg>